M48
; DRILL file {KiCad 5.1.6+dfsg1-1} date Tue Nov  3 16:58:08 2020
; FORMAT={-:-/ absolute / inch / decimal}
; #@! TF.CreationDate,2020-11-03T16:58:08-08:00
; #@! TF.GenerationSoftware,Kicad,Pcbnew,5.1.6+dfsg1-1
; #@! TF.FileFunction,Plated,1,2,PTH
FMAT,2
INCH
T1C0.0157
T2C0.0236
T3C0.0394
T4C0.0579
T5C0.0591
%
G90
G05
T1
X5.73Y10.595
X5.795Y10.725
X5.885Y10.82
X6.205Y10.595
X6.216Y10.5548
X6.245Y10.5263
X6.2727Y10.1523
X6.275Y10.195
X13.105Y10.4
X13.2236Y10.5263
X13.255Y10.55
X13.41Y10.475
X13.445Y9.845
X13.4819Y10.3737
X13.5007Y10.2987
X13.5008Y10.3391
X13.5325Y10.215
X13.545Y10.595
X13.58Y10.465
X13.675Y10.645
X13.69Y10.465
X13.7097Y10.4991
X13.8165Y10.645
X13.8227Y10.5372
X13.85Y9.8735
X13.86Y10.55
X13.8848Y9.8152
X13.975Y10.53
X14.0053Y9.7047
X14.14Y10.595
X14.18Y9.845
X14.195Y10.22
X14.205Y10.4186
X14.36Y10.64
X14.625Y10.48
T3
X5.3681Y10.9859
X5.3681Y10.415
X5.4666Y10.415
X5.565Y10.9859
X5.565Y10.415
X5.3681Y10.24
X5.3681Y9.6691
X5.4666Y9.6691
X5.565Y10.24
X5.565Y9.6691
X12.875Y10.22
X12.975Y10.22
X13.075Y10.22
X13.48Y11.025
X13.58Y11.025
X5.165Y11.025
T4
X5.3187Y10.8187
X5.3703Y10.8762
X5.5672Y10.8959
X5.5687Y10.9187
X9.4437Y10.0687
X9.4953Y10.1262
X9.6922Y10.1459
X9.6937Y10.1687
X13.0062Y10.8187
X13.0578Y10.8762
X13.2547Y10.8959
X13.2562Y10.9187
X14.4125Y9.3187
X14.4641Y9.3762
X14.6609Y9.3959
X14.6625Y9.4187
X13.1937Y10.0687
X13.2453Y10.1262
X13.4422Y10.1459
X13.4437Y10.1687
X11.6937Y10.0687
X11.7453Y10.1262
X11.9422Y10.1459
X11.9437Y10.1687
X9.2562Y10.8187
X9.3078Y10.8762
X9.5047Y10.8959
X9.5062Y10.9187
X2.8813Y10.0687
X2.9328Y10.1262
X3.1297Y10.1459
X3.1313Y10.1687
X3.2563Y8.5687
X3.3078Y8.6262
X3.5047Y8.6459
X3.5063Y8.6687
X4.5687Y8.3812
X4.6203Y8.4387
X4.8172Y8.4584
X4.8187Y8.4812
X7.1937Y10.0687
X7.2453Y10.1262
X7.4422Y10.1459
X7.4437Y10.1687
X8.3187Y9.3187
X8.3703Y9.3762
X8.5672Y9.3959
X8.5687Y9.4187
X6.0687Y8.3812
X6.1203Y8.4387
X6.3172Y8.4584
X6.3187Y8.4812
X10.85Y8.5687
X10.9016Y8.6262
X11.0984Y8.6459
X11.1Y8.6687
X10.1937Y10.0687
X10.2453Y10.1262
X10.4422Y10.1459
X10.4437Y10.1687
X5.3187Y9.1312
X5.3703Y9.1887
X5.5672Y9.2084
X5.5687Y9.2312
X14.225Y10.0687
X14.2766Y10.1262
X14.4734Y10.1459
X14.475Y10.1687
X3.6313Y9.3187
X3.6828Y9.3762
X3.8797Y9.3959
X3.8813Y9.4187
X14.4125Y8.5687
X14.4641Y8.6262
X14.6609Y8.6459
X14.6625Y8.6687
X11.225Y8.5687
X11.2766Y8.6262
X11.4734Y8.6459
X11.475Y8.6687
X8.5062Y10.8187
X8.5578Y10.8762
X8.7547Y10.8959
X8.7562Y10.9187
X13.7562Y10.8187
X13.8078Y10.8762
X14.0047Y10.8959
X14.0062Y10.9187
X3.6313Y10.0687
X3.6828Y10.1262
X3.8797Y10.1459
X3.8813Y10.1687
X13.5687Y8.5687
X13.6203Y8.6262
X13.8172Y8.6459
X13.8187Y8.6687
X12.2562Y10.8187
X12.3078Y10.8762
X12.5047Y10.8959
X12.5062Y10.9187
X4.3812Y10.0687
X4.4328Y10.1262
X4.6297Y10.1459
X4.6312Y10.1687
X8.0375Y8.5687
X8.0891Y8.6262
X8.2859Y8.6459
X8.2875Y8.6687
X9.0687Y9.3187
X9.1203Y9.3762
X9.3172Y9.3959
X9.3187Y9.4187
X2.8813Y9.3187
X2.9328Y9.3762
X3.1297Y9.3959
X3.1313Y9.4187
X10.9437Y10.0687
X10.9953Y10.1262
X11.1922Y10.1459
X11.1937Y10.1687
X3.6313Y8.5687
X3.6828Y8.6262
X3.8797Y8.6459
X3.8813Y8.6687
X4.3812Y9.3187
X4.4328Y9.3762
X4.6297Y9.3959
X4.6312Y9.4187
X11.3187Y9.3187
X11.3703Y9.3762
X11.5672Y9.3959
X11.5687Y9.4187
X10.7562Y10.8187
X10.8078Y10.8762
X11.0047Y10.8959
X11.0062Y10.9187
X10.0062Y10.8187
X10.0578Y10.8762
X10.2547Y10.8959
X10.2562Y10.9187
X9.8187Y9.3187
X9.8703Y9.3762
X10.0672Y9.3959
X10.0687Y9.4187
X13.5687Y9.3187
X13.6203Y9.3762
X13.8172Y9.3959
X13.8187Y9.4187
X14.5062Y10.8187
X14.5578Y10.8762
X14.7547Y10.8959
X14.7562Y10.9187
X10.5687Y9.3187
X10.6203Y9.3762
X10.8172Y9.3959
X10.8187Y9.4187
X7.7562Y10.8187
X7.8078Y10.8762
X8.0047Y10.8959
X8.0062Y10.9187
X12.725Y8.5687
X12.7766Y8.6262
X12.9734Y8.6459
X12.975Y8.6687
X11.5062Y10.8187
X11.5578Y10.8762
X11.7547Y10.8959
X11.7562Y10.9187
X12.8187Y9.3187
X12.8703Y9.3762
X13.0672Y9.3959
X13.0687Y9.4187
X8.6937Y10.0687
X8.7453Y10.1262
X8.9422Y10.1459
X8.9437Y10.1687
X5.3187Y8.3812
X5.3703Y8.4387
X5.5672Y8.4584
X5.5687Y8.4812
X3.6313Y10.8187
X3.6828Y10.8762
X3.8797Y10.8959
X3.8813Y10.9187
X2.8813Y10.8187
X2.9328Y10.8762
X3.1297Y10.8959
X3.1313Y10.9187
X5.3187Y10.0687
X5.3703Y10.1262
X5.5672Y10.1459
X5.5687Y10.1687
X4.3812Y10.8187
X4.4328Y10.8762
X4.6297Y10.8959
X4.6312Y10.9187
X7.9437Y10.0687
X7.9953Y10.1262
X8.1922Y10.1459
X8.1937Y10.1687
X12.0687Y9.3187
X12.1203Y9.3762
X12.3172Y9.3959
X12.3187Y9.4187
X12.4437Y10.0687
X12.4953Y10.1262
X12.6922Y10.1459
X12.6937Y10.1687
X6.5375Y9.3187
X6.5891Y9.3762
X6.7859Y9.3959
X6.7875Y9.4187
X2.8813Y8.5687
X2.9328Y8.6262
X3.1297Y8.6459
X3.1313Y8.6687
X7.5687Y9.3187
X7.6203Y9.3762
X7.8172Y9.3959
X7.8187Y9.4187
X6.35Y10.0687
X6.4016Y10.1262
X6.5984Y10.1459
X6.6Y10.1687
X6.2562Y10.8187
X6.3078Y10.8762
X6.5047Y10.8959
X6.5062Y10.9187
X9.35Y8.5687
X9.4016Y8.6262
X9.5984Y8.6459
X9.6Y8.6687
X7.1Y8.5687
X7.1516Y8.6262
X7.3484Y8.6459
X7.35Y8.6687
X7.0062Y10.8187
X7.0578Y10.8762
X7.2547Y10.8959
X7.2562Y10.9187
T2
G00X5.7649Y11.1494
M15
G01X5.7649Y11.1258
M16
G05
G00X5.7649Y10.9947
M15
G01X5.7649Y10.9514
M16
G05
G00X6.1051Y11.1494
M15
G01X6.1051Y11.1258
M16
G05
G00X6.1051Y10.9947
M15
G01X6.1051Y10.9514
M16
G05
T5
G00X5.2461Y10.6847
M15
G01X5.2461Y10.7359
M16
G05
G00X5.687Y10.6847
M15
G01X5.687Y10.7359
M16
G05
G00X5.2461Y9.9388
M15
G01X5.2461Y9.99
M16
G05
G00X5.687Y9.9388
M15
G01X5.687Y9.99
M16
G05
T0
M30
