%TF.GenerationSoftware,KiCad,Pcbnew,5.1.6+dfsg1-1*%
%TF.CreationDate,2020-11-01T09:24:26-08:00*%
%TF.ProjectId,SPM1800,53504d31-3830-4302-9e6b-696361645f70,rev?*%
%TF.SameCoordinates,Original*%
%TF.FileFunction,Paste,Bot*%
%TF.FilePolarity,Positive*%
%FSLAX46Y46*%
G04 Gerber Fmt 4.6, Leading zero omitted, Abs format (unit mm)*
G04 Created by KiCad (PCBNEW 5.1.6+dfsg1-1) date 2020-11-01 09:24:26*
%MOMM*%
%LPD*%
G01*
G04 APERTURE LIST*
%ADD10R,1.400000X1.200000*%
%ADD11R,0.300000X2.450000*%
%ADD12R,0.600000X2.450000*%
%ADD13C,0.100000*%
%ADD14R,0.700000X0.600000*%
%ADD15R,0.700000X1.000000*%
%ADD16R,1.200000X0.900000*%
%ADD17R,0.900000X1.200000*%
G04 APERTURE END LIST*
%TO.C,C8*%
G36*
G01*
X356964000Y267404000D02*
X356014000Y267404000D01*
G75*
G02*
X355764000Y267654000I0J250000D01*
G01*
X355764000Y268154000D01*
G75*
G02*
X356014000Y268404000I250000J0D01*
G01*
X356964000Y268404000D01*
G75*
G02*
X357214000Y268154000I0J-250000D01*
G01*
X357214000Y267654000D01*
G75*
G02*
X356964000Y267404000I-250000J0D01*
G01*
G37*
G36*
G01*
X356964000Y265504000D02*
X356014000Y265504000D01*
G75*
G02*
X355764000Y265754000I0J250000D01*
G01*
X355764000Y266254000D01*
G75*
G02*
X356014000Y266504000I250000J0D01*
G01*
X356964000Y266504000D01*
G75*
G02*
X357214000Y266254000I0J-250000D01*
G01*
X357214000Y265754000D01*
G75*
G02*
X356964000Y265504000I-250000J0D01*
G01*
G37*
%TD*%
D10*
%TO.C,Y1*%
X364363000Y267257000D03*
X362163000Y267257000D03*
X362163000Y265557000D03*
X364363000Y265557000D03*
%TD*%
D11*
%TO.C,USB1*%
X150499000Y277301000D03*
X150999000Y277301000D03*
X151499000Y277301000D03*
X149999000Y277301000D03*
X151999000Y277301000D03*
X149499000Y277301000D03*
X152499000Y277301000D03*
X148999000Y277301000D03*
D12*
X148299000Y277301000D03*
X153199000Y277301000D03*
X147524000Y277301000D03*
X153974000Y277301000D03*
%TD*%
D13*
%TO.C,U1*%
G36*
X345323690Y258926952D02*
G01*
X345712598Y258538044D01*
X344651938Y257477384D01*
X344263030Y257866292D01*
X345323690Y258926952D01*
G37*
G36*
X345889376Y258361267D02*
G01*
X346278284Y257972359D01*
X345217624Y256911699D01*
X344828716Y257300607D01*
X345889376Y258361267D01*
G37*
G36*
X346455061Y257795582D02*
G01*
X346843969Y257406674D01*
X345783309Y256346014D01*
X345394401Y256734922D01*
X346455061Y257795582D01*
G37*
G36*
X347020746Y257229896D02*
G01*
X347409654Y256840988D01*
X346348994Y255780328D01*
X345960086Y256169236D01*
X347020746Y257229896D01*
G37*
G36*
X347586432Y256664211D02*
G01*
X347975340Y256275303D01*
X346914680Y255214643D01*
X346525772Y255603551D01*
X347586432Y256664211D01*
G37*
G36*
X348152117Y256098525D02*
G01*
X348541025Y255709617D01*
X347480365Y254648957D01*
X347091457Y255037865D01*
X348152117Y256098525D01*
G37*
G36*
X348717803Y255532840D02*
G01*
X349106711Y255143932D01*
X348046051Y254083272D01*
X347657143Y254472180D01*
X348717803Y255532840D01*
G37*
G36*
X349283488Y254967154D02*
G01*
X349672396Y254578246D01*
X348611736Y253517586D01*
X348222828Y253906494D01*
X349283488Y254967154D01*
G37*
G36*
X349849174Y254401469D02*
G01*
X350238082Y254012561D01*
X349177422Y252951901D01*
X348788514Y253340809D01*
X349849174Y254401469D01*
G37*
G36*
X350414859Y253835784D02*
G01*
X350803767Y253446876D01*
X349743107Y252386216D01*
X349354199Y252775124D01*
X350414859Y253835784D01*
G37*
G36*
X350980544Y253270098D02*
G01*
X351369452Y252881190D01*
X350308792Y251820530D01*
X349919884Y252209438D01*
X350980544Y253270098D01*
G37*
G36*
X352324048Y252881190D02*
G01*
X352712956Y253270098D01*
X353773616Y252209438D01*
X353384708Y251820530D01*
X352324048Y252881190D01*
G37*
G36*
X352889733Y253446876D02*
G01*
X353278641Y253835784D01*
X354339301Y252775124D01*
X353950393Y252386216D01*
X352889733Y253446876D01*
G37*
G36*
X353455418Y254012561D02*
G01*
X353844326Y254401469D01*
X354904986Y253340809D01*
X354516078Y252951901D01*
X353455418Y254012561D01*
G37*
G36*
X354021104Y254578246D02*
G01*
X354410012Y254967154D01*
X355470672Y253906494D01*
X355081764Y253517586D01*
X354021104Y254578246D01*
G37*
G36*
X354586789Y255143932D02*
G01*
X354975697Y255532840D01*
X356036357Y254472180D01*
X355647449Y254083272D01*
X354586789Y255143932D01*
G37*
G36*
X355152475Y255709617D02*
G01*
X355541383Y256098525D01*
X356602043Y255037865D01*
X356213135Y254648957D01*
X355152475Y255709617D01*
G37*
G36*
X355718160Y256275303D02*
G01*
X356107068Y256664211D01*
X357167728Y255603551D01*
X356778820Y255214643D01*
X355718160Y256275303D01*
G37*
G36*
X356283846Y256840988D02*
G01*
X356672754Y257229896D01*
X357733414Y256169236D01*
X357344506Y255780328D01*
X356283846Y256840988D01*
G37*
G36*
X356849531Y257406674D02*
G01*
X357238439Y257795582D01*
X358299099Y256734922D01*
X357910191Y256346014D01*
X356849531Y257406674D01*
G37*
G36*
X357415216Y257972359D02*
G01*
X357804124Y258361267D01*
X358864784Y257300607D01*
X358475876Y256911699D01*
X357415216Y257972359D01*
G37*
G36*
X357980902Y258538044D02*
G01*
X358369810Y258926952D01*
X359430470Y257866292D01*
X359041562Y257477384D01*
X357980902Y258538044D01*
G37*
G36*
X359041562Y261331116D02*
G01*
X359430470Y260942208D01*
X358369810Y259881548D01*
X357980902Y260270456D01*
X359041562Y261331116D01*
G37*
G36*
X358475876Y261896801D02*
G01*
X358864784Y261507893D01*
X357804124Y260447233D01*
X357415216Y260836141D01*
X358475876Y261896801D01*
G37*
G36*
X357910191Y262462486D02*
G01*
X358299099Y262073578D01*
X357238439Y261012918D01*
X356849531Y261401826D01*
X357910191Y262462486D01*
G37*
G36*
X357344506Y263028172D02*
G01*
X357733414Y262639264D01*
X356672754Y261578604D01*
X356283846Y261967512D01*
X357344506Y263028172D01*
G37*
G36*
X356778820Y263593857D02*
G01*
X357167728Y263204949D01*
X356107068Y262144289D01*
X355718160Y262533197D01*
X356778820Y263593857D01*
G37*
G36*
X356213135Y264159543D02*
G01*
X356602043Y263770635D01*
X355541383Y262709975D01*
X355152475Y263098883D01*
X356213135Y264159543D01*
G37*
G36*
X355647449Y264725228D02*
G01*
X356036357Y264336320D01*
X354975697Y263275660D01*
X354586789Y263664568D01*
X355647449Y264725228D01*
G37*
G36*
X355081764Y265290914D02*
G01*
X355470672Y264902006D01*
X354410012Y263841346D01*
X354021104Y264230254D01*
X355081764Y265290914D01*
G37*
G36*
X354516078Y265856599D02*
G01*
X354904986Y265467691D01*
X353844326Y264407031D01*
X353455418Y264795939D01*
X354516078Y265856599D01*
G37*
G36*
X353950393Y266422284D02*
G01*
X354339301Y266033376D01*
X353278641Y264972716D01*
X352889733Y265361624D01*
X353950393Y266422284D01*
G37*
G36*
X353384708Y266987970D02*
G01*
X353773616Y266599062D01*
X352712956Y265538402D01*
X352324048Y265927310D01*
X353384708Y266987970D01*
G37*
G36*
X349919884Y266599062D02*
G01*
X350308792Y266987970D01*
X351369452Y265927310D01*
X350980544Y265538402D01*
X349919884Y266599062D01*
G37*
G36*
X349354199Y266033376D02*
G01*
X349743107Y266422284D01*
X350803767Y265361624D01*
X350414859Y264972716D01*
X349354199Y266033376D01*
G37*
G36*
X348788514Y265467691D02*
G01*
X349177422Y265856599D01*
X350238082Y264795939D01*
X349849174Y264407031D01*
X348788514Y265467691D01*
G37*
G36*
X348222828Y264902006D02*
G01*
X348611736Y265290914D01*
X349672396Y264230254D01*
X349283488Y263841346D01*
X348222828Y264902006D01*
G37*
G36*
X347657143Y264336320D02*
G01*
X348046051Y264725228D01*
X349106711Y263664568D01*
X348717803Y263275660D01*
X347657143Y264336320D01*
G37*
G36*
X347091457Y263770635D02*
G01*
X347480365Y264159543D01*
X348541025Y263098883D01*
X348152117Y262709975D01*
X347091457Y263770635D01*
G37*
G36*
X346525772Y263204949D02*
G01*
X346914680Y263593857D01*
X347975340Y262533197D01*
X347586432Y262144289D01*
X346525772Y263204949D01*
G37*
G36*
X345960086Y262639264D02*
G01*
X346348994Y263028172D01*
X347409654Y261967512D01*
X347020746Y261578604D01*
X345960086Y262639264D01*
G37*
G36*
X345394401Y262073578D02*
G01*
X345783309Y262462486D01*
X346843969Y261401826D01*
X346455061Y261012918D01*
X345394401Y262073578D01*
G37*
G36*
X344828716Y261507893D02*
G01*
X345217624Y261896801D01*
X346278284Y260836141D01*
X345889376Y260447233D01*
X344828716Y261507893D01*
G37*
G36*
X344263030Y260942208D02*
G01*
X344651938Y261331116D01*
X345712598Y260270456D01*
X345323690Y259881548D01*
X344263030Y260942208D01*
G37*
%TD*%
%TO.C,R4*%
G36*
G01*
X155009001Y267711500D02*
X154108999Y267711500D01*
G75*
G02*
X153859000Y267961499I0J249999D01*
G01*
X153859000Y268486501D01*
G75*
G02*
X154108999Y268736500I249999J0D01*
G01*
X155009001Y268736500D01*
G75*
G02*
X155259000Y268486501I0J-249999D01*
G01*
X155259000Y267961499D01*
G75*
G02*
X155009001Y267711500I-249999J0D01*
G01*
G37*
G36*
G01*
X155009001Y269536500D02*
X154108999Y269536500D01*
G75*
G02*
X153859000Y269786499I0J249999D01*
G01*
X153859000Y270311501D01*
G75*
G02*
X154108999Y270561500I249999J0D01*
G01*
X155009001Y270561500D01*
G75*
G02*
X155259000Y270311501I0J-249999D01*
G01*
X155259000Y269786499D01*
G75*
G02*
X155009001Y269536500I-249999J0D01*
G01*
G37*
%TD*%
%TO.C,R3*%
G36*
G01*
X147643001Y267711500D02*
X146742999Y267711500D01*
G75*
G02*
X146493000Y267961499I0J249999D01*
G01*
X146493000Y268486501D01*
G75*
G02*
X146742999Y268736500I249999J0D01*
G01*
X147643001Y268736500D01*
G75*
G02*
X147893000Y268486501I0J-249999D01*
G01*
X147893000Y267961499D01*
G75*
G02*
X147643001Y267711500I-249999J0D01*
G01*
G37*
G36*
G01*
X147643001Y269536500D02*
X146742999Y269536500D01*
G75*
G02*
X146493000Y269786499I0J249999D01*
G01*
X146493000Y270311501D01*
G75*
G02*
X146742999Y270561500I249999J0D01*
G01*
X147643001Y270561500D01*
G75*
G02*
X147893000Y270311501I0J-249999D01*
G01*
X147893000Y269786499D01*
G75*
G02*
X147643001Y269536500I-249999J0D01*
G01*
G37*
%TD*%
%TO.C,R2*%
G36*
G01*
X358209001Y245994500D02*
X357308999Y245994500D01*
G75*
G02*
X357059000Y246244499I0J249999D01*
G01*
X357059000Y246769501D01*
G75*
G02*
X357308999Y247019500I249999J0D01*
G01*
X358209001Y247019500D01*
G75*
G02*
X358459000Y246769501I0J-249999D01*
G01*
X358459000Y246244499D01*
G75*
G02*
X358209001Y245994500I-249999J0D01*
G01*
G37*
G36*
G01*
X358209001Y244169500D02*
X357308999Y244169500D01*
G75*
G02*
X357059000Y244419499I0J249999D01*
G01*
X357059000Y244944501D01*
G75*
G02*
X357308999Y245194500I249999J0D01*
G01*
X358209001Y245194500D01*
G75*
G02*
X358459000Y244944501I0J-249999D01*
G01*
X358459000Y244419499D01*
G75*
G02*
X358209001Y244169500I-249999J0D01*
G01*
G37*
%TD*%
%TO.C,R1*%
G36*
G01*
X344546500Y276663999D02*
X344546500Y277564001D01*
G75*
G02*
X344796499Y277814000I249999J0D01*
G01*
X345321501Y277814000D01*
G75*
G02*
X345571500Y277564001I0J-249999D01*
G01*
X345571500Y276663999D01*
G75*
G02*
X345321501Y276414000I-249999J0D01*
G01*
X344796499Y276414000D01*
G75*
G02*
X344546500Y276663999I0J249999D01*
G01*
G37*
G36*
G01*
X342721500Y276663999D02*
X342721500Y277564001D01*
G75*
G02*
X342971499Y277814000I249999J0D01*
G01*
X343496501Y277814000D01*
G75*
G02*
X343746500Y277564001I0J-249999D01*
G01*
X343746500Y276663999D01*
G75*
G02*
X343496501Y276414000I-249999J0D01*
G01*
X342971499Y276414000D01*
G75*
G02*
X342721500Y276663999I0J249999D01*
G01*
G37*
%TD*%
%TO.C,F1*%
G36*
G01*
X160899000Y263515000D02*
X160899000Y262265000D01*
G75*
G02*
X160649000Y262015000I-250000J0D01*
G01*
X159899000Y262015000D01*
G75*
G02*
X159649000Y262265000I0J250000D01*
G01*
X159649000Y263515000D01*
G75*
G02*
X159899000Y263765000I250000J0D01*
G01*
X160649000Y263765000D01*
G75*
G02*
X160899000Y263515000I0J-250000D01*
G01*
G37*
G36*
G01*
X158099000Y263515000D02*
X158099000Y262265000D01*
G75*
G02*
X157849000Y262015000I-250000J0D01*
G01*
X157099000Y262015000D01*
G75*
G02*
X156849000Y262265000I0J250000D01*
G01*
X156849000Y263515000D01*
G75*
G02*
X157099000Y263765000I250000J0D01*
G01*
X157849000Y263765000D01*
G75*
G02*
X158099000Y263515000I0J-250000D01*
G01*
G37*
%TD*%
D14*
%TO.C,D60*%
X150273000Y270957000D03*
X152273000Y270957000D03*
X150273000Y272857000D03*
D15*
X152273000Y272657000D03*
%TD*%
D16*
%TO.C,D59*%
X378206000Y215265000D03*
X378206000Y211965000D03*
%TD*%
%TO.C,D58*%
X356743000Y215265000D03*
X356743000Y211965000D03*
%TD*%
%TO.C,D57*%
X335280000Y215263000D03*
X335280000Y211963000D03*
%TD*%
%TO.C,D56*%
X297180000Y215263000D03*
X297180000Y211963000D03*
%TD*%
%TO.C,D54*%
X249682000Y215265000D03*
X249682000Y211965000D03*
%TD*%
%TO.C,D53*%
X216281000Y215265000D03*
X216281000Y211965000D03*
%TD*%
%TO.C,D52*%
X192405000Y215265000D03*
X192405000Y211965000D03*
%TD*%
%TO.C,D51*%
X166243000Y210439000D03*
X166243000Y207139000D03*
%TD*%
%TO.C,D50*%
X147193000Y210437000D03*
X147193000Y207137000D03*
%TD*%
%TO.C,D49*%
X128143000Y210437000D03*
X128143000Y207137000D03*
%TD*%
%TO.C,D48*%
X104267000Y215265000D03*
X104267000Y211965000D03*
%TD*%
D17*
%TO.C,D47*%
X89027000Y211963000D03*
X92327000Y211963000D03*
%TD*%
D16*
%TO.C,D46*%
X378206000Y234314000D03*
X378206000Y231014000D03*
%TD*%
%TO.C,D45*%
X356743000Y234315000D03*
X356743000Y231015000D03*
%TD*%
%TO.C,D44*%
X337693000Y234315000D03*
X337693000Y231015000D03*
%TD*%
%TO.C,D43*%
X318643000Y234315000D03*
X318643000Y231015000D03*
%TD*%
%TO.C,D42*%
X299593000Y234315000D03*
X299593000Y231015000D03*
%TD*%
%TO.C,D41*%
X280543000Y234315000D03*
X280543000Y231015000D03*
%TD*%
%TO.C,D40*%
X261493000Y234315000D03*
X261493000Y231015000D03*
%TD*%
%TO.C,D39*%
X242443000Y234313000D03*
X242443000Y231013000D03*
%TD*%
%TO.C,D38*%
X223393000Y234315000D03*
X223393000Y231015000D03*
%TD*%
%TO.C,D37*%
X204343000Y234315000D03*
X204343000Y231015000D03*
%TD*%
%TO.C,D36*%
X178308000Y234313000D03*
X178308000Y231013000D03*
%TD*%
%TO.C,D35*%
X147193000Y229487000D03*
X147193000Y226187000D03*
%TD*%
%TO.C,D34*%
X123317000Y234315000D03*
X123317000Y231015000D03*
%TD*%
%TO.C,D33*%
X104267000Y234315000D03*
X104267000Y231015000D03*
%TD*%
%TO.C,D32*%
X85217000Y234313000D03*
X85217000Y231013000D03*
%TD*%
%TO.C,D31*%
X373507000Y253365000D03*
X373507000Y250065000D03*
%TD*%
%TO.C,D30*%
X330708000Y253365000D03*
X330708000Y250065000D03*
%TD*%
%TO.C,D29*%
X328168000Y253365000D03*
X328168000Y250065000D03*
%TD*%
%TO.C,D28*%
X309118000Y253365000D03*
X309118000Y250065000D03*
%TD*%
%TO.C,D27*%
X290068000Y253365000D03*
X290068000Y250065000D03*
%TD*%
%TO.C,D26*%
X271018000Y253365000D03*
X271018000Y250065000D03*
%TD*%
%TO.C,D25*%
X251968000Y253365000D03*
X251968000Y250065000D03*
%TD*%
%TO.C,D24*%
X232918000Y253365000D03*
X232918000Y250065000D03*
%TD*%
%TO.C,D23*%
X213868000Y253365000D03*
X213868000Y250065000D03*
%TD*%
%TO.C,D22*%
X194818000Y253365000D03*
X194818000Y250065000D03*
%TD*%
%TO.C,D21*%
X173482000Y253365000D03*
X173482000Y250065000D03*
%TD*%
%TO.C,D20*%
X147066000Y253365000D03*
X147066000Y250065000D03*
%TD*%
%TO.C,D19*%
X123317000Y253363000D03*
X123317000Y250063000D03*
%TD*%
%TO.C,D18*%
X104267000Y253364000D03*
X104267000Y250064000D03*
%TD*%
%TO.C,D17*%
X85217000Y253363000D03*
X85217000Y250063000D03*
%TD*%
%TO.C,D16*%
X380492000Y272413000D03*
X380492000Y269113000D03*
%TD*%
%TO.C,D15*%
X361442000Y272413000D03*
X361442000Y269113000D03*
%TD*%
%TO.C,D14*%
X342392000Y272415000D03*
X342392000Y269115000D03*
%TD*%
%TO.C,D13*%
X323342000Y272415000D03*
X323342000Y269115000D03*
%TD*%
%TO.C,D12*%
X304292000Y272415000D03*
X304292000Y269115000D03*
%TD*%
%TO.C,D11*%
X285242000Y272414000D03*
X285242000Y269114000D03*
%TD*%
%TO.C,D10*%
X266192000Y272415000D03*
X266192000Y269115000D03*
%TD*%
%TO.C,D9*%
X247142000Y272415000D03*
X247142000Y269115000D03*
%TD*%
%TO.C,D8*%
X228092000Y272414000D03*
X228092000Y269114000D03*
%TD*%
%TO.C,D7*%
X209042000Y272415000D03*
X209042000Y269115000D03*
%TD*%
%TO.C,D6*%
X189992000Y272413000D03*
X189992000Y269113000D03*
%TD*%
%TO.C,D5*%
X170942000Y272414000D03*
X170942000Y269114000D03*
%TD*%
%TO.C,D4*%
X130556000Y269115000D03*
X130556000Y272415000D03*
%TD*%
%TO.C,D3*%
X106807000Y272415000D03*
X106807000Y269115000D03*
%TD*%
%TO.C,D2*%
X104267000Y272414000D03*
X104267000Y269114000D03*
%TD*%
%TO.C,D1*%
X85217000Y272413000D03*
X85217000Y269113000D03*
%TD*%
%TO.C,C7*%
G36*
G01*
X338828000Y268318000D02*
X338828000Y267368000D01*
G75*
G02*
X338578000Y267118000I-250000J0D01*
G01*
X338078000Y267118000D01*
G75*
G02*
X337828000Y267368000I0J250000D01*
G01*
X337828000Y268318000D01*
G75*
G02*
X338078000Y268568000I250000J0D01*
G01*
X338578000Y268568000D01*
G75*
G02*
X338828000Y268318000I0J-250000D01*
G01*
G37*
G36*
G01*
X340728000Y268318000D02*
X340728000Y267368000D01*
G75*
G02*
X340478000Y267118000I-250000J0D01*
G01*
X339978000Y267118000D01*
G75*
G02*
X339728000Y267368000I0J250000D01*
G01*
X339728000Y268318000D01*
G75*
G02*
X339978000Y268568000I250000J0D01*
G01*
X340478000Y268568000D01*
G75*
G02*
X340728000Y268318000I0J-250000D01*
G01*
G37*
%TD*%
%TO.C,C6*%
G36*
G01*
X358935000Y265935000D02*
X359885000Y265935000D01*
G75*
G02*
X360135000Y265685000I0J-250000D01*
G01*
X360135000Y265185000D01*
G75*
G02*
X359885000Y264935000I-250000J0D01*
G01*
X358935000Y264935000D01*
G75*
G02*
X358685000Y265185000I0J250000D01*
G01*
X358685000Y265685000D01*
G75*
G02*
X358935000Y265935000I250000J0D01*
G01*
G37*
G36*
G01*
X358935000Y267835000D02*
X359885000Y267835000D01*
G75*
G02*
X360135000Y267585000I0J-250000D01*
G01*
X360135000Y267085000D01*
G75*
G02*
X359885000Y266835000I-250000J0D01*
G01*
X358935000Y266835000D01*
G75*
G02*
X358685000Y267085000I0J250000D01*
G01*
X358685000Y267585000D01*
G75*
G02*
X358935000Y267835000I250000J0D01*
G01*
G37*
%TD*%
%TO.C,C5*%
G36*
G01*
X367124000Y266830000D02*
X366174000Y266830000D01*
G75*
G02*
X365924000Y267080000I0J250000D01*
G01*
X365924000Y267580000D01*
G75*
G02*
X366174000Y267830000I250000J0D01*
G01*
X367124000Y267830000D01*
G75*
G02*
X367374000Y267580000I0J-250000D01*
G01*
X367374000Y267080000D01*
G75*
G02*
X367124000Y266830000I-250000J0D01*
G01*
G37*
G36*
G01*
X367124000Y264930000D02*
X366174000Y264930000D01*
G75*
G02*
X365924000Y265180000I0J250000D01*
G01*
X365924000Y265680000D01*
G75*
G02*
X366174000Y265930000I250000J0D01*
G01*
X367124000Y265930000D01*
G75*
G02*
X367374000Y265680000I0J-250000D01*
G01*
X367374000Y265180000D01*
G75*
G02*
X367124000Y264930000I-250000J0D01*
G01*
G37*
%TD*%
%TO.C,C4*%
G36*
G01*
X337710678Y264433073D02*
X337038927Y263761322D01*
G75*
G02*
X336685373Y263761322I-176777J176777D01*
G01*
X336331820Y264114875D01*
G75*
G02*
X336331820Y264468429I176777J176777D01*
G01*
X337003571Y265140180D01*
G75*
G02*
X337357125Y265140180I176777J-176777D01*
G01*
X337710678Y264786627D01*
G75*
G02*
X337710678Y264433073I-176777J-176777D01*
G01*
G37*
G36*
G01*
X339054180Y263089571D02*
X338382429Y262417820D01*
G75*
G02*
X338028875Y262417820I-176777J176777D01*
G01*
X337675322Y262771373D01*
G75*
G02*
X337675322Y263124927I176777J176777D01*
G01*
X338347073Y263796678D01*
G75*
G02*
X338700627Y263796678I176777J-176777D01*
G01*
X339054180Y263443125D01*
G75*
G02*
X339054180Y263089571I-176777J-176777D01*
G01*
G37*
%TD*%
%TO.C,C3*%
G36*
G01*
X348021927Y248175678D02*
X348693678Y247503927D01*
G75*
G02*
X348693678Y247150373I-176777J-176777D01*
G01*
X348340125Y246796820D01*
G75*
G02*
X347986571Y246796820I-176777J176777D01*
G01*
X347314820Y247468571D01*
G75*
G02*
X347314820Y247822125I176777J176777D01*
G01*
X347668373Y248175678D01*
G75*
G02*
X348021927Y248175678I176777J-176777D01*
G01*
G37*
G36*
G01*
X349365429Y249519180D02*
X350037180Y248847429D01*
G75*
G02*
X350037180Y248493875I-176777J-176777D01*
G01*
X349683627Y248140322D01*
G75*
G02*
X349330073Y248140322I-176777J176777D01*
G01*
X348658322Y248812073D01*
G75*
G02*
X348658322Y249165627I176777J176777D01*
G01*
X349011875Y249519180D01*
G75*
G02*
X349365429Y249519180I176777J-176777D01*
G01*
G37*
%TD*%
%TO.C,C2*%
G36*
G01*
X363101000Y260002000D02*
X363101000Y260952000D01*
G75*
G02*
X363351000Y261202000I250000J0D01*
G01*
X363851000Y261202000D01*
G75*
G02*
X364101000Y260952000I0J-250000D01*
G01*
X364101000Y260002000D01*
G75*
G02*
X363851000Y259752000I-250000J0D01*
G01*
X363351000Y259752000D01*
G75*
G02*
X363101000Y260002000I0J250000D01*
G01*
G37*
G36*
G01*
X361201000Y260002000D02*
X361201000Y260952000D01*
G75*
G02*
X361451000Y261202000I250000J0D01*
G01*
X361951000Y261202000D01*
G75*
G02*
X362201000Y260952000I0J-250000D01*
G01*
X362201000Y260002000D01*
G75*
G02*
X361951000Y259752000I-250000J0D01*
G01*
X361451000Y259752000D01*
G75*
G02*
X361201000Y260002000I0J250000D01*
G01*
G37*
%TD*%
%TO.C,C1*%
G36*
G01*
X346764429Y266809322D02*
X346092678Y266137571D01*
G75*
G02*
X345739124Y266137571I-176777J176777D01*
G01*
X345385571Y266491124D01*
G75*
G02*
X345385571Y266844678I176777J176777D01*
G01*
X346057322Y267516429D01*
G75*
G02*
X346410876Y267516429I176777J-176777D01*
G01*
X346764429Y267162876D01*
G75*
G02*
X346764429Y266809322I-176777J-176777D01*
G01*
G37*
G36*
G01*
X345420927Y268152824D02*
X344749176Y267481073D01*
G75*
G02*
X344395622Y267481073I-176777J176777D01*
G01*
X344042069Y267834626D01*
G75*
G02*
X344042069Y268188180I176777J176777D01*
G01*
X344713820Y268859931D01*
G75*
G02*
X345067374Y268859931I176777J-176777D01*
G01*
X345420927Y268506378D01*
G75*
G02*
X345420927Y268152824I-176777J-176777D01*
G01*
G37*
%TD*%
M02*
