%TF.GenerationSoftware,KiCad,Pcbnew,5.1.8-db9833491~87~ubuntu20.04.1*%
%TF.CreationDate,2020-11-06T17:36:50-08:00*%
%TF.ProjectId,SPM1800,53504d31-3830-4302-9e6b-696361645f70,rev?*%
%TF.SameCoordinates,Original*%
%TF.FileFunction,Legend,Bot*%
%TF.FilePolarity,Positive*%
%FSLAX46Y46*%
G04 Gerber Fmt 4.6, Leading zero omitted, Abs format (unit mm)*
G04 Created by KiCad (PCBNEW 5.1.8-db9833491~87~ubuntu20.04.1) date 2020-11-06 17:36:50*
%MOMM*%
%LPD*%
G01*
G04 APERTURE LIST*
%ADD10C,0.150000*%
%ADD11C,0.120000*%
G04 APERTURE END LIST*
D10*
X316542194Y-82673698D02*
X316575866Y-82572683D01*
X316676881Y-82471668D01*
X316811568Y-82404324D01*
X316946255Y-82404324D01*
X317047270Y-82437996D01*
X317215629Y-82539011D01*
X317316644Y-82640026D01*
X317417660Y-82808385D01*
X317451331Y-82909400D01*
X317451331Y-83044087D01*
X317383988Y-83178774D01*
X317316644Y-83246118D01*
X317181957Y-83313461D01*
X317114614Y-83313461D01*
X316878912Y-83077759D01*
X317013599Y-82943072D01*
X316878912Y-83683851D02*
X316171805Y-82976744D01*
X316474851Y-84087912D01*
X315767744Y-83380805D01*
X316138133Y-84424629D02*
X315431026Y-83717522D01*
X315262668Y-83885881D01*
X315195324Y-84020568D01*
X315195324Y-84155255D01*
X315228996Y-84256270D01*
X315330011Y-84424629D01*
X315431026Y-84525644D01*
X315599385Y-84626660D01*
X315700400Y-84660331D01*
X315835087Y-84660331D01*
X315969774Y-84592988D01*
X316138133Y-84424629D01*
X319334732Y-83027251D02*
X319099030Y-83262954D01*
X319368404Y-83734358D02*
X319705122Y-83397641D01*
X318998015Y-82690534D01*
X318661297Y-83027251D01*
X318055206Y-83633343D02*
X318189893Y-83498656D01*
X318290908Y-83464984D01*
X318358251Y-83464984D01*
X318526610Y-83498656D01*
X318694969Y-83599671D01*
X318964343Y-83869045D01*
X318998015Y-83970061D01*
X318998015Y-84037404D01*
X318964343Y-84138419D01*
X318829656Y-84273106D01*
X318728641Y-84306778D01*
X318661297Y-84306778D01*
X318560282Y-84273106D01*
X318391923Y-84104748D01*
X318358251Y-84003732D01*
X318358251Y-83936389D01*
X318391923Y-83835374D01*
X318526610Y-83700687D01*
X318627625Y-83667015D01*
X318694969Y-83667015D01*
X318795984Y-83700687D01*
X322396644Y-82707370D02*
X321857896Y-83246118D01*
X322396644Y-83246118D02*
X321857896Y-82707370D01*
X320746729Y-83481820D02*
X321083446Y-83145103D01*
X321453835Y-83448148D01*
X321386492Y-83448148D01*
X321285477Y-83481820D01*
X321117118Y-83650179D01*
X321083446Y-83751194D01*
X321083446Y-83818538D01*
X321117118Y-83919553D01*
X321285477Y-84087912D01*
X321386492Y-84121583D01*
X321453835Y-84121583D01*
X321554851Y-84087912D01*
X321723209Y-83919553D01*
X321756881Y-83818538D01*
X321756881Y-83751194D01*
X320511026Y-83717522D02*
X320982431Y-84660331D01*
X320039622Y-84188927D01*
X118736761Y-61364761D02*
X118593904Y-61412380D01*
X118355809Y-61412380D01*
X118260571Y-61364761D01*
X118212952Y-61317142D01*
X118165333Y-61221904D01*
X118165333Y-61126666D01*
X118212952Y-61031428D01*
X118260571Y-60983809D01*
X118355809Y-60936190D01*
X118546285Y-60888571D01*
X118641523Y-60840952D01*
X118689142Y-60793333D01*
X118736761Y-60698095D01*
X118736761Y-60602857D01*
X118689142Y-60507619D01*
X118641523Y-60460000D01*
X118546285Y-60412380D01*
X118308190Y-60412380D01*
X118165333Y-60460000D01*
X117736761Y-61412380D02*
X117736761Y-60412380D01*
X117736761Y-60888571D02*
X117165333Y-60888571D01*
X117165333Y-61412380D02*
X117165333Y-60412380D01*
X116689142Y-61412380D02*
X116689142Y-60412380D01*
X116212952Y-60888571D02*
X115879619Y-60888571D01*
X115736761Y-61412380D02*
X116212952Y-61412380D01*
X116212952Y-60412380D01*
X115736761Y-60412380D01*
X114832000Y-61412380D02*
X115308190Y-61412380D01*
X115308190Y-60412380D01*
X114498666Y-61412380D02*
X114498666Y-60412380D01*
X114260571Y-60412380D01*
X114117714Y-60460000D01*
X114022476Y-60555238D01*
X113974857Y-60650476D01*
X113927238Y-60840952D01*
X113927238Y-60983809D01*
X113974857Y-61174285D01*
X114022476Y-61269523D01*
X114117714Y-61364761D01*
X114260571Y-61412380D01*
X114498666Y-61412380D01*
X339653380Y-61539380D02*
X339986714Y-61063190D01*
X340224809Y-61539380D02*
X340224809Y-60539380D01*
X339843857Y-60539380D01*
X339748619Y-60587000D01*
X339701000Y-60634619D01*
X339653380Y-60729857D01*
X339653380Y-60872714D01*
X339701000Y-60967952D01*
X339748619Y-61015571D01*
X339843857Y-61063190D01*
X340224809Y-61063190D01*
X339224809Y-61015571D02*
X338891476Y-61015571D01*
X338748619Y-61539380D02*
X339224809Y-61539380D01*
X339224809Y-60539380D01*
X338748619Y-60539380D01*
X338367666Y-61491761D02*
X338224809Y-61539380D01*
X337986714Y-61539380D01*
X337891476Y-61491761D01*
X337843857Y-61444142D01*
X337796238Y-61348904D01*
X337796238Y-61253666D01*
X337843857Y-61158428D01*
X337891476Y-61110809D01*
X337986714Y-61063190D01*
X338177190Y-61015571D01*
X338272428Y-60967952D01*
X338320047Y-60920333D01*
X338367666Y-60825095D01*
X338367666Y-60729857D01*
X338320047Y-60634619D01*
X338272428Y-60587000D01*
X338177190Y-60539380D01*
X337939095Y-60539380D01*
X337796238Y-60587000D01*
X337367666Y-61015571D02*
X337034333Y-61015571D01*
X336891476Y-61539380D02*
X337367666Y-61539380D01*
X337367666Y-60539380D01*
X336891476Y-60539380D01*
X336605761Y-60539380D02*
X336034333Y-60539380D01*
X336320047Y-61539380D02*
X336320047Y-60539380D01*
D11*
%TO.C,R6*%
X176653564Y-75792000D02*
X176199436Y-75792000D01*
X176653564Y-74322000D02*
X176199436Y-74322000D01*
%TO.C,R5*%
X176653564Y-77697000D02*
X176199436Y-77697000D01*
X176653564Y-76227000D02*
X176199436Y-76227000D01*
%TO.C,C1*%
X346556000Y-74302252D02*
X346556000Y-73779748D01*
X345086000Y-74302252D02*
X345086000Y-73779748D01*
%TO.C,Y1*%
X354595000Y-72938000D02*
X354595000Y-76238000D01*
X354595000Y-76238000D02*
X350595000Y-76238000D01*
D10*
%TO.C,U1*%
X333860195Y-81590750D02*
X334266781Y-81184164D01*
X341178750Y-88909305D02*
X341656047Y-88432008D01*
X348497305Y-81590750D02*
X348020008Y-82068047D01*
X341178750Y-74272195D02*
X340701453Y-74749492D01*
X333860195Y-81590750D02*
X334337492Y-82068047D01*
X341178750Y-74272195D02*
X341656047Y-74749492D01*
X348497305Y-81590750D02*
X348020008Y-81113453D01*
X341178750Y-88909305D02*
X340701453Y-88432008D01*
X334266781Y-81184164D02*
X333365220Y-80282602D01*
D11*
%TO.C,R4*%
X143156000Y-72085564D02*
X143156000Y-71631436D01*
X144626000Y-72085564D02*
X144626000Y-71631436D01*
%TO.C,R3*%
X135790000Y-72085564D02*
X135790000Y-71631436D01*
X137260000Y-72085564D02*
X137260000Y-71631436D01*
%TO.C,R2*%
X349604000Y-95627564D02*
X349604000Y-95173436D01*
X348134000Y-95627564D02*
X348134000Y-95173436D01*
%TO.C,R1*%
X333251436Y-64616000D02*
X333705564Y-64616000D01*
X333251436Y-63146000D02*
X333705564Y-63146000D01*
%TO.C,F1*%
X148808064Y-79015000D02*
X147603936Y-79015000D01*
X148808064Y-77195000D02*
X147603936Y-77195000D01*
D10*
%TO.C,D59*%
X139955000Y-67638000D02*
X139955000Y-70538000D01*
X139955000Y-67638000D02*
X141255000Y-67638000D01*
X141255000Y-67638000D02*
X141255000Y-70538000D01*
X141255000Y-70538000D02*
X139955000Y-70538000D01*
D11*
%TO.C,D58*%
X368538000Y-129630000D02*
X366538000Y-129630000D01*
X366538000Y-129630000D02*
X366538000Y-125730000D01*
X368538000Y-129630000D02*
X368538000Y-125730000D01*
%TO.C,D57*%
X347075000Y-129630000D02*
X345075000Y-129630000D01*
X345075000Y-129630000D02*
X345075000Y-125730000D01*
X347075000Y-129630000D02*
X347075000Y-125730000D01*
%TO.C,D56*%
X325612000Y-129632000D02*
X323612000Y-129632000D01*
X323612000Y-129632000D02*
X323612000Y-125732000D01*
X325612000Y-129632000D02*
X325612000Y-125732000D01*
%TO.C,D55*%
X287512000Y-129632000D02*
X285512000Y-129632000D01*
X285512000Y-129632000D02*
X285512000Y-125732000D01*
X287512000Y-129632000D02*
X287512000Y-125732000D01*
%TO.C,D54*%
X240014000Y-129630000D02*
X238014000Y-129630000D01*
X238014000Y-129630000D02*
X238014000Y-125730000D01*
X240014000Y-129630000D02*
X240014000Y-125730000D01*
%TO.C,D53*%
X206613000Y-129630000D02*
X204613000Y-129630000D01*
X204613000Y-129630000D02*
X204613000Y-125730000D01*
X206613000Y-129630000D02*
X206613000Y-125730000D01*
%TO.C,D52*%
X182737000Y-129630000D02*
X180737000Y-129630000D01*
X180737000Y-129630000D02*
X180737000Y-125730000D01*
X182737000Y-129630000D02*
X182737000Y-125730000D01*
%TO.C,D51*%
X156575000Y-134456000D02*
X154575000Y-134456000D01*
X154575000Y-134456000D02*
X154575000Y-130556000D01*
X156575000Y-134456000D02*
X156575000Y-130556000D01*
%TO.C,D50*%
X137525000Y-134458000D02*
X135525000Y-134458000D01*
X135525000Y-134458000D02*
X135525000Y-130558000D01*
X137525000Y-134458000D02*
X137525000Y-130558000D01*
%TO.C,D49*%
X118475000Y-134458000D02*
X116475000Y-134458000D01*
X116475000Y-134458000D02*
X116475000Y-130558000D01*
X118475000Y-134458000D02*
X118475000Y-130558000D01*
%TO.C,D48*%
X94599000Y-129630000D02*
X92599000Y-129630000D01*
X92599000Y-129630000D02*
X92599000Y-125730000D01*
X94599000Y-129630000D02*
X94599000Y-125730000D01*
%TO.C,D47*%
X82259000Y-128032000D02*
X82259000Y-130032000D01*
X82259000Y-130032000D02*
X78359000Y-130032000D01*
X82259000Y-128032000D02*
X78359000Y-128032000D01*
%TO.C,D46*%
X368538000Y-110581000D02*
X366538000Y-110581000D01*
X366538000Y-110581000D02*
X366538000Y-106681000D01*
X368538000Y-110581000D02*
X368538000Y-106681000D01*
%TO.C,D45*%
X347075000Y-110580000D02*
X345075000Y-110580000D01*
X345075000Y-110580000D02*
X345075000Y-106680000D01*
X347075000Y-110580000D02*
X347075000Y-106680000D01*
%TO.C,D44*%
X328025000Y-110580000D02*
X326025000Y-110580000D01*
X326025000Y-110580000D02*
X326025000Y-106680000D01*
X328025000Y-110580000D02*
X328025000Y-106680000D01*
%TO.C,D43*%
X308975000Y-110580000D02*
X306975000Y-110580000D01*
X306975000Y-110580000D02*
X306975000Y-106680000D01*
X308975000Y-110580000D02*
X308975000Y-106680000D01*
%TO.C,D42*%
X289925000Y-110580000D02*
X287925000Y-110580000D01*
X287925000Y-110580000D02*
X287925000Y-106680000D01*
X289925000Y-110580000D02*
X289925000Y-106680000D01*
%TO.C,D41*%
X270875000Y-110580000D02*
X268875000Y-110580000D01*
X268875000Y-110580000D02*
X268875000Y-106680000D01*
X270875000Y-110580000D02*
X270875000Y-106680000D01*
%TO.C,D40*%
X251825000Y-110580000D02*
X249825000Y-110580000D01*
X249825000Y-110580000D02*
X249825000Y-106680000D01*
X251825000Y-110580000D02*
X251825000Y-106680000D01*
%TO.C,D39*%
X232775000Y-110582000D02*
X230775000Y-110582000D01*
X230775000Y-110582000D02*
X230775000Y-106682000D01*
X232775000Y-110582000D02*
X232775000Y-106682000D01*
%TO.C,D38*%
X213725000Y-110580000D02*
X211725000Y-110580000D01*
X211725000Y-110580000D02*
X211725000Y-106680000D01*
X213725000Y-110580000D02*
X213725000Y-106680000D01*
%TO.C,D37*%
X194675000Y-110580000D02*
X192675000Y-110580000D01*
X192675000Y-110580000D02*
X192675000Y-106680000D01*
X194675000Y-110580000D02*
X194675000Y-106680000D01*
%TO.C,D36*%
X168640000Y-110582000D02*
X166640000Y-110582000D01*
X166640000Y-110582000D02*
X166640000Y-106682000D01*
X168640000Y-110582000D02*
X168640000Y-106682000D01*
%TO.C,D35*%
X137525000Y-115408000D02*
X135525000Y-115408000D01*
X135525000Y-115408000D02*
X135525000Y-111508000D01*
X137525000Y-115408000D02*
X137525000Y-111508000D01*
%TO.C,D34*%
X113649000Y-110580000D02*
X111649000Y-110580000D01*
X111649000Y-110580000D02*
X111649000Y-106680000D01*
X113649000Y-110580000D02*
X113649000Y-106680000D01*
%TO.C,D33*%
X94599000Y-110580000D02*
X92599000Y-110580000D01*
X92599000Y-110580000D02*
X92599000Y-106680000D01*
X94599000Y-110580000D02*
X94599000Y-106680000D01*
%TO.C,D32*%
X75549000Y-110582000D02*
X73549000Y-110582000D01*
X73549000Y-110582000D02*
X73549000Y-106682000D01*
X75549000Y-110582000D02*
X75549000Y-106682000D01*
%TO.C,D31*%
X363839000Y-91530000D02*
X361839000Y-91530000D01*
X361839000Y-91530000D02*
X361839000Y-87630000D01*
X363839000Y-91530000D02*
X363839000Y-87630000D01*
%TO.C,D30*%
X321040000Y-91530000D02*
X319040000Y-91530000D01*
X319040000Y-91530000D02*
X319040000Y-87630000D01*
X321040000Y-91530000D02*
X321040000Y-87630000D01*
%TO.C,D29*%
X318500000Y-91530000D02*
X316500000Y-91530000D01*
X316500000Y-91530000D02*
X316500000Y-87630000D01*
X318500000Y-91530000D02*
X318500000Y-87630000D01*
%TO.C,D28*%
X299450000Y-91530000D02*
X297450000Y-91530000D01*
X297450000Y-91530000D02*
X297450000Y-87630000D01*
X299450000Y-91530000D02*
X299450000Y-87630000D01*
%TO.C,D27*%
X280400000Y-91530000D02*
X278400000Y-91530000D01*
X278400000Y-91530000D02*
X278400000Y-87630000D01*
X280400000Y-91530000D02*
X280400000Y-87630000D01*
%TO.C,D26*%
X261350000Y-91530000D02*
X259350000Y-91530000D01*
X259350000Y-91530000D02*
X259350000Y-87630000D01*
X261350000Y-91530000D02*
X261350000Y-87630000D01*
%TO.C,D25*%
X242300000Y-91530000D02*
X240300000Y-91530000D01*
X240300000Y-91530000D02*
X240300000Y-87630000D01*
X242300000Y-91530000D02*
X242300000Y-87630000D01*
%TO.C,D24*%
X223250000Y-91530000D02*
X221250000Y-91530000D01*
X221250000Y-91530000D02*
X221250000Y-87630000D01*
X223250000Y-91530000D02*
X223250000Y-87630000D01*
%TO.C,D23*%
X204200000Y-91530000D02*
X202200000Y-91530000D01*
X202200000Y-91530000D02*
X202200000Y-87630000D01*
X204200000Y-91530000D02*
X204200000Y-87630000D01*
%TO.C,D22*%
X185150000Y-91530000D02*
X183150000Y-91530000D01*
X183150000Y-91530000D02*
X183150000Y-87630000D01*
X185150000Y-91530000D02*
X185150000Y-87630000D01*
%TO.C,D21*%
X163814000Y-91530000D02*
X161814000Y-91530000D01*
X161814000Y-91530000D02*
X161814000Y-87630000D01*
X163814000Y-91530000D02*
X163814000Y-87630000D01*
%TO.C,D20*%
X137398000Y-91530000D02*
X135398000Y-91530000D01*
X135398000Y-91530000D02*
X135398000Y-87630000D01*
X137398000Y-91530000D02*
X137398000Y-87630000D01*
%TO.C,D19*%
X113649000Y-91532000D02*
X111649000Y-91532000D01*
X111649000Y-91532000D02*
X111649000Y-87632000D01*
X113649000Y-91532000D02*
X113649000Y-87632000D01*
%TO.C,D18*%
X94599000Y-91531000D02*
X92599000Y-91531000D01*
X92599000Y-91531000D02*
X92599000Y-87631000D01*
X94599000Y-91531000D02*
X94599000Y-87631000D01*
%TO.C,D17*%
X75549000Y-91532000D02*
X73549000Y-91532000D01*
X73549000Y-91532000D02*
X73549000Y-87632000D01*
X75549000Y-91532000D02*
X75549000Y-87632000D01*
%TO.C,D16*%
X370824000Y-72482000D02*
X368824000Y-72482000D01*
X368824000Y-72482000D02*
X368824000Y-68582000D01*
X370824000Y-72482000D02*
X370824000Y-68582000D01*
%TO.C,D15*%
X351774000Y-72482000D02*
X349774000Y-72482000D01*
X349774000Y-72482000D02*
X349774000Y-68582000D01*
X351774000Y-72482000D02*
X351774000Y-68582000D01*
%TO.C,D14*%
X332724000Y-72480000D02*
X330724000Y-72480000D01*
X330724000Y-72480000D02*
X330724000Y-68580000D01*
X332724000Y-72480000D02*
X332724000Y-68580000D01*
%TO.C,D13*%
X313674000Y-72480000D02*
X311674000Y-72480000D01*
X311674000Y-72480000D02*
X311674000Y-68580000D01*
X313674000Y-72480000D02*
X313674000Y-68580000D01*
%TO.C,D12*%
X294624000Y-72480000D02*
X292624000Y-72480000D01*
X292624000Y-72480000D02*
X292624000Y-68580000D01*
X294624000Y-72480000D02*
X294624000Y-68580000D01*
%TO.C,D11*%
X275574000Y-72481000D02*
X273574000Y-72481000D01*
X273574000Y-72481000D02*
X273574000Y-68581000D01*
X275574000Y-72481000D02*
X275574000Y-68581000D01*
%TO.C,D10*%
X256524000Y-72480000D02*
X254524000Y-72480000D01*
X254524000Y-72480000D02*
X254524000Y-68580000D01*
X256524000Y-72480000D02*
X256524000Y-68580000D01*
%TO.C,D9*%
X237474000Y-72480000D02*
X235474000Y-72480000D01*
X235474000Y-72480000D02*
X235474000Y-68580000D01*
X237474000Y-72480000D02*
X237474000Y-68580000D01*
%TO.C,D8*%
X218424000Y-72481000D02*
X216424000Y-72481000D01*
X216424000Y-72481000D02*
X216424000Y-68581000D01*
X218424000Y-72481000D02*
X218424000Y-68581000D01*
%TO.C,D7*%
X199374000Y-72480000D02*
X197374000Y-72480000D01*
X197374000Y-72480000D02*
X197374000Y-68580000D01*
X199374000Y-72480000D02*
X199374000Y-68580000D01*
%TO.C,D6*%
X180324000Y-72482000D02*
X178324000Y-72482000D01*
X178324000Y-72482000D02*
X178324000Y-68582000D01*
X180324000Y-72482000D02*
X180324000Y-68582000D01*
%TO.C,D5*%
X161274000Y-72481000D02*
X159274000Y-72481000D01*
X159274000Y-72481000D02*
X159274000Y-68581000D01*
X161274000Y-72481000D02*
X161274000Y-68581000D01*
%TO.C,D4*%
X120888000Y-72480000D02*
X120888000Y-68580000D01*
X118888000Y-72480000D02*
X118888000Y-68580000D01*
X120888000Y-72480000D02*
X118888000Y-72480000D01*
%TO.C,D3*%
X113680750Y-72480000D02*
X111680750Y-72480000D01*
X111680750Y-72480000D02*
X111680750Y-68580000D01*
X113680750Y-72480000D02*
X113680750Y-68580000D01*
%TO.C,D2*%
X94599000Y-72481000D02*
X92599000Y-72481000D01*
X92599000Y-72481000D02*
X92599000Y-68581000D01*
X94599000Y-72481000D02*
X94599000Y-68581000D01*
%TO.C,D1*%
X75549000Y-72482000D02*
X73549000Y-72482000D01*
X73549000Y-72482000D02*
X73549000Y-68582000D01*
X75549000Y-72482000D02*
X75549000Y-68582000D01*
%TO.C,C8*%
X328871252Y-72417000D02*
X328348748Y-72417000D01*
X328871252Y-73887000D02*
X328348748Y-73887000D01*
%TO.C,C7*%
X348007000Y-74348748D02*
X348007000Y-74871252D01*
X349477000Y-74348748D02*
X349477000Y-74871252D01*
%TO.C,C6*%
X356716000Y-74876252D02*
X356716000Y-74353748D01*
X355246000Y-74876252D02*
X355246000Y-74353748D01*
%TO.C,C5*%
X327565706Y-76844259D02*
X327196239Y-76474792D01*
X326526259Y-77883706D02*
X326156792Y-77514239D01*
%TO.C,C4*%
X337673010Y-92132543D02*
X337303543Y-92502010D01*
X338712457Y-93171990D02*
X338342990Y-93541457D01*
%TO.C,C3*%
X348007000Y-90731748D02*
X348007000Y-91254252D01*
X349477000Y-90731748D02*
X349477000Y-91254252D01*
%TO.C,C2*%
X334400259Y-74200706D02*
X334030792Y-73831239D01*
X335439706Y-73161259D02*
X335070239Y-72791792D01*
%TO.C,R6*%
D10*
X176593166Y-73859380D02*
X176926500Y-73383190D01*
X177164595Y-73859380D02*
X177164595Y-72859380D01*
X176783642Y-72859380D01*
X176688404Y-72907000D01*
X176640785Y-72954619D01*
X176593166Y-73049857D01*
X176593166Y-73192714D01*
X176640785Y-73287952D01*
X176688404Y-73335571D01*
X176783642Y-73383190D01*
X177164595Y-73383190D01*
X175736023Y-72859380D02*
X175926500Y-72859380D01*
X176021738Y-72907000D01*
X176069357Y-72954619D01*
X176164595Y-73097476D01*
X176212214Y-73287952D01*
X176212214Y-73668904D01*
X176164595Y-73764142D01*
X176116976Y-73811761D01*
X176021738Y-73859380D01*
X175831261Y-73859380D01*
X175736023Y-73811761D01*
X175688404Y-73764142D01*
X175640785Y-73668904D01*
X175640785Y-73430809D01*
X175688404Y-73335571D01*
X175736023Y-73287952D01*
X175831261Y-73240333D01*
X176021738Y-73240333D01*
X176116976Y-73287952D01*
X176164595Y-73335571D01*
X176212214Y-73430809D01*
%TO.C,R5*%
X176593166Y-75764380D02*
X176926500Y-75288190D01*
X177164595Y-75764380D02*
X177164595Y-74764380D01*
X176783642Y-74764380D01*
X176688404Y-74812000D01*
X176640785Y-74859619D01*
X176593166Y-74954857D01*
X176593166Y-75097714D01*
X176640785Y-75192952D01*
X176688404Y-75240571D01*
X176783642Y-75288190D01*
X177164595Y-75288190D01*
X175688404Y-74764380D02*
X176164595Y-74764380D01*
X176212214Y-75240571D01*
X176164595Y-75192952D01*
X176069357Y-75145333D01*
X175831261Y-75145333D01*
X175736023Y-75192952D01*
X175688404Y-75240571D01*
X175640785Y-75335809D01*
X175640785Y-75573904D01*
X175688404Y-75669142D01*
X175736023Y-75716761D01*
X175831261Y-75764380D01*
X176069357Y-75764380D01*
X176164595Y-75716761D01*
X176212214Y-75669142D01*
%TO.C,C1*%
X347858142Y-73874333D02*
X347905761Y-73826714D01*
X347953380Y-73683857D01*
X347953380Y-73588619D01*
X347905761Y-73445761D01*
X347810523Y-73350523D01*
X347715285Y-73302904D01*
X347524809Y-73255285D01*
X347381952Y-73255285D01*
X347191476Y-73302904D01*
X347096238Y-73350523D01*
X347001000Y-73445761D01*
X346953380Y-73588619D01*
X346953380Y-73683857D01*
X347001000Y-73826714D01*
X347048619Y-73874333D01*
X347953380Y-74826714D02*
X347953380Y-74255285D01*
X347953380Y-74541000D02*
X346953380Y-74541000D01*
X347096238Y-74445761D01*
X347191476Y-74350523D01*
X347239095Y-74255285D01*
%TO.C,Y1*%
X353071190Y-72114190D02*
X353071190Y-72590380D01*
X353404523Y-71590380D02*
X353071190Y-72114190D01*
X352737857Y-71590380D01*
X351880714Y-72590380D02*
X352452142Y-72590380D01*
X352166428Y-72590380D02*
X352166428Y-71590380D01*
X352261666Y-71733238D01*
X352356904Y-71828476D01*
X352452142Y-71876095D01*
%TO.C,USB1*%
X141819095Y-65151380D02*
X141819095Y-65960904D01*
X141771476Y-66056142D01*
X141723857Y-66103761D01*
X141628619Y-66151380D01*
X141438142Y-66151380D01*
X141342904Y-66103761D01*
X141295285Y-66056142D01*
X141247666Y-65960904D01*
X141247666Y-65151380D01*
X140819095Y-66103761D02*
X140676238Y-66151380D01*
X140438142Y-66151380D01*
X140342904Y-66103761D01*
X140295285Y-66056142D01*
X140247666Y-65960904D01*
X140247666Y-65865666D01*
X140295285Y-65770428D01*
X140342904Y-65722809D01*
X140438142Y-65675190D01*
X140628619Y-65627571D01*
X140723857Y-65579952D01*
X140771476Y-65532333D01*
X140819095Y-65437095D01*
X140819095Y-65341857D01*
X140771476Y-65246619D01*
X140723857Y-65199000D01*
X140628619Y-65151380D01*
X140390523Y-65151380D01*
X140247666Y-65199000D01*
X139485761Y-65627571D02*
X139342904Y-65675190D01*
X139295285Y-65722809D01*
X139247666Y-65818047D01*
X139247666Y-65960904D01*
X139295285Y-66056142D01*
X139342904Y-66103761D01*
X139438142Y-66151380D01*
X139819095Y-66151380D01*
X139819095Y-65151380D01*
X139485761Y-65151380D01*
X139390523Y-65199000D01*
X139342904Y-65246619D01*
X139295285Y-65341857D01*
X139295285Y-65437095D01*
X139342904Y-65532333D01*
X139390523Y-65579952D01*
X139485761Y-65627571D01*
X139819095Y-65627571D01*
X138295285Y-66151380D02*
X138866714Y-66151380D01*
X138581000Y-66151380D02*
X138581000Y-65151380D01*
X138676238Y-65294238D01*
X138771476Y-65389476D01*
X138866714Y-65437095D01*
%TO.C,U1*%
X336836777Y-87010218D02*
X336264357Y-87582638D01*
X336163342Y-87616310D01*
X336095998Y-87616310D01*
X335994983Y-87582638D01*
X335860296Y-87447951D01*
X335826624Y-87346936D01*
X335826624Y-87279592D01*
X335860296Y-87178577D01*
X336432716Y-86606157D01*
X335018502Y-86606157D02*
X335422563Y-87010218D01*
X335220533Y-86808188D02*
X335927639Y-86101081D01*
X335893968Y-86269440D01*
X335893968Y-86404127D01*
X335927639Y-86505142D01*
%TO.C,R4*%
X145993380Y-71691833D02*
X145517190Y-71358500D01*
X145993380Y-71120404D02*
X144993380Y-71120404D01*
X144993380Y-71501357D01*
X145041000Y-71596595D01*
X145088619Y-71644214D01*
X145183857Y-71691833D01*
X145326714Y-71691833D01*
X145421952Y-71644214D01*
X145469571Y-71596595D01*
X145517190Y-71501357D01*
X145517190Y-71120404D01*
X145326714Y-72548976D02*
X145993380Y-72548976D01*
X144945761Y-72310880D02*
X145660047Y-72072785D01*
X145660047Y-72691833D01*
%TO.C,R3*%
X138627380Y-71691833D02*
X138151190Y-71358500D01*
X138627380Y-71120404D02*
X137627380Y-71120404D01*
X137627380Y-71501357D01*
X137675000Y-71596595D01*
X137722619Y-71644214D01*
X137817857Y-71691833D01*
X137960714Y-71691833D01*
X138055952Y-71644214D01*
X138103571Y-71596595D01*
X138151190Y-71501357D01*
X138151190Y-71120404D01*
X137627380Y-72025166D02*
X137627380Y-72644214D01*
X138008333Y-72310880D01*
X138008333Y-72453738D01*
X138055952Y-72548976D01*
X138103571Y-72596595D01*
X138198809Y-72644214D01*
X138436904Y-72644214D01*
X138532142Y-72596595D01*
X138579761Y-72548976D01*
X138627380Y-72453738D01*
X138627380Y-72168023D01*
X138579761Y-72072785D01*
X138532142Y-72025166D01*
%TO.C,R2*%
X350971380Y-95233833D02*
X350495190Y-94900500D01*
X350971380Y-94662404D02*
X349971380Y-94662404D01*
X349971380Y-95043357D01*
X350019000Y-95138595D01*
X350066619Y-95186214D01*
X350161857Y-95233833D01*
X350304714Y-95233833D01*
X350399952Y-95186214D01*
X350447571Y-95138595D01*
X350495190Y-95043357D01*
X350495190Y-94662404D01*
X350066619Y-95614785D02*
X350019000Y-95662404D01*
X349971380Y-95757642D01*
X349971380Y-95995738D01*
X350019000Y-96090976D01*
X350066619Y-96138595D01*
X350161857Y-96186214D01*
X350257095Y-96186214D01*
X350399952Y-96138595D01*
X350971380Y-95567166D01*
X350971380Y-96186214D01*
%TO.C,R1*%
X333645166Y-65983380D02*
X333978500Y-65507190D01*
X334216595Y-65983380D02*
X334216595Y-64983380D01*
X333835642Y-64983380D01*
X333740404Y-65031000D01*
X333692785Y-65078619D01*
X333645166Y-65173857D01*
X333645166Y-65316714D01*
X333692785Y-65411952D01*
X333740404Y-65459571D01*
X333835642Y-65507190D01*
X334216595Y-65507190D01*
X332692785Y-65983380D02*
X333264214Y-65983380D01*
X332978500Y-65983380D02*
X332978500Y-64983380D01*
X333073738Y-65126238D01*
X333168976Y-65221476D01*
X333264214Y-65269095D01*
%TO.C,F1*%
X148539333Y-76213571D02*
X148872666Y-76213571D01*
X148872666Y-76737380D02*
X148872666Y-75737380D01*
X148396476Y-75737380D01*
X147491714Y-76737380D02*
X148063142Y-76737380D01*
X147777428Y-76737380D02*
X147777428Y-75737380D01*
X147872666Y-75880238D01*
X147967904Y-75975476D01*
X148063142Y-76023095D01*
%TO.C,D59*%
X141819285Y-71990380D02*
X141819285Y-70990380D01*
X141581190Y-70990380D01*
X141438333Y-71038000D01*
X141343095Y-71133238D01*
X141295476Y-71228476D01*
X141247857Y-71418952D01*
X141247857Y-71561809D01*
X141295476Y-71752285D01*
X141343095Y-71847523D01*
X141438333Y-71942761D01*
X141581190Y-71990380D01*
X141819285Y-71990380D01*
X140343095Y-70990380D02*
X140819285Y-70990380D01*
X140866904Y-71466571D01*
X140819285Y-71418952D01*
X140724047Y-71371333D01*
X140485952Y-71371333D01*
X140390714Y-71418952D01*
X140343095Y-71466571D01*
X140295476Y-71561809D01*
X140295476Y-71799904D01*
X140343095Y-71895142D01*
X140390714Y-71942761D01*
X140485952Y-71990380D01*
X140724047Y-71990380D01*
X140819285Y-71942761D01*
X140866904Y-71895142D01*
X139819285Y-71990380D02*
X139628809Y-71990380D01*
X139533571Y-71942761D01*
X139485952Y-71895142D01*
X139390714Y-71752285D01*
X139343095Y-71561809D01*
X139343095Y-71180857D01*
X139390714Y-71085619D01*
X139438333Y-71038000D01*
X139533571Y-70990380D01*
X139724047Y-70990380D01*
X139819285Y-71038000D01*
X139866904Y-71085619D01*
X139914523Y-71180857D01*
X139914523Y-71418952D01*
X139866904Y-71514190D01*
X139819285Y-71561809D01*
X139724047Y-71609428D01*
X139533571Y-71609428D01*
X139438333Y-71561809D01*
X139390714Y-71514190D01*
X139343095Y-71418952D01*
%TO.C,D58*%
X369990380Y-126165714D02*
X368990380Y-126165714D01*
X368990380Y-126403809D01*
X369038000Y-126546666D01*
X369133238Y-126641904D01*
X369228476Y-126689523D01*
X369418952Y-126737142D01*
X369561809Y-126737142D01*
X369752285Y-126689523D01*
X369847523Y-126641904D01*
X369942761Y-126546666D01*
X369990380Y-126403809D01*
X369990380Y-126165714D01*
X368990380Y-127641904D02*
X368990380Y-127165714D01*
X369466571Y-127118095D01*
X369418952Y-127165714D01*
X369371333Y-127260952D01*
X369371333Y-127499047D01*
X369418952Y-127594285D01*
X369466571Y-127641904D01*
X369561809Y-127689523D01*
X369799904Y-127689523D01*
X369895142Y-127641904D01*
X369942761Y-127594285D01*
X369990380Y-127499047D01*
X369990380Y-127260952D01*
X369942761Y-127165714D01*
X369895142Y-127118095D01*
X369418952Y-128260952D02*
X369371333Y-128165714D01*
X369323714Y-128118095D01*
X369228476Y-128070476D01*
X369180857Y-128070476D01*
X369085619Y-128118095D01*
X369038000Y-128165714D01*
X368990380Y-128260952D01*
X368990380Y-128451428D01*
X369038000Y-128546666D01*
X369085619Y-128594285D01*
X369180857Y-128641904D01*
X369228476Y-128641904D01*
X369323714Y-128594285D01*
X369371333Y-128546666D01*
X369418952Y-128451428D01*
X369418952Y-128260952D01*
X369466571Y-128165714D01*
X369514190Y-128118095D01*
X369609428Y-128070476D01*
X369799904Y-128070476D01*
X369895142Y-128118095D01*
X369942761Y-128165714D01*
X369990380Y-128260952D01*
X369990380Y-128451428D01*
X369942761Y-128546666D01*
X369895142Y-128594285D01*
X369799904Y-128641904D01*
X369609428Y-128641904D01*
X369514190Y-128594285D01*
X369466571Y-128546666D01*
X369418952Y-128451428D01*
%TO.C,D57*%
X348527380Y-126165714D02*
X347527380Y-126165714D01*
X347527380Y-126403809D01*
X347575000Y-126546666D01*
X347670238Y-126641904D01*
X347765476Y-126689523D01*
X347955952Y-126737142D01*
X348098809Y-126737142D01*
X348289285Y-126689523D01*
X348384523Y-126641904D01*
X348479761Y-126546666D01*
X348527380Y-126403809D01*
X348527380Y-126165714D01*
X347527380Y-127641904D02*
X347527380Y-127165714D01*
X348003571Y-127118095D01*
X347955952Y-127165714D01*
X347908333Y-127260952D01*
X347908333Y-127499047D01*
X347955952Y-127594285D01*
X348003571Y-127641904D01*
X348098809Y-127689523D01*
X348336904Y-127689523D01*
X348432142Y-127641904D01*
X348479761Y-127594285D01*
X348527380Y-127499047D01*
X348527380Y-127260952D01*
X348479761Y-127165714D01*
X348432142Y-127118095D01*
X347527380Y-128022857D02*
X347527380Y-128689523D01*
X348527380Y-128260952D01*
%TO.C,D56*%
X327064380Y-126167714D02*
X326064380Y-126167714D01*
X326064380Y-126405809D01*
X326112000Y-126548666D01*
X326207238Y-126643904D01*
X326302476Y-126691523D01*
X326492952Y-126739142D01*
X326635809Y-126739142D01*
X326826285Y-126691523D01*
X326921523Y-126643904D01*
X327016761Y-126548666D01*
X327064380Y-126405809D01*
X327064380Y-126167714D01*
X326064380Y-127643904D02*
X326064380Y-127167714D01*
X326540571Y-127120095D01*
X326492952Y-127167714D01*
X326445333Y-127262952D01*
X326445333Y-127501047D01*
X326492952Y-127596285D01*
X326540571Y-127643904D01*
X326635809Y-127691523D01*
X326873904Y-127691523D01*
X326969142Y-127643904D01*
X327016761Y-127596285D01*
X327064380Y-127501047D01*
X327064380Y-127262952D01*
X327016761Y-127167714D01*
X326969142Y-127120095D01*
X326064380Y-128548666D02*
X326064380Y-128358190D01*
X326112000Y-128262952D01*
X326159619Y-128215333D01*
X326302476Y-128120095D01*
X326492952Y-128072476D01*
X326873904Y-128072476D01*
X326969142Y-128120095D01*
X327016761Y-128167714D01*
X327064380Y-128262952D01*
X327064380Y-128453428D01*
X327016761Y-128548666D01*
X326969142Y-128596285D01*
X326873904Y-128643904D01*
X326635809Y-128643904D01*
X326540571Y-128596285D01*
X326492952Y-128548666D01*
X326445333Y-128453428D01*
X326445333Y-128262952D01*
X326492952Y-128167714D01*
X326540571Y-128120095D01*
X326635809Y-128072476D01*
%TO.C,D55*%
X288964380Y-126167714D02*
X287964380Y-126167714D01*
X287964380Y-126405809D01*
X288012000Y-126548666D01*
X288107238Y-126643904D01*
X288202476Y-126691523D01*
X288392952Y-126739142D01*
X288535809Y-126739142D01*
X288726285Y-126691523D01*
X288821523Y-126643904D01*
X288916761Y-126548666D01*
X288964380Y-126405809D01*
X288964380Y-126167714D01*
X287964380Y-127643904D02*
X287964380Y-127167714D01*
X288440571Y-127120095D01*
X288392952Y-127167714D01*
X288345333Y-127262952D01*
X288345333Y-127501047D01*
X288392952Y-127596285D01*
X288440571Y-127643904D01*
X288535809Y-127691523D01*
X288773904Y-127691523D01*
X288869142Y-127643904D01*
X288916761Y-127596285D01*
X288964380Y-127501047D01*
X288964380Y-127262952D01*
X288916761Y-127167714D01*
X288869142Y-127120095D01*
X287964380Y-128596285D02*
X287964380Y-128120095D01*
X288440571Y-128072476D01*
X288392952Y-128120095D01*
X288345333Y-128215333D01*
X288345333Y-128453428D01*
X288392952Y-128548666D01*
X288440571Y-128596285D01*
X288535809Y-128643904D01*
X288773904Y-128643904D01*
X288869142Y-128596285D01*
X288916761Y-128548666D01*
X288964380Y-128453428D01*
X288964380Y-128215333D01*
X288916761Y-128120095D01*
X288869142Y-128072476D01*
%TO.C,D54*%
X241466380Y-126165714D02*
X240466380Y-126165714D01*
X240466380Y-126403809D01*
X240514000Y-126546666D01*
X240609238Y-126641904D01*
X240704476Y-126689523D01*
X240894952Y-126737142D01*
X241037809Y-126737142D01*
X241228285Y-126689523D01*
X241323523Y-126641904D01*
X241418761Y-126546666D01*
X241466380Y-126403809D01*
X241466380Y-126165714D01*
X240466380Y-127641904D02*
X240466380Y-127165714D01*
X240942571Y-127118095D01*
X240894952Y-127165714D01*
X240847333Y-127260952D01*
X240847333Y-127499047D01*
X240894952Y-127594285D01*
X240942571Y-127641904D01*
X241037809Y-127689523D01*
X241275904Y-127689523D01*
X241371142Y-127641904D01*
X241418761Y-127594285D01*
X241466380Y-127499047D01*
X241466380Y-127260952D01*
X241418761Y-127165714D01*
X241371142Y-127118095D01*
X240799714Y-128546666D02*
X241466380Y-128546666D01*
X240418761Y-128308571D02*
X241133047Y-128070476D01*
X241133047Y-128689523D01*
%TO.C,D53*%
X208065380Y-126165714D02*
X207065380Y-126165714D01*
X207065380Y-126403809D01*
X207113000Y-126546666D01*
X207208238Y-126641904D01*
X207303476Y-126689523D01*
X207493952Y-126737142D01*
X207636809Y-126737142D01*
X207827285Y-126689523D01*
X207922523Y-126641904D01*
X208017761Y-126546666D01*
X208065380Y-126403809D01*
X208065380Y-126165714D01*
X207065380Y-127641904D02*
X207065380Y-127165714D01*
X207541571Y-127118095D01*
X207493952Y-127165714D01*
X207446333Y-127260952D01*
X207446333Y-127499047D01*
X207493952Y-127594285D01*
X207541571Y-127641904D01*
X207636809Y-127689523D01*
X207874904Y-127689523D01*
X207970142Y-127641904D01*
X208017761Y-127594285D01*
X208065380Y-127499047D01*
X208065380Y-127260952D01*
X208017761Y-127165714D01*
X207970142Y-127118095D01*
X207065380Y-128022857D02*
X207065380Y-128641904D01*
X207446333Y-128308571D01*
X207446333Y-128451428D01*
X207493952Y-128546666D01*
X207541571Y-128594285D01*
X207636809Y-128641904D01*
X207874904Y-128641904D01*
X207970142Y-128594285D01*
X208017761Y-128546666D01*
X208065380Y-128451428D01*
X208065380Y-128165714D01*
X208017761Y-128070476D01*
X207970142Y-128022857D01*
%TO.C,D52*%
X184189380Y-126165714D02*
X183189380Y-126165714D01*
X183189380Y-126403809D01*
X183237000Y-126546666D01*
X183332238Y-126641904D01*
X183427476Y-126689523D01*
X183617952Y-126737142D01*
X183760809Y-126737142D01*
X183951285Y-126689523D01*
X184046523Y-126641904D01*
X184141761Y-126546666D01*
X184189380Y-126403809D01*
X184189380Y-126165714D01*
X183189380Y-127641904D02*
X183189380Y-127165714D01*
X183665571Y-127118095D01*
X183617952Y-127165714D01*
X183570333Y-127260952D01*
X183570333Y-127499047D01*
X183617952Y-127594285D01*
X183665571Y-127641904D01*
X183760809Y-127689523D01*
X183998904Y-127689523D01*
X184094142Y-127641904D01*
X184141761Y-127594285D01*
X184189380Y-127499047D01*
X184189380Y-127260952D01*
X184141761Y-127165714D01*
X184094142Y-127118095D01*
X183284619Y-128070476D02*
X183237000Y-128118095D01*
X183189380Y-128213333D01*
X183189380Y-128451428D01*
X183237000Y-128546666D01*
X183284619Y-128594285D01*
X183379857Y-128641904D01*
X183475095Y-128641904D01*
X183617952Y-128594285D01*
X184189380Y-128022857D01*
X184189380Y-128641904D01*
%TO.C,D51*%
X158027380Y-130991714D02*
X157027380Y-130991714D01*
X157027380Y-131229809D01*
X157075000Y-131372666D01*
X157170238Y-131467904D01*
X157265476Y-131515523D01*
X157455952Y-131563142D01*
X157598809Y-131563142D01*
X157789285Y-131515523D01*
X157884523Y-131467904D01*
X157979761Y-131372666D01*
X158027380Y-131229809D01*
X158027380Y-130991714D01*
X157027380Y-132467904D02*
X157027380Y-131991714D01*
X157503571Y-131944095D01*
X157455952Y-131991714D01*
X157408333Y-132086952D01*
X157408333Y-132325047D01*
X157455952Y-132420285D01*
X157503571Y-132467904D01*
X157598809Y-132515523D01*
X157836904Y-132515523D01*
X157932142Y-132467904D01*
X157979761Y-132420285D01*
X158027380Y-132325047D01*
X158027380Y-132086952D01*
X157979761Y-131991714D01*
X157932142Y-131944095D01*
X158027380Y-133467904D02*
X158027380Y-132896476D01*
X158027380Y-133182190D02*
X157027380Y-133182190D01*
X157170238Y-133086952D01*
X157265476Y-132991714D01*
X157313095Y-132896476D01*
%TO.C,D50*%
X138977380Y-130993714D02*
X137977380Y-130993714D01*
X137977380Y-131231809D01*
X138025000Y-131374666D01*
X138120238Y-131469904D01*
X138215476Y-131517523D01*
X138405952Y-131565142D01*
X138548809Y-131565142D01*
X138739285Y-131517523D01*
X138834523Y-131469904D01*
X138929761Y-131374666D01*
X138977380Y-131231809D01*
X138977380Y-130993714D01*
X137977380Y-132469904D02*
X137977380Y-131993714D01*
X138453571Y-131946095D01*
X138405952Y-131993714D01*
X138358333Y-132088952D01*
X138358333Y-132327047D01*
X138405952Y-132422285D01*
X138453571Y-132469904D01*
X138548809Y-132517523D01*
X138786904Y-132517523D01*
X138882142Y-132469904D01*
X138929761Y-132422285D01*
X138977380Y-132327047D01*
X138977380Y-132088952D01*
X138929761Y-131993714D01*
X138882142Y-131946095D01*
X137977380Y-133136571D02*
X137977380Y-133231809D01*
X138025000Y-133327047D01*
X138072619Y-133374666D01*
X138167857Y-133422285D01*
X138358333Y-133469904D01*
X138596428Y-133469904D01*
X138786904Y-133422285D01*
X138882142Y-133374666D01*
X138929761Y-133327047D01*
X138977380Y-133231809D01*
X138977380Y-133136571D01*
X138929761Y-133041333D01*
X138882142Y-132993714D01*
X138786904Y-132946095D01*
X138596428Y-132898476D01*
X138358333Y-132898476D01*
X138167857Y-132946095D01*
X138072619Y-132993714D01*
X138025000Y-133041333D01*
X137977380Y-133136571D01*
%TO.C,D49*%
X119927380Y-130993714D02*
X118927380Y-130993714D01*
X118927380Y-131231809D01*
X118975000Y-131374666D01*
X119070238Y-131469904D01*
X119165476Y-131517523D01*
X119355952Y-131565142D01*
X119498809Y-131565142D01*
X119689285Y-131517523D01*
X119784523Y-131469904D01*
X119879761Y-131374666D01*
X119927380Y-131231809D01*
X119927380Y-130993714D01*
X119260714Y-132422285D02*
X119927380Y-132422285D01*
X118879761Y-132184190D02*
X119594047Y-131946095D01*
X119594047Y-132565142D01*
X119927380Y-132993714D02*
X119927380Y-133184190D01*
X119879761Y-133279428D01*
X119832142Y-133327047D01*
X119689285Y-133422285D01*
X119498809Y-133469904D01*
X119117857Y-133469904D01*
X119022619Y-133422285D01*
X118975000Y-133374666D01*
X118927380Y-133279428D01*
X118927380Y-133088952D01*
X118975000Y-132993714D01*
X119022619Y-132946095D01*
X119117857Y-132898476D01*
X119355952Y-132898476D01*
X119451190Y-132946095D01*
X119498809Y-132993714D01*
X119546428Y-133088952D01*
X119546428Y-133279428D01*
X119498809Y-133374666D01*
X119451190Y-133422285D01*
X119355952Y-133469904D01*
%TO.C,D48*%
X96051380Y-126165714D02*
X95051380Y-126165714D01*
X95051380Y-126403809D01*
X95099000Y-126546666D01*
X95194238Y-126641904D01*
X95289476Y-126689523D01*
X95479952Y-126737142D01*
X95622809Y-126737142D01*
X95813285Y-126689523D01*
X95908523Y-126641904D01*
X96003761Y-126546666D01*
X96051380Y-126403809D01*
X96051380Y-126165714D01*
X95384714Y-127594285D02*
X96051380Y-127594285D01*
X95003761Y-127356190D02*
X95718047Y-127118095D01*
X95718047Y-127737142D01*
X95479952Y-128260952D02*
X95432333Y-128165714D01*
X95384714Y-128118095D01*
X95289476Y-128070476D01*
X95241857Y-128070476D01*
X95146619Y-128118095D01*
X95099000Y-128165714D01*
X95051380Y-128260952D01*
X95051380Y-128451428D01*
X95099000Y-128546666D01*
X95146619Y-128594285D01*
X95241857Y-128641904D01*
X95289476Y-128641904D01*
X95384714Y-128594285D01*
X95432333Y-128546666D01*
X95479952Y-128451428D01*
X95479952Y-128260952D01*
X95527571Y-128165714D01*
X95575190Y-128118095D01*
X95670428Y-128070476D01*
X95860904Y-128070476D01*
X95956142Y-128118095D01*
X96003761Y-128165714D01*
X96051380Y-128260952D01*
X96051380Y-128451428D01*
X96003761Y-128546666D01*
X95956142Y-128594285D01*
X95860904Y-128641904D01*
X95670428Y-128641904D01*
X95575190Y-128594285D01*
X95527571Y-128546666D01*
X95479952Y-128451428D01*
%TO.C,D47*%
X81223285Y-127484380D02*
X81223285Y-126484380D01*
X80985190Y-126484380D01*
X80842333Y-126532000D01*
X80747095Y-126627238D01*
X80699476Y-126722476D01*
X80651857Y-126912952D01*
X80651857Y-127055809D01*
X80699476Y-127246285D01*
X80747095Y-127341523D01*
X80842333Y-127436761D01*
X80985190Y-127484380D01*
X81223285Y-127484380D01*
X79794714Y-126817714D02*
X79794714Y-127484380D01*
X80032809Y-126436761D02*
X80270904Y-127151047D01*
X79651857Y-127151047D01*
X79366142Y-126484380D02*
X78699476Y-126484380D01*
X79128047Y-127484380D01*
%TO.C,D46*%
X369990380Y-107116714D02*
X368990380Y-107116714D01*
X368990380Y-107354809D01*
X369038000Y-107497666D01*
X369133238Y-107592904D01*
X369228476Y-107640523D01*
X369418952Y-107688142D01*
X369561809Y-107688142D01*
X369752285Y-107640523D01*
X369847523Y-107592904D01*
X369942761Y-107497666D01*
X369990380Y-107354809D01*
X369990380Y-107116714D01*
X369323714Y-108545285D02*
X369990380Y-108545285D01*
X368942761Y-108307190D02*
X369657047Y-108069095D01*
X369657047Y-108688142D01*
X368990380Y-109497666D02*
X368990380Y-109307190D01*
X369038000Y-109211952D01*
X369085619Y-109164333D01*
X369228476Y-109069095D01*
X369418952Y-109021476D01*
X369799904Y-109021476D01*
X369895142Y-109069095D01*
X369942761Y-109116714D01*
X369990380Y-109211952D01*
X369990380Y-109402428D01*
X369942761Y-109497666D01*
X369895142Y-109545285D01*
X369799904Y-109592904D01*
X369561809Y-109592904D01*
X369466571Y-109545285D01*
X369418952Y-109497666D01*
X369371333Y-109402428D01*
X369371333Y-109211952D01*
X369418952Y-109116714D01*
X369466571Y-109069095D01*
X369561809Y-109021476D01*
%TO.C,D45*%
X348527380Y-107115714D02*
X347527380Y-107115714D01*
X347527380Y-107353809D01*
X347575000Y-107496666D01*
X347670238Y-107591904D01*
X347765476Y-107639523D01*
X347955952Y-107687142D01*
X348098809Y-107687142D01*
X348289285Y-107639523D01*
X348384523Y-107591904D01*
X348479761Y-107496666D01*
X348527380Y-107353809D01*
X348527380Y-107115714D01*
X347860714Y-108544285D02*
X348527380Y-108544285D01*
X347479761Y-108306190D02*
X348194047Y-108068095D01*
X348194047Y-108687142D01*
X347527380Y-109544285D02*
X347527380Y-109068095D01*
X348003571Y-109020476D01*
X347955952Y-109068095D01*
X347908333Y-109163333D01*
X347908333Y-109401428D01*
X347955952Y-109496666D01*
X348003571Y-109544285D01*
X348098809Y-109591904D01*
X348336904Y-109591904D01*
X348432142Y-109544285D01*
X348479761Y-109496666D01*
X348527380Y-109401428D01*
X348527380Y-109163333D01*
X348479761Y-109068095D01*
X348432142Y-109020476D01*
%TO.C,D44*%
X329477380Y-107115714D02*
X328477380Y-107115714D01*
X328477380Y-107353809D01*
X328525000Y-107496666D01*
X328620238Y-107591904D01*
X328715476Y-107639523D01*
X328905952Y-107687142D01*
X329048809Y-107687142D01*
X329239285Y-107639523D01*
X329334523Y-107591904D01*
X329429761Y-107496666D01*
X329477380Y-107353809D01*
X329477380Y-107115714D01*
X328810714Y-108544285D02*
X329477380Y-108544285D01*
X328429761Y-108306190D02*
X329144047Y-108068095D01*
X329144047Y-108687142D01*
X328810714Y-109496666D02*
X329477380Y-109496666D01*
X328429761Y-109258571D02*
X329144047Y-109020476D01*
X329144047Y-109639523D01*
%TO.C,D43*%
X310427380Y-107115714D02*
X309427380Y-107115714D01*
X309427380Y-107353809D01*
X309475000Y-107496666D01*
X309570238Y-107591904D01*
X309665476Y-107639523D01*
X309855952Y-107687142D01*
X309998809Y-107687142D01*
X310189285Y-107639523D01*
X310284523Y-107591904D01*
X310379761Y-107496666D01*
X310427380Y-107353809D01*
X310427380Y-107115714D01*
X309760714Y-108544285D02*
X310427380Y-108544285D01*
X309379761Y-108306190D02*
X310094047Y-108068095D01*
X310094047Y-108687142D01*
X309427380Y-108972857D02*
X309427380Y-109591904D01*
X309808333Y-109258571D01*
X309808333Y-109401428D01*
X309855952Y-109496666D01*
X309903571Y-109544285D01*
X309998809Y-109591904D01*
X310236904Y-109591904D01*
X310332142Y-109544285D01*
X310379761Y-109496666D01*
X310427380Y-109401428D01*
X310427380Y-109115714D01*
X310379761Y-109020476D01*
X310332142Y-108972857D01*
%TO.C,D42*%
X291377380Y-107115714D02*
X290377380Y-107115714D01*
X290377380Y-107353809D01*
X290425000Y-107496666D01*
X290520238Y-107591904D01*
X290615476Y-107639523D01*
X290805952Y-107687142D01*
X290948809Y-107687142D01*
X291139285Y-107639523D01*
X291234523Y-107591904D01*
X291329761Y-107496666D01*
X291377380Y-107353809D01*
X291377380Y-107115714D01*
X290710714Y-108544285D02*
X291377380Y-108544285D01*
X290329761Y-108306190D02*
X291044047Y-108068095D01*
X291044047Y-108687142D01*
X290472619Y-109020476D02*
X290425000Y-109068095D01*
X290377380Y-109163333D01*
X290377380Y-109401428D01*
X290425000Y-109496666D01*
X290472619Y-109544285D01*
X290567857Y-109591904D01*
X290663095Y-109591904D01*
X290805952Y-109544285D01*
X291377380Y-108972857D01*
X291377380Y-109591904D01*
%TO.C,D41*%
X272327380Y-107115714D02*
X271327380Y-107115714D01*
X271327380Y-107353809D01*
X271375000Y-107496666D01*
X271470238Y-107591904D01*
X271565476Y-107639523D01*
X271755952Y-107687142D01*
X271898809Y-107687142D01*
X272089285Y-107639523D01*
X272184523Y-107591904D01*
X272279761Y-107496666D01*
X272327380Y-107353809D01*
X272327380Y-107115714D01*
X271660714Y-108544285D02*
X272327380Y-108544285D01*
X271279761Y-108306190D02*
X271994047Y-108068095D01*
X271994047Y-108687142D01*
X272327380Y-109591904D02*
X272327380Y-109020476D01*
X272327380Y-109306190D02*
X271327380Y-109306190D01*
X271470238Y-109210952D01*
X271565476Y-109115714D01*
X271613095Y-109020476D01*
%TO.C,D40*%
X253277380Y-107115714D02*
X252277380Y-107115714D01*
X252277380Y-107353809D01*
X252325000Y-107496666D01*
X252420238Y-107591904D01*
X252515476Y-107639523D01*
X252705952Y-107687142D01*
X252848809Y-107687142D01*
X253039285Y-107639523D01*
X253134523Y-107591904D01*
X253229761Y-107496666D01*
X253277380Y-107353809D01*
X253277380Y-107115714D01*
X252610714Y-108544285D02*
X253277380Y-108544285D01*
X252229761Y-108306190D02*
X252944047Y-108068095D01*
X252944047Y-108687142D01*
X252277380Y-109258571D02*
X252277380Y-109353809D01*
X252325000Y-109449047D01*
X252372619Y-109496666D01*
X252467857Y-109544285D01*
X252658333Y-109591904D01*
X252896428Y-109591904D01*
X253086904Y-109544285D01*
X253182142Y-109496666D01*
X253229761Y-109449047D01*
X253277380Y-109353809D01*
X253277380Y-109258571D01*
X253229761Y-109163333D01*
X253182142Y-109115714D01*
X253086904Y-109068095D01*
X252896428Y-109020476D01*
X252658333Y-109020476D01*
X252467857Y-109068095D01*
X252372619Y-109115714D01*
X252325000Y-109163333D01*
X252277380Y-109258571D01*
%TO.C,D39*%
X234227380Y-107117714D02*
X233227380Y-107117714D01*
X233227380Y-107355809D01*
X233275000Y-107498666D01*
X233370238Y-107593904D01*
X233465476Y-107641523D01*
X233655952Y-107689142D01*
X233798809Y-107689142D01*
X233989285Y-107641523D01*
X234084523Y-107593904D01*
X234179761Y-107498666D01*
X234227380Y-107355809D01*
X234227380Y-107117714D01*
X233227380Y-108022476D02*
X233227380Y-108641523D01*
X233608333Y-108308190D01*
X233608333Y-108451047D01*
X233655952Y-108546285D01*
X233703571Y-108593904D01*
X233798809Y-108641523D01*
X234036904Y-108641523D01*
X234132142Y-108593904D01*
X234179761Y-108546285D01*
X234227380Y-108451047D01*
X234227380Y-108165333D01*
X234179761Y-108070095D01*
X234132142Y-108022476D01*
X234227380Y-109117714D02*
X234227380Y-109308190D01*
X234179761Y-109403428D01*
X234132142Y-109451047D01*
X233989285Y-109546285D01*
X233798809Y-109593904D01*
X233417857Y-109593904D01*
X233322619Y-109546285D01*
X233275000Y-109498666D01*
X233227380Y-109403428D01*
X233227380Y-109212952D01*
X233275000Y-109117714D01*
X233322619Y-109070095D01*
X233417857Y-109022476D01*
X233655952Y-109022476D01*
X233751190Y-109070095D01*
X233798809Y-109117714D01*
X233846428Y-109212952D01*
X233846428Y-109403428D01*
X233798809Y-109498666D01*
X233751190Y-109546285D01*
X233655952Y-109593904D01*
%TO.C,D38*%
X215177380Y-107115714D02*
X214177380Y-107115714D01*
X214177380Y-107353809D01*
X214225000Y-107496666D01*
X214320238Y-107591904D01*
X214415476Y-107639523D01*
X214605952Y-107687142D01*
X214748809Y-107687142D01*
X214939285Y-107639523D01*
X215034523Y-107591904D01*
X215129761Y-107496666D01*
X215177380Y-107353809D01*
X215177380Y-107115714D01*
X214177380Y-108020476D02*
X214177380Y-108639523D01*
X214558333Y-108306190D01*
X214558333Y-108449047D01*
X214605952Y-108544285D01*
X214653571Y-108591904D01*
X214748809Y-108639523D01*
X214986904Y-108639523D01*
X215082142Y-108591904D01*
X215129761Y-108544285D01*
X215177380Y-108449047D01*
X215177380Y-108163333D01*
X215129761Y-108068095D01*
X215082142Y-108020476D01*
X214605952Y-109210952D02*
X214558333Y-109115714D01*
X214510714Y-109068095D01*
X214415476Y-109020476D01*
X214367857Y-109020476D01*
X214272619Y-109068095D01*
X214225000Y-109115714D01*
X214177380Y-109210952D01*
X214177380Y-109401428D01*
X214225000Y-109496666D01*
X214272619Y-109544285D01*
X214367857Y-109591904D01*
X214415476Y-109591904D01*
X214510714Y-109544285D01*
X214558333Y-109496666D01*
X214605952Y-109401428D01*
X214605952Y-109210952D01*
X214653571Y-109115714D01*
X214701190Y-109068095D01*
X214796428Y-109020476D01*
X214986904Y-109020476D01*
X215082142Y-109068095D01*
X215129761Y-109115714D01*
X215177380Y-109210952D01*
X215177380Y-109401428D01*
X215129761Y-109496666D01*
X215082142Y-109544285D01*
X214986904Y-109591904D01*
X214796428Y-109591904D01*
X214701190Y-109544285D01*
X214653571Y-109496666D01*
X214605952Y-109401428D01*
%TO.C,D37*%
X196127380Y-107115714D02*
X195127380Y-107115714D01*
X195127380Y-107353809D01*
X195175000Y-107496666D01*
X195270238Y-107591904D01*
X195365476Y-107639523D01*
X195555952Y-107687142D01*
X195698809Y-107687142D01*
X195889285Y-107639523D01*
X195984523Y-107591904D01*
X196079761Y-107496666D01*
X196127380Y-107353809D01*
X196127380Y-107115714D01*
X195127380Y-108020476D02*
X195127380Y-108639523D01*
X195508333Y-108306190D01*
X195508333Y-108449047D01*
X195555952Y-108544285D01*
X195603571Y-108591904D01*
X195698809Y-108639523D01*
X195936904Y-108639523D01*
X196032142Y-108591904D01*
X196079761Y-108544285D01*
X196127380Y-108449047D01*
X196127380Y-108163333D01*
X196079761Y-108068095D01*
X196032142Y-108020476D01*
X195127380Y-108972857D02*
X195127380Y-109639523D01*
X196127380Y-109210952D01*
%TO.C,D36*%
X170092380Y-107117714D02*
X169092380Y-107117714D01*
X169092380Y-107355809D01*
X169140000Y-107498666D01*
X169235238Y-107593904D01*
X169330476Y-107641523D01*
X169520952Y-107689142D01*
X169663809Y-107689142D01*
X169854285Y-107641523D01*
X169949523Y-107593904D01*
X170044761Y-107498666D01*
X170092380Y-107355809D01*
X170092380Y-107117714D01*
X169092380Y-108022476D02*
X169092380Y-108641523D01*
X169473333Y-108308190D01*
X169473333Y-108451047D01*
X169520952Y-108546285D01*
X169568571Y-108593904D01*
X169663809Y-108641523D01*
X169901904Y-108641523D01*
X169997142Y-108593904D01*
X170044761Y-108546285D01*
X170092380Y-108451047D01*
X170092380Y-108165333D01*
X170044761Y-108070095D01*
X169997142Y-108022476D01*
X169092380Y-109498666D02*
X169092380Y-109308190D01*
X169140000Y-109212952D01*
X169187619Y-109165333D01*
X169330476Y-109070095D01*
X169520952Y-109022476D01*
X169901904Y-109022476D01*
X169997142Y-109070095D01*
X170044761Y-109117714D01*
X170092380Y-109212952D01*
X170092380Y-109403428D01*
X170044761Y-109498666D01*
X169997142Y-109546285D01*
X169901904Y-109593904D01*
X169663809Y-109593904D01*
X169568571Y-109546285D01*
X169520952Y-109498666D01*
X169473333Y-109403428D01*
X169473333Y-109212952D01*
X169520952Y-109117714D01*
X169568571Y-109070095D01*
X169663809Y-109022476D01*
%TO.C,D35*%
X138977380Y-111943714D02*
X137977380Y-111943714D01*
X137977380Y-112181809D01*
X138025000Y-112324666D01*
X138120238Y-112419904D01*
X138215476Y-112467523D01*
X138405952Y-112515142D01*
X138548809Y-112515142D01*
X138739285Y-112467523D01*
X138834523Y-112419904D01*
X138929761Y-112324666D01*
X138977380Y-112181809D01*
X138977380Y-111943714D01*
X137977380Y-112848476D02*
X137977380Y-113467523D01*
X138358333Y-113134190D01*
X138358333Y-113277047D01*
X138405952Y-113372285D01*
X138453571Y-113419904D01*
X138548809Y-113467523D01*
X138786904Y-113467523D01*
X138882142Y-113419904D01*
X138929761Y-113372285D01*
X138977380Y-113277047D01*
X138977380Y-112991333D01*
X138929761Y-112896095D01*
X138882142Y-112848476D01*
X137977380Y-114372285D02*
X137977380Y-113896095D01*
X138453571Y-113848476D01*
X138405952Y-113896095D01*
X138358333Y-113991333D01*
X138358333Y-114229428D01*
X138405952Y-114324666D01*
X138453571Y-114372285D01*
X138548809Y-114419904D01*
X138786904Y-114419904D01*
X138882142Y-114372285D01*
X138929761Y-114324666D01*
X138977380Y-114229428D01*
X138977380Y-113991333D01*
X138929761Y-113896095D01*
X138882142Y-113848476D01*
%TO.C,D34*%
X115101380Y-107115714D02*
X114101380Y-107115714D01*
X114101380Y-107353809D01*
X114149000Y-107496666D01*
X114244238Y-107591904D01*
X114339476Y-107639523D01*
X114529952Y-107687142D01*
X114672809Y-107687142D01*
X114863285Y-107639523D01*
X114958523Y-107591904D01*
X115053761Y-107496666D01*
X115101380Y-107353809D01*
X115101380Y-107115714D01*
X114101380Y-108020476D02*
X114101380Y-108639523D01*
X114482333Y-108306190D01*
X114482333Y-108449047D01*
X114529952Y-108544285D01*
X114577571Y-108591904D01*
X114672809Y-108639523D01*
X114910904Y-108639523D01*
X115006142Y-108591904D01*
X115053761Y-108544285D01*
X115101380Y-108449047D01*
X115101380Y-108163333D01*
X115053761Y-108068095D01*
X115006142Y-108020476D01*
X114434714Y-109496666D02*
X115101380Y-109496666D01*
X114053761Y-109258571D02*
X114768047Y-109020476D01*
X114768047Y-109639523D01*
%TO.C,D33*%
X96051380Y-107115714D02*
X95051380Y-107115714D01*
X95051380Y-107353809D01*
X95099000Y-107496666D01*
X95194238Y-107591904D01*
X95289476Y-107639523D01*
X95479952Y-107687142D01*
X95622809Y-107687142D01*
X95813285Y-107639523D01*
X95908523Y-107591904D01*
X96003761Y-107496666D01*
X96051380Y-107353809D01*
X96051380Y-107115714D01*
X95051380Y-108020476D02*
X95051380Y-108639523D01*
X95432333Y-108306190D01*
X95432333Y-108449047D01*
X95479952Y-108544285D01*
X95527571Y-108591904D01*
X95622809Y-108639523D01*
X95860904Y-108639523D01*
X95956142Y-108591904D01*
X96003761Y-108544285D01*
X96051380Y-108449047D01*
X96051380Y-108163333D01*
X96003761Y-108068095D01*
X95956142Y-108020476D01*
X95051380Y-108972857D02*
X95051380Y-109591904D01*
X95432333Y-109258571D01*
X95432333Y-109401428D01*
X95479952Y-109496666D01*
X95527571Y-109544285D01*
X95622809Y-109591904D01*
X95860904Y-109591904D01*
X95956142Y-109544285D01*
X96003761Y-109496666D01*
X96051380Y-109401428D01*
X96051380Y-109115714D01*
X96003761Y-109020476D01*
X95956142Y-108972857D01*
%TO.C,D32*%
X77001380Y-107117714D02*
X76001380Y-107117714D01*
X76001380Y-107355809D01*
X76049000Y-107498666D01*
X76144238Y-107593904D01*
X76239476Y-107641523D01*
X76429952Y-107689142D01*
X76572809Y-107689142D01*
X76763285Y-107641523D01*
X76858523Y-107593904D01*
X76953761Y-107498666D01*
X77001380Y-107355809D01*
X77001380Y-107117714D01*
X76001380Y-108022476D02*
X76001380Y-108641523D01*
X76382333Y-108308190D01*
X76382333Y-108451047D01*
X76429952Y-108546285D01*
X76477571Y-108593904D01*
X76572809Y-108641523D01*
X76810904Y-108641523D01*
X76906142Y-108593904D01*
X76953761Y-108546285D01*
X77001380Y-108451047D01*
X77001380Y-108165333D01*
X76953761Y-108070095D01*
X76906142Y-108022476D01*
X76096619Y-109022476D02*
X76049000Y-109070095D01*
X76001380Y-109165333D01*
X76001380Y-109403428D01*
X76049000Y-109498666D01*
X76096619Y-109546285D01*
X76191857Y-109593904D01*
X76287095Y-109593904D01*
X76429952Y-109546285D01*
X77001380Y-108974857D01*
X77001380Y-109593904D01*
%TO.C,D31*%
X365291380Y-88065714D02*
X364291380Y-88065714D01*
X364291380Y-88303809D01*
X364339000Y-88446666D01*
X364434238Y-88541904D01*
X364529476Y-88589523D01*
X364719952Y-88637142D01*
X364862809Y-88637142D01*
X365053285Y-88589523D01*
X365148523Y-88541904D01*
X365243761Y-88446666D01*
X365291380Y-88303809D01*
X365291380Y-88065714D01*
X364291380Y-88970476D02*
X364291380Y-89589523D01*
X364672333Y-89256190D01*
X364672333Y-89399047D01*
X364719952Y-89494285D01*
X364767571Y-89541904D01*
X364862809Y-89589523D01*
X365100904Y-89589523D01*
X365196142Y-89541904D01*
X365243761Y-89494285D01*
X365291380Y-89399047D01*
X365291380Y-89113333D01*
X365243761Y-89018095D01*
X365196142Y-88970476D01*
X365291380Y-90541904D02*
X365291380Y-89970476D01*
X365291380Y-90256190D02*
X364291380Y-90256190D01*
X364434238Y-90160952D01*
X364529476Y-90065714D01*
X364577095Y-89970476D01*
%TO.C,D30*%
X322492380Y-88065714D02*
X321492380Y-88065714D01*
X321492380Y-88303809D01*
X321540000Y-88446666D01*
X321635238Y-88541904D01*
X321730476Y-88589523D01*
X321920952Y-88637142D01*
X322063809Y-88637142D01*
X322254285Y-88589523D01*
X322349523Y-88541904D01*
X322444761Y-88446666D01*
X322492380Y-88303809D01*
X322492380Y-88065714D01*
X321492380Y-88970476D02*
X321492380Y-89589523D01*
X321873333Y-89256190D01*
X321873333Y-89399047D01*
X321920952Y-89494285D01*
X321968571Y-89541904D01*
X322063809Y-89589523D01*
X322301904Y-89589523D01*
X322397142Y-89541904D01*
X322444761Y-89494285D01*
X322492380Y-89399047D01*
X322492380Y-89113333D01*
X322444761Y-89018095D01*
X322397142Y-88970476D01*
X321492380Y-90208571D02*
X321492380Y-90303809D01*
X321540000Y-90399047D01*
X321587619Y-90446666D01*
X321682857Y-90494285D01*
X321873333Y-90541904D01*
X322111428Y-90541904D01*
X322301904Y-90494285D01*
X322397142Y-90446666D01*
X322444761Y-90399047D01*
X322492380Y-90303809D01*
X322492380Y-90208571D01*
X322444761Y-90113333D01*
X322397142Y-90065714D01*
X322301904Y-90018095D01*
X322111428Y-89970476D01*
X321873333Y-89970476D01*
X321682857Y-90018095D01*
X321587619Y-90065714D01*
X321540000Y-90113333D01*
X321492380Y-90208571D01*
%TO.C,D29*%
X319952380Y-88065714D02*
X318952380Y-88065714D01*
X318952380Y-88303809D01*
X319000000Y-88446666D01*
X319095238Y-88541904D01*
X319190476Y-88589523D01*
X319380952Y-88637142D01*
X319523809Y-88637142D01*
X319714285Y-88589523D01*
X319809523Y-88541904D01*
X319904761Y-88446666D01*
X319952380Y-88303809D01*
X319952380Y-88065714D01*
X319047619Y-89018095D02*
X319000000Y-89065714D01*
X318952380Y-89160952D01*
X318952380Y-89399047D01*
X319000000Y-89494285D01*
X319047619Y-89541904D01*
X319142857Y-89589523D01*
X319238095Y-89589523D01*
X319380952Y-89541904D01*
X319952380Y-88970476D01*
X319952380Y-89589523D01*
X319952380Y-90065714D02*
X319952380Y-90256190D01*
X319904761Y-90351428D01*
X319857142Y-90399047D01*
X319714285Y-90494285D01*
X319523809Y-90541904D01*
X319142857Y-90541904D01*
X319047619Y-90494285D01*
X319000000Y-90446666D01*
X318952380Y-90351428D01*
X318952380Y-90160952D01*
X319000000Y-90065714D01*
X319047619Y-90018095D01*
X319142857Y-89970476D01*
X319380952Y-89970476D01*
X319476190Y-90018095D01*
X319523809Y-90065714D01*
X319571428Y-90160952D01*
X319571428Y-90351428D01*
X319523809Y-90446666D01*
X319476190Y-90494285D01*
X319380952Y-90541904D01*
%TO.C,D28*%
X300902380Y-88065714D02*
X299902380Y-88065714D01*
X299902380Y-88303809D01*
X299950000Y-88446666D01*
X300045238Y-88541904D01*
X300140476Y-88589523D01*
X300330952Y-88637142D01*
X300473809Y-88637142D01*
X300664285Y-88589523D01*
X300759523Y-88541904D01*
X300854761Y-88446666D01*
X300902380Y-88303809D01*
X300902380Y-88065714D01*
X299997619Y-89018095D02*
X299950000Y-89065714D01*
X299902380Y-89160952D01*
X299902380Y-89399047D01*
X299950000Y-89494285D01*
X299997619Y-89541904D01*
X300092857Y-89589523D01*
X300188095Y-89589523D01*
X300330952Y-89541904D01*
X300902380Y-88970476D01*
X300902380Y-89589523D01*
X300330952Y-90160952D02*
X300283333Y-90065714D01*
X300235714Y-90018095D01*
X300140476Y-89970476D01*
X300092857Y-89970476D01*
X299997619Y-90018095D01*
X299950000Y-90065714D01*
X299902380Y-90160952D01*
X299902380Y-90351428D01*
X299950000Y-90446666D01*
X299997619Y-90494285D01*
X300092857Y-90541904D01*
X300140476Y-90541904D01*
X300235714Y-90494285D01*
X300283333Y-90446666D01*
X300330952Y-90351428D01*
X300330952Y-90160952D01*
X300378571Y-90065714D01*
X300426190Y-90018095D01*
X300521428Y-89970476D01*
X300711904Y-89970476D01*
X300807142Y-90018095D01*
X300854761Y-90065714D01*
X300902380Y-90160952D01*
X300902380Y-90351428D01*
X300854761Y-90446666D01*
X300807142Y-90494285D01*
X300711904Y-90541904D01*
X300521428Y-90541904D01*
X300426190Y-90494285D01*
X300378571Y-90446666D01*
X300330952Y-90351428D01*
%TO.C,D27*%
X281852380Y-88065714D02*
X280852380Y-88065714D01*
X280852380Y-88303809D01*
X280900000Y-88446666D01*
X280995238Y-88541904D01*
X281090476Y-88589523D01*
X281280952Y-88637142D01*
X281423809Y-88637142D01*
X281614285Y-88589523D01*
X281709523Y-88541904D01*
X281804761Y-88446666D01*
X281852380Y-88303809D01*
X281852380Y-88065714D01*
X280947619Y-89018095D02*
X280900000Y-89065714D01*
X280852380Y-89160952D01*
X280852380Y-89399047D01*
X280900000Y-89494285D01*
X280947619Y-89541904D01*
X281042857Y-89589523D01*
X281138095Y-89589523D01*
X281280952Y-89541904D01*
X281852380Y-88970476D01*
X281852380Y-89589523D01*
X280852380Y-89922857D02*
X280852380Y-90589523D01*
X281852380Y-90160952D01*
%TO.C,D26*%
X262802380Y-88065714D02*
X261802380Y-88065714D01*
X261802380Y-88303809D01*
X261850000Y-88446666D01*
X261945238Y-88541904D01*
X262040476Y-88589523D01*
X262230952Y-88637142D01*
X262373809Y-88637142D01*
X262564285Y-88589523D01*
X262659523Y-88541904D01*
X262754761Y-88446666D01*
X262802380Y-88303809D01*
X262802380Y-88065714D01*
X261897619Y-89018095D02*
X261850000Y-89065714D01*
X261802380Y-89160952D01*
X261802380Y-89399047D01*
X261850000Y-89494285D01*
X261897619Y-89541904D01*
X261992857Y-89589523D01*
X262088095Y-89589523D01*
X262230952Y-89541904D01*
X262802380Y-88970476D01*
X262802380Y-89589523D01*
X261802380Y-90446666D02*
X261802380Y-90256190D01*
X261850000Y-90160952D01*
X261897619Y-90113333D01*
X262040476Y-90018095D01*
X262230952Y-89970476D01*
X262611904Y-89970476D01*
X262707142Y-90018095D01*
X262754761Y-90065714D01*
X262802380Y-90160952D01*
X262802380Y-90351428D01*
X262754761Y-90446666D01*
X262707142Y-90494285D01*
X262611904Y-90541904D01*
X262373809Y-90541904D01*
X262278571Y-90494285D01*
X262230952Y-90446666D01*
X262183333Y-90351428D01*
X262183333Y-90160952D01*
X262230952Y-90065714D01*
X262278571Y-90018095D01*
X262373809Y-89970476D01*
%TO.C,D25*%
X243752380Y-88065714D02*
X242752380Y-88065714D01*
X242752380Y-88303809D01*
X242800000Y-88446666D01*
X242895238Y-88541904D01*
X242990476Y-88589523D01*
X243180952Y-88637142D01*
X243323809Y-88637142D01*
X243514285Y-88589523D01*
X243609523Y-88541904D01*
X243704761Y-88446666D01*
X243752380Y-88303809D01*
X243752380Y-88065714D01*
X242847619Y-89018095D02*
X242800000Y-89065714D01*
X242752380Y-89160952D01*
X242752380Y-89399047D01*
X242800000Y-89494285D01*
X242847619Y-89541904D01*
X242942857Y-89589523D01*
X243038095Y-89589523D01*
X243180952Y-89541904D01*
X243752380Y-88970476D01*
X243752380Y-89589523D01*
X242752380Y-90494285D02*
X242752380Y-90018095D01*
X243228571Y-89970476D01*
X243180952Y-90018095D01*
X243133333Y-90113333D01*
X243133333Y-90351428D01*
X243180952Y-90446666D01*
X243228571Y-90494285D01*
X243323809Y-90541904D01*
X243561904Y-90541904D01*
X243657142Y-90494285D01*
X243704761Y-90446666D01*
X243752380Y-90351428D01*
X243752380Y-90113333D01*
X243704761Y-90018095D01*
X243657142Y-89970476D01*
%TO.C,D24*%
X224702380Y-88065714D02*
X223702380Y-88065714D01*
X223702380Y-88303809D01*
X223750000Y-88446666D01*
X223845238Y-88541904D01*
X223940476Y-88589523D01*
X224130952Y-88637142D01*
X224273809Y-88637142D01*
X224464285Y-88589523D01*
X224559523Y-88541904D01*
X224654761Y-88446666D01*
X224702380Y-88303809D01*
X224702380Y-88065714D01*
X223797619Y-89018095D02*
X223750000Y-89065714D01*
X223702380Y-89160952D01*
X223702380Y-89399047D01*
X223750000Y-89494285D01*
X223797619Y-89541904D01*
X223892857Y-89589523D01*
X223988095Y-89589523D01*
X224130952Y-89541904D01*
X224702380Y-88970476D01*
X224702380Y-89589523D01*
X224035714Y-90446666D02*
X224702380Y-90446666D01*
X223654761Y-90208571D02*
X224369047Y-89970476D01*
X224369047Y-90589523D01*
%TO.C,D23*%
X205652380Y-88065714D02*
X204652380Y-88065714D01*
X204652380Y-88303809D01*
X204700000Y-88446666D01*
X204795238Y-88541904D01*
X204890476Y-88589523D01*
X205080952Y-88637142D01*
X205223809Y-88637142D01*
X205414285Y-88589523D01*
X205509523Y-88541904D01*
X205604761Y-88446666D01*
X205652380Y-88303809D01*
X205652380Y-88065714D01*
X204747619Y-89018095D02*
X204700000Y-89065714D01*
X204652380Y-89160952D01*
X204652380Y-89399047D01*
X204700000Y-89494285D01*
X204747619Y-89541904D01*
X204842857Y-89589523D01*
X204938095Y-89589523D01*
X205080952Y-89541904D01*
X205652380Y-88970476D01*
X205652380Y-89589523D01*
X204652380Y-89922857D02*
X204652380Y-90541904D01*
X205033333Y-90208571D01*
X205033333Y-90351428D01*
X205080952Y-90446666D01*
X205128571Y-90494285D01*
X205223809Y-90541904D01*
X205461904Y-90541904D01*
X205557142Y-90494285D01*
X205604761Y-90446666D01*
X205652380Y-90351428D01*
X205652380Y-90065714D01*
X205604761Y-89970476D01*
X205557142Y-89922857D01*
%TO.C,D22*%
X186602380Y-88065714D02*
X185602380Y-88065714D01*
X185602380Y-88303809D01*
X185650000Y-88446666D01*
X185745238Y-88541904D01*
X185840476Y-88589523D01*
X186030952Y-88637142D01*
X186173809Y-88637142D01*
X186364285Y-88589523D01*
X186459523Y-88541904D01*
X186554761Y-88446666D01*
X186602380Y-88303809D01*
X186602380Y-88065714D01*
X185697619Y-89018095D02*
X185650000Y-89065714D01*
X185602380Y-89160952D01*
X185602380Y-89399047D01*
X185650000Y-89494285D01*
X185697619Y-89541904D01*
X185792857Y-89589523D01*
X185888095Y-89589523D01*
X186030952Y-89541904D01*
X186602380Y-88970476D01*
X186602380Y-89589523D01*
X185697619Y-89970476D02*
X185650000Y-90018095D01*
X185602380Y-90113333D01*
X185602380Y-90351428D01*
X185650000Y-90446666D01*
X185697619Y-90494285D01*
X185792857Y-90541904D01*
X185888095Y-90541904D01*
X186030952Y-90494285D01*
X186602380Y-89922857D01*
X186602380Y-90541904D01*
%TO.C,D21*%
X165266380Y-88065714D02*
X164266380Y-88065714D01*
X164266380Y-88303809D01*
X164314000Y-88446666D01*
X164409238Y-88541904D01*
X164504476Y-88589523D01*
X164694952Y-88637142D01*
X164837809Y-88637142D01*
X165028285Y-88589523D01*
X165123523Y-88541904D01*
X165218761Y-88446666D01*
X165266380Y-88303809D01*
X165266380Y-88065714D01*
X164361619Y-89018095D02*
X164314000Y-89065714D01*
X164266380Y-89160952D01*
X164266380Y-89399047D01*
X164314000Y-89494285D01*
X164361619Y-89541904D01*
X164456857Y-89589523D01*
X164552095Y-89589523D01*
X164694952Y-89541904D01*
X165266380Y-88970476D01*
X165266380Y-89589523D01*
X165266380Y-90541904D02*
X165266380Y-89970476D01*
X165266380Y-90256190D02*
X164266380Y-90256190D01*
X164409238Y-90160952D01*
X164504476Y-90065714D01*
X164552095Y-89970476D01*
%TO.C,D20*%
X138850380Y-88065714D02*
X137850380Y-88065714D01*
X137850380Y-88303809D01*
X137898000Y-88446666D01*
X137993238Y-88541904D01*
X138088476Y-88589523D01*
X138278952Y-88637142D01*
X138421809Y-88637142D01*
X138612285Y-88589523D01*
X138707523Y-88541904D01*
X138802761Y-88446666D01*
X138850380Y-88303809D01*
X138850380Y-88065714D01*
X137945619Y-89018095D02*
X137898000Y-89065714D01*
X137850380Y-89160952D01*
X137850380Y-89399047D01*
X137898000Y-89494285D01*
X137945619Y-89541904D01*
X138040857Y-89589523D01*
X138136095Y-89589523D01*
X138278952Y-89541904D01*
X138850380Y-88970476D01*
X138850380Y-89589523D01*
X137850380Y-90208571D02*
X137850380Y-90303809D01*
X137898000Y-90399047D01*
X137945619Y-90446666D01*
X138040857Y-90494285D01*
X138231333Y-90541904D01*
X138469428Y-90541904D01*
X138659904Y-90494285D01*
X138755142Y-90446666D01*
X138802761Y-90399047D01*
X138850380Y-90303809D01*
X138850380Y-90208571D01*
X138802761Y-90113333D01*
X138755142Y-90065714D01*
X138659904Y-90018095D01*
X138469428Y-89970476D01*
X138231333Y-89970476D01*
X138040857Y-90018095D01*
X137945619Y-90065714D01*
X137898000Y-90113333D01*
X137850380Y-90208571D01*
%TO.C,D19*%
X115101380Y-88067714D02*
X114101380Y-88067714D01*
X114101380Y-88305809D01*
X114149000Y-88448666D01*
X114244238Y-88543904D01*
X114339476Y-88591523D01*
X114529952Y-88639142D01*
X114672809Y-88639142D01*
X114863285Y-88591523D01*
X114958523Y-88543904D01*
X115053761Y-88448666D01*
X115101380Y-88305809D01*
X115101380Y-88067714D01*
X115101380Y-89591523D02*
X115101380Y-89020095D01*
X115101380Y-89305809D02*
X114101380Y-89305809D01*
X114244238Y-89210571D01*
X114339476Y-89115333D01*
X114387095Y-89020095D01*
X115101380Y-90067714D02*
X115101380Y-90258190D01*
X115053761Y-90353428D01*
X115006142Y-90401047D01*
X114863285Y-90496285D01*
X114672809Y-90543904D01*
X114291857Y-90543904D01*
X114196619Y-90496285D01*
X114149000Y-90448666D01*
X114101380Y-90353428D01*
X114101380Y-90162952D01*
X114149000Y-90067714D01*
X114196619Y-90020095D01*
X114291857Y-89972476D01*
X114529952Y-89972476D01*
X114625190Y-90020095D01*
X114672809Y-90067714D01*
X114720428Y-90162952D01*
X114720428Y-90353428D01*
X114672809Y-90448666D01*
X114625190Y-90496285D01*
X114529952Y-90543904D01*
%TO.C,D18*%
X96051380Y-88066714D02*
X95051380Y-88066714D01*
X95051380Y-88304809D01*
X95099000Y-88447666D01*
X95194238Y-88542904D01*
X95289476Y-88590523D01*
X95479952Y-88638142D01*
X95622809Y-88638142D01*
X95813285Y-88590523D01*
X95908523Y-88542904D01*
X96003761Y-88447666D01*
X96051380Y-88304809D01*
X96051380Y-88066714D01*
X96051380Y-89590523D02*
X96051380Y-89019095D01*
X96051380Y-89304809D02*
X95051380Y-89304809D01*
X95194238Y-89209571D01*
X95289476Y-89114333D01*
X95337095Y-89019095D01*
X95479952Y-90161952D02*
X95432333Y-90066714D01*
X95384714Y-90019095D01*
X95289476Y-89971476D01*
X95241857Y-89971476D01*
X95146619Y-90019095D01*
X95099000Y-90066714D01*
X95051380Y-90161952D01*
X95051380Y-90352428D01*
X95099000Y-90447666D01*
X95146619Y-90495285D01*
X95241857Y-90542904D01*
X95289476Y-90542904D01*
X95384714Y-90495285D01*
X95432333Y-90447666D01*
X95479952Y-90352428D01*
X95479952Y-90161952D01*
X95527571Y-90066714D01*
X95575190Y-90019095D01*
X95670428Y-89971476D01*
X95860904Y-89971476D01*
X95956142Y-90019095D01*
X96003761Y-90066714D01*
X96051380Y-90161952D01*
X96051380Y-90352428D01*
X96003761Y-90447666D01*
X95956142Y-90495285D01*
X95860904Y-90542904D01*
X95670428Y-90542904D01*
X95575190Y-90495285D01*
X95527571Y-90447666D01*
X95479952Y-90352428D01*
%TO.C,D17*%
X77001380Y-88067714D02*
X76001380Y-88067714D01*
X76001380Y-88305809D01*
X76049000Y-88448666D01*
X76144238Y-88543904D01*
X76239476Y-88591523D01*
X76429952Y-88639142D01*
X76572809Y-88639142D01*
X76763285Y-88591523D01*
X76858523Y-88543904D01*
X76953761Y-88448666D01*
X77001380Y-88305809D01*
X77001380Y-88067714D01*
X77001380Y-89591523D02*
X77001380Y-89020095D01*
X77001380Y-89305809D02*
X76001380Y-89305809D01*
X76144238Y-89210571D01*
X76239476Y-89115333D01*
X76287095Y-89020095D01*
X76001380Y-89924857D02*
X76001380Y-90591523D01*
X77001380Y-90162952D01*
%TO.C,D16*%
X368625380Y-69016714D02*
X367625380Y-69016714D01*
X367625380Y-69254809D01*
X367673000Y-69397666D01*
X367768238Y-69492904D01*
X367863476Y-69540523D01*
X368053952Y-69588142D01*
X368196809Y-69588142D01*
X368387285Y-69540523D01*
X368482523Y-69492904D01*
X368577761Y-69397666D01*
X368625380Y-69254809D01*
X368625380Y-69016714D01*
X368625380Y-70540523D02*
X368625380Y-69969095D01*
X368625380Y-70254809D02*
X367625380Y-70254809D01*
X367768238Y-70159571D01*
X367863476Y-70064333D01*
X367911095Y-69969095D01*
X367625380Y-71397666D02*
X367625380Y-71207190D01*
X367673000Y-71111952D01*
X367720619Y-71064333D01*
X367863476Y-70969095D01*
X368053952Y-70921476D01*
X368434904Y-70921476D01*
X368530142Y-70969095D01*
X368577761Y-71016714D01*
X368625380Y-71111952D01*
X368625380Y-71302428D01*
X368577761Y-71397666D01*
X368530142Y-71445285D01*
X368434904Y-71492904D01*
X368196809Y-71492904D01*
X368101571Y-71445285D01*
X368053952Y-71397666D01*
X368006333Y-71302428D01*
X368006333Y-71111952D01*
X368053952Y-71016714D01*
X368101571Y-70969095D01*
X368196809Y-70921476D01*
%TO.C,D15*%
X353226380Y-69017714D02*
X352226380Y-69017714D01*
X352226380Y-69255809D01*
X352274000Y-69398666D01*
X352369238Y-69493904D01*
X352464476Y-69541523D01*
X352654952Y-69589142D01*
X352797809Y-69589142D01*
X352988285Y-69541523D01*
X353083523Y-69493904D01*
X353178761Y-69398666D01*
X353226380Y-69255809D01*
X353226380Y-69017714D01*
X353226380Y-70541523D02*
X353226380Y-69970095D01*
X353226380Y-70255809D02*
X352226380Y-70255809D01*
X352369238Y-70160571D01*
X352464476Y-70065333D01*
X352512095Y-69970095D01*
X352226380Y-71446285D02*
X352226380Y-70970095D01*
X352702571Y-70922476D01*
X352654952Y-70970095D01*
X352607333Y-71065333D01*
X352607333Y-71303428D01*
X352654952Y-71398666D01*
X352702571Y-71446285D01*
X352797809Y-71493904D01*
X353035904Y-71493904D01*
X353131142Y-71446285D01*
X353178761Y-71398666D01*
X353226380Y-71303428D01*
X353226380Y-71065333D01*
X353178761Y-70970095D01*
X353131142Y-70922476D01*
%TO.C,D14*%
X334176380Y-69015714D02*
X333176380Y-69015714D01*
X333176380Y-69253809D01*
X333224000Y-69396666D01*
X333319238Y-69491904D01*
X333414476Y-69539523D01*
X333604952Y-69587142D01*
X333747809Y-69587142D01*
X333938285Y-69539523D01*
X334033523Y-69491904D01*
X334128761Y-69396666D01*
X334176380Y-69253809D01*
X334176380Y-69015714D01*
X334176380Y-70539523D02*
X334176380Y-69968095D01*
X334176380Y-70253809D02*
X333176380Y-70253809D01*
X333319238Y-70158571D01*
X333414476Y-70063333D01*
X333462095Y-69968095D01*
X333509714Y-71396666D02*
X334176380Y-71396666D01*
X333128761Y-71158571D02*
X333843047Y-70920476D01*
X333843047Y-71539523D01*
%TO.C,D13*%
X315126380Y-69015714D02*
X314126380Y-69015714D01*
X314126380Y-69253809D01*
X314174000Y-69396666D01*
X314269238Y-69491904D01*
X314364476Y-69539523D01*
X314554952Y-69587142D01*
X314697809Y-69587142D01*
X314888285Y-69539523D01*
X314983523Y-69491904D01*
X315078761Y-69396666D01*
X315126380Y-69253809D01*
X315126380Y-69015714D01*
X315126380Y-70539523D02*
X315126380Y-69968095D01*
X315126380Y-70253809D02*
X314126380Y-70253809D01*
X314269238Y-70158571D01*
X314364476Y-70063333D01*
X314412095Y-69968095D01*
X314126380Y-70872857D02*
X314126380Y-71491904D01*
X314507333Y-71158571D01*
X314507333Y-71301428D01*
X314554952Y-71396666D01*
X314602571Y-71444285D01*
X314697809Y-71491904D01*
X314935904Y-71491904D01*
X315031142Y-71444285D01*
X315078761Y-71396666D01*
X315126380Y-71301428D01*
X315126380Y-71015714D01*
X315078761Y-70920476D01*
X315031142Y-70872857D01*
%TO.C,D12*%
X296076380Y-69015714D02*
X295076380Y-69015714D01*
X295076380Y-69253809D01*
X295124000Y-69396666D01*
X295219238Y-69491904D01*
X295314476Y-69539523D01*
X295504952Y-69587142D01*
X295647809Y-69587142D01*
X295838285Y-69539523D01*
X295933523Y-69491904D01*
X296028761Y-69396666D01*
X296076380Y-69253809D01*
X296076380Y-69015714D01*
X296076380Y-70539523D02*
X296076380Y-69968095D01*
X296076380Y-70253809D02*
X295076380Y-70253809D01*
X295219238Y-70158571D01*
X295314476Y-70063333D01*
X295362095Y-69968095D01*
X295171619Y-70920476D02*
X295124000Y-70968095D01*
X295076380Y-71063333D01*
X295076380Y-71301428D01*
X295124000Y-71396666D01*
X295171619Y-71444285D01*
X295266857Y-71491904D01*
X295362095Y-71491904D01*
X295504952Y-71444285D01*
X296076380Y-70872857D01*
X296076380Y-71491904D01*
%TO.C,D11*%
X277026380Y-69016714D02*
X276026380Y-69016714D01*
X276026380Y-69254809D01*
X276074000Y-69397666D01*
X276169238Y-69492904D01*
X276264476Y-69540523D01*
X276454952Y-69588142D01*
X276597809Y-69588142D01*
X276788285Y-69540523D01*
X276883523Y-69492904D01*
X276978761Y-69397666D01*
X277026380Y-69254809D01*
X277026380Y-69016714D01*
X277026380Y-70540523D02*
X277026380Y-69969095D01*
X277026380Y-70254809D02*
X276026380Y-70254809D01*
X276169238Y-70159571D01*
X276264476Y-70064333D01*
X276312095Y-69969095D01*
X277026380Y-71492904D02*
X277026380Y-70921476D01*
X277026380Y-71207190D02*
X276026380Y-71207190D01*
X276169238Y-71111952D01*
X276264476Y-71016714D01*
X276312095Y-70921476D01*
%TO.C,D10*%
X257976380Y-69015714D02*
X256976380Y-69015714D01*
X256976380Y-69253809D01*
X257024000Y-69396666D01*
X257119238Y-69491904D01*
X257214476Y-69539523D01*
X257404952Y-69587142D01*
X257547809Y-69587142D01*
X257738285Y-69539523D01*
X257833523Y-69491904D01*
X257928761Y-69396666D01*
X257976380Y-69253809D01*
X257976380Y-69015714D01*
X257976380Y-70539523D02*
X257976380Y-69968095D01*
X257976380Y-70253809D02*
X256976380Y-70253809D01*
X257119238Y-70158571D01*
X257214476Y-70063333D01*
X257262095Y-69968095D01*
X256976380Y-71158571D02*
X256976380Y-71253809D01*
X257024000Y-71349047D01*
X257071619Y-71396666D01*
X257166857Y-71444285D01*
X257357333Y-71491904D01*
X257595428Y-71491904D01*
X257785904Y-71444285D01*
X257881142Y-71396666D01*
X257928761Y-71349047D01*
X257976380Y-71253809D01*
X257976380Y-71158571D01*
X257928761Y-71063333D01*
X257881142Y-71015714D01*
X257785904Y-70968095D01*
X257595428Y-70920476D01*
X257357333Y-70920476D01*
X257166857Y-70968095D01*
X257071619Y-71015714D01*
X257024000Y-71063333D01*
X256976380Y-71158571D01*
%TO.C,D9*%
X238926380Y-69491904D02*
X237926380Y-69491904D01*
X237926380Y-69730000D01*
X237974000Y-69872857D01*
X238069238Y-69968095D01*
X238164476Y-70015714D01*
X238354952Y-70063333D01*
X238497809Y-70063333D01*
X238688285Y-70015714D01*
X238783523Y-69968095D01*
X238878761Y-69872857D01*
X238926380Y-69730000D01*
X238926380Y-69491904D01*
X238926380Y-70539523D02*
X238926380Y-70730000D01*
X238878761Y-70825238D01*
X238831142Y-70872857D01*
X238688285Y-70968095D01*
X238497809Y-71015714D01*
X238116857Y-71015714D01*
X238021619Y-70968095D01*
X237974000Y-70920476D01*
X237926380Y-70825238D01*
X237926380Y-70634761D01*
X237974000Y-70539523D01*
X238021619Y-70491904D01*
X238116857Y-70444285D01*
X238354952Y-70444285D01*
X238450190Y-70491904D01*
X238497809Y-70539523D01*
X238545428Y-70634761D01*
X238545428Y-70825238D01*
X238497809Y-70920476D01*
X238450190Y-70968095D01*
X238354952Y-71015714D01*
%TO.C,D8*%
X219876380Y-69492904D02*
X218876380Y-69492904D01*
X218876380Y-69731000D01*
X218924000Y-69873857D01*
X219019238Y-69969095D01*
X219114476Y-70016714D01*
X219304952Y-70064333D01*
X219447809Y-70064333D01*
X219638285Y-70016714D01*
X219733523Y-69969095D01*
X219828761Y-69873857D01*
X219876380Y-69731000D01*
X219876380Y-69492904D01*
X219304952Y-70635761D02*
X219257333Y-70540523D01*
X219209714Y-70492904D01*
X219114476Y-70445285D01*
X219066857Y-70445285D01*
X218971619Y-70492904D01*
X218924000Y-70540523D01*
X218876380Y-70635761D01*
X218876380Y-70826238D01*
X218924000Y-70921476D01*
X218971619Y-70969095D01*
X219066857Y-71016714D01*
X219114476Y-71016714D01*
X219209714Y-70969095D01*
X219257333Y-70921476D01*
X219304952Y-70826238D01*
X219304952Y-70635761D01*
X219352571Y-70540523D01*
X219400190Y-70492904D01*
X219495428Y-70445285D01*
X219685904Y-70445285D01*
X219781142Y-70492904D01*
X219828761Y-70540523D01*
X219876380Y-70635761D01*
X219876380Y-70826238D01*
X219828761Y-70921476D01*
X219781142Y-70969095D01*
X219685904Y-71016714D01*
X219495428Y-71016714D01*
X219400190Y-70969095D01*
X219352571Y-70921476D01*
X219304952Y-70826238D01*
%TO.C,D7*%
X200826380Y-69491904D02*
X199826380Y-69491904D01*
X199826380Y-69730000D01*
X199874000Y-69872857D01*
X199969238Y-69968095D01*
X200064476Y-70015714D01*
X200254952Y-70063333D01*
X200397809Y-70063333D01*
X200588285Y-70015714D01*
X200683523Y-69968095D01*
X200778761Y-69872857D01*
X200826380Y-69730000D01*
X200826380Y-69491904D01*
X199826380Y-70396666D02*
X199826380Y-71063333D01*
X200826380Y-70634761D01*
%TO.C,D6*%
X181776380Y-69493904D02*
X180776380Y-69493904D01*
X180776380Y-69732000D01*
X180824000Y-69874857D01*
X180919238Y-69970095D01*
X181014476Y-70017714D01*
X181204952Y-70065333D01*
X181347809Y-70065333D01*
X181538285Y-70017714D01*
X181633523Y-69970095D01*
X181728761Y-69874857D01*
X181776380Y-69732000D01*
X181776380Y-69493904D01*
X180776380Y-70922476D02*
X180776380Y-70732000D01*
X180824000Y-70636761D01*
X180871619Y-70589142D01*
X181014476Y-70493904D01*
X181204952Y-70446285D01*
X181585904Y-70446285D01*
X181681142Y-70493904D01*
X181728761Y-70541523D01*
X181776380Y-70636761D01*
X181776380Y-70827238D01*
X181728761Y-70922476D01*
X181681142Y-70970095D01*
X181585904Y-71017714D01*
X181347809Y-71017714D01*
X181252571Y-70970095D01*
X181204952Y-70922476D01*
X181157333Y-70827238D01*
X181157333Y-70636761D01*
X181204952Y-70541523D01*
X181252571Y-70493904D01*
X181347809Y-70446285D01*
%TO.C,D5*%
X162726380Y-69492904D02*
X161726380Y-69492904D01*
X161726380Y-69731000D01*
X161774000Y-69873857D01*
X161869238Y-69969095D01*
X161964476Y-70016714D01*
X162154952Y-70064333D01*
X162297809Y-70064333D01*
X162488285Y-70016714D01*
X162583523Y-69969095D01*
X162678761Y-69873857D01*
X162726380Y-69731000D01*
X162726380Y-69492904D01*
X161726380Y-70969095D02*
X161726380Y-70492904D01*
X162202571Y-70445285D01*
X162154952Y-70492904D01*
X162107333Y-70588142D01*
X162107333Y-70826238D01*
X162154952Y-70921476D01*
X162202571Y-70969095D01*
X162297809Y-71016714D01*
X162535904Y-71016714D01*
X162631142Y-70969095D01*
X162678761Y-70921476D01*
X162726380Y-70826238D01*
X162726380Y-70588142D01*
X162678761Y-70492904D01*
X162631142Y-70445285D01*
%TO.C,D4*%
X122340380Y-69491904D02*
X121340380Y-69491904D01*
X121340380Y-69730000D01*
X121388000Y-69872857D01*
X121483238Y-69968095D01*
X121578476Y-70015714D01*
X121768952Y-70063333D01*
X121911809Y-70063333D01*
X122102285Y-70015714D01*
X122197523Y-69968095D01*
X122292761Y-69872857D01*
X122340380Y-69730000D01*
X122340380Y-69491904D01*
X121673714Y-70920476D02*
X122340380Y-70920476D01*
X121292761Y-70682380D02*
X122007047Y-70444285D01*
X122007047Y-71063333D01*
%TO.C,D3*%
X115133130Y-69491904D02*
X114133130Y-69491904D01*
X114133130Y-69730000D01*
X114180750Y-69872857D01*
X114275988Y-69968095D01*
X114371226Y-70015714D01*
X114561702Y-70063333D01*
X114704559Y-70063333D01*
X114895035Y-70015714D01*
X114990273Y-69968095D01*
X115085511Y-69872857D01*
X115133130Y-69730000D01*
X115133130Y-69491904D01*
X114133130Y-70396666D02*
X114133130Y-71015714D01*
X114514083Y-70682380D01*
X114514083Y-70825238D01*
X114561702Y-70920476D01*
X114609321Y-70968095D01*
X114704559Y-71015714D01*
X114942654Y-71015714D01*
X115037892Y-70968095D01*
X115085511Y-70920476D01*
X115133130Y-70825238D01*
X115133130Y-70539523D01*
X115085511Y-70444285D01*
X115037892Y-70396666D01*
%TO.C,D2*%
X92400380Y-69492904D02*
X91400380Y-69492904D01*
X91400380Y-69731000D01*
X91448000Y-69873857D01*
X91543238Y-69969095D01*
X91638476Y-70016714D01*
X91828952Y-70064333D01*
X91971809Y-70064333D01*
X92162285Y-70016714D01*
X92257523Y-69969095D01*
X92352761Y-69873857D01*
X92400380Y-69731000D01*
X92400380Y-69492904D01*
X91495619Y-70445285D02*
X91448000Y-70492904D01*
X91400380Y-70588142D01*
X91400380Y-70826238D01*
X91448000Y-70921476D01*
X91495619Y-70969095D01*
X91590857Y-71016714D01*
X91686095Y-71016714D01*
X91828952Y-70969095D01*
X92400380Y-70397666D01*
X92400380Y-71016714D01*
%TO.C,D1*%
X77001380Y-69493904D02*
X76001380Y-69493904D01*
X76001380Y-69732000D01*
X76049000Y-69874857D01*
X76144238Y-69970095D01*
X76239476Y-70017714D01*
X76429952Y-70065333D01*
X76572809Y-70065333D01*
X76763285Y-70017714D01*
X76858523Y-69970095D01*
X76953761Y-69874857D01*
X77001380Y-69732000D01*
X77001380Y-69493904D01*
X77001380Y-71017714D02*
X77001380Y-70446285D01*
X77001380Y-70732000D02*
X76001380Y-70732000D01*
X76144238Y-70636761D01*
X76239476Y-70541523D01*
X76287095Y-70446285D01*
%TO.C,C8*%
X328776666Y-71829142D02*
X328824285Y-71876761D01*
X328967142Y-71924380D01*
X329062380Y-71924380D01*
X329205238Y-71876761D01*
X329300476Y-71781523D01*
X329348095Y-71686285D01*
X329395714Y-71495809D01*
X329395714Y-71352952D01*
X329348095Y-71162476D01*
X329300476Y-71067238D01*
X329205238Y-70972000D01*
X329062380Y-70924380D01*
X328967142Y-70924380D01*
X328824285Y-70972000D01*
X328776666Y-71019619D01*
X328205238Y-71352952D02*
X328300476Y-71305333D01*
X328348095Y-71257714D01*
X328395714Y-71162476D01*
X328395714Y-71114857D01*
X328348095Y-71019619D01*
X328300476Y-70972000D01*
X328205238Y-70924380D01*
X328014761Y-70924380D01*
X327919523Y-70972000D01*
X327871904Y-71019619D01*
X327824285Y-71114857D01*
X327824285Y-71162476D01*
X327871904Y-71257714D01*
X327919523Y-71305333D01*
X328014761Y-71352952D01*
X328205238Y-71352952D01*
X328300476Y-71400571D01*
X328348095Y-71448190D01*
X328395714Y-71543428D01*
X328395714Y-71733904D01*
X328348095Y-71829142D01*
X328300476Y-71876761D01*
X328205238Y-71924380D01*
X328014761Y-71924380D01*
X327919523Y-71876761D01*
X327871904Y-71829142D01*
X327824285Y-71733904D01*
X327824285Y-71543428D01*
X327871904Y-71448190D01*
X327919523Y-71400571D01*
X328014761Y-71352952D01*
%TO.C,C7*%
X347419142Y-74443333D02*
X347466761Y-74395714D01*
X347514380Y-74252857D01*
X347514380Y-74157619D01*
X347466761Y-74014761D01*
X347371523Y-73919523D01*
X347276285Y-73871904D01*
X347085809Y-73824285D01*
X346942952Y-73824285D01*
X346752476Y-73871904D01*
X346657238Y-73919523D01*
X346562000Y-74014761D01*
X346514380Y-74157619D01*
X346514380Y-74252857D01*
X346562000Y-74395714D01*
X346609619Y-74443333D01*
X346514380Y-74776666D02*
X346514380Y-75443333D01*
X347514380Y-75014761D01*
%TO.C,C6*%
X358018142Y-74448333D02*
X358065761Y-74400714D01*
X358113380Y-74257857D01*
X358113380Y-74162619D01*
X358065761Y-74019761D01*
X357970523Y-73924523D01*
X357875285Y-73876904D01*
X357684809Y-73829285D01*
X357541952Y-73829285D01*
X357351476Y-73876904D01*
X357256238Y-73924523D01*
X357161000Y-74019761D01*
X357113380Y-74162619D01*
X357113380Y-74257857D01*
X357161000Y-74400714D01*
X357208619Y-74448333D01*
X357113380Y-75305476D02*
X357113380Y-75115000D01*
X357161000Y-75019761D01*
X357208619Y-74972142D01*
X357351476Y-74876904D01*
X357541952Y-74829285D01*
X357922904Y-74829285D01*
X358018142Y-74876904D01*
X358065761Y-74924523D01*
X358113380Y-75019761D01*
X358113380Y-75210238D01*
X358065761Y-75305476D01*
X358018142Y-75353095D01*
X357922904Y-75400714D01*
X357684809Y-75400714D01*
X357589571Y-75353095D01*
X357541952Y-75305476D01*
X357494333Y-75210238D01*
X357494333Y-75019761D01*
X357541952Y-74924523D01*
X357589571Y-74876904D01*
X357684809Y-74829285D01*
%TO.C,C5*%
X327914500Y-76361699D02*
X327914500Y-76429042D01*
X327981844Y-76563729D01*
X328049188Y-76631073D01*
X328183875Y-76698416D01*
X328318562Y-76698416D01*
X328419577Y-76664745D01*
X328587936Y-76563729D01*
X328688951Y-76462714D01*
X328789966Y-76294355D01*
X328823638Y-76193340D01*
X328823638Y-76058653D01*
X328756294Y-75923966D01*
X328688951Y-75856622D01*
X328554264Y-75789279D01*
X328486920Y-75789279D01*
X327914500Y-75082172D02*
X328251218Y-75418890D01*
X327948172Y-75789279D01*
X327948172Y-75721935D01*
X327914500Y-75620920D01*
X327746142Y-75452561D01*
X327645126Y-75418890D01*
X327577783Y-75418890D01*
X327476768Y-75452561D01*
X327308409Y-75620920D01*
X327274737Y-75721935D01*
X327274737Y-75789279D01*
X327308409Y-75890294D01*
X327476768Y-76058653D01*
X327577783Y-76092325D01*
X327645126Y-76092325D01*
%TO.C,C4*%
X337190450Y-91783748D02*
X337257793Y-91783748D01*
X337392480Y-91716404D01*
X337459824Y-91649061D01*
X337527167Y-91514373D01*
X337527167Y-91379686D01*
X337493496Y-91278671D01*
X337392480Y-91110312D01*
X337291465Y-91009297D01*
X337123106Y-90908282D01*
X337022091Y-90874610D01*
X336887404Y-90874610D01*
X336752717Y-90941954D01*
X336685373Y-91009297D01*
X336618030Y-91143984D01*
X336618030Y-91211328D01*
X336180297Y-91985778D02*
X336651702Y-92457183D01*
X336079282Y-91548045D02*
X336752717Y-91884763D01*
X336314984Y-92322496D01*
%TO.C,C3*%
X347419142Y-90826333D02*
X347466761Y-90778714D01*
X347514380Y-90635857D01*
X347514380Y-90540619D01*
X347466761Y-90397761D01*
X347371523Y-90302523D01*
X347276285Y-90254904D01*
X347085809Y-90207285D01*
X346942952Y-90207285D01*
X346752476Y-90254904D01*
X346657238Y-90302523D01*
X346562000Y-90397761D01*
X346514380Y-90540619D01*
X346514380Y-90635857D01*
X346562000Y-90778714D01*
X346609619Y-90826333D01*
X346514380Y-91159666D02*
X346514380Y-91778714D01*
X346895333Y-91445380D01*
X346895333Y-91588238D01*
X346942952Y-91683476D01*
X346990571Y-91731095D01*
X347085809Y-91778714D01*
X347323904Y-91778714D01*
X347419142Y-91731095D01*
X347466761Y-91683476D01*
X347514380Y-91588238D01*
X347514380Y-91302523D01*
X347466761Y-91207285D01*
X347419142Y-91159666D01*
%TO.C,C2*%
X335788500Y-72678699D02*
X335788500Y-72746042D01*
X335855844Y-72880729D01*
X335923188Y-72948073D01*
X336057875Y-73015416D01*
X336192562Y-73015416D01*
X336293577Y-72981745D01*
X336461936Y-72880729D01*
X336562951Y-72779714D01*
X336663966Y-72611355D01*
X336697638Y-72510340D01*
X336697638Y-72375653D01*
X336630294Y-72240966D01*
X336562951Y-72173622D01*
X336428264Y-72106279D01*
X336360920Y-72106279D01*
X336091546Y-71836905D02*
X336091546Y-71769561D01*
X336057875Y-71668546D01*
X335889516Y-71500187D01*
X335788500Y-71466516D01*
X335721157Y-71466516D01*
X335620142Y-71500187D01*
X335552798Y-71567531D01*
X335485455Y-71702218D01*
X335485455Y-72510340D01*
X335047722Y-72072607D01*
%TD*%
M02*
