M48
; DRILL file {KiCad 5.1.6+dfsg1-1} date Tue Nov  3 16:58:08 2020
; FORMAT={-:-/ absolute / inch / decimal}
; #@! TF.CreationDate,2020-11-03T16:58:08-08:00
; #@! TF.GenerationSoftware,Kicad,Pcbnew,5.1.6+dfsg1-1
; #@! TF.FileFunction,NonPlated,1,2,NPTH
FMAT,2
INCH
T1C0.0256
T2C0.0689
T3C0.1200
T4C0.1570
%
G90
G05
T1
X5.8212Y10.9939
X6.0488Y10.9939
T2
X5.2687Y10.7188
X5.6688Y10.7188
X9.3937Y9.9688
X9.7937Y9.9688
X12.9562Y10.7188
X13.3562Y10.7188
X14.3625Y9.2188
X14.7625Y9.2188
X13.1437Y9.9688
X13.5437Y9.9688
X11.6437Y9.9688
X12.0437Y9.9688
X9.2062Y10.7188
X9.6062Y10.7188
X2.8312Y9.9688
X3.2312Y9.9688
X3.2062Y8.4688
X3.6062Y8.4688
X4.5187Y8.2812
X4.9188Y8.2812
X7.1437Y9.9688
X7.5438Y9.9688
X8.2687Y9.2188
X8.6687Y9.2188
X6.0187Y8.2812
X6.4188Y8.2812
X10.8Y8.4688
X11.2Y8.4688
X10.1437Y9.9688
X10.5437Y9.9688
X5.2687Y9.0312
X5.6688Y9.0312
X14.175Y9.9688
X14.575Y9.9688
X3.5812Y9.2188
X3.9812Y9.2188
X14.3625Y8.4688
X14.7625Y8.4688
X11.175Y8.4688
X11.575Y8.4688
X8.4562Y10.7188
X8.8562Y10.7188
X13.7062Y10.7188
X14.1062Y10.7188
X3.5812Y9.9688
X3.9812Y9.9688
X13.5187Y8.4688
X13.9187Y8.4688
X12.2062Y10.7188
X12.6062Y10.7188
X4.3312Y9.9688
X4.7313Y9.9688
X7.9875Y8.4688
X8.3875Y8.4688
X9.0187Y9.2188
X9.4187Y9.2188
X2.8312Y9.2188
X3.2312Y9.2188
X10.8937Y9.9688
X11.2937Y9.9688
X3.5812Y8.4688
X3.9812Y8.4688
X4.3312Y9.2188
X4.7313Y9.2188
X11.2687Y9.2188
X11.6687Y9.2188
X10.7062Y10.7188
X11.1062Y10.7188
X9.9562Y10.7188
X10.3562Y10.7188
X9.7687Y9.2188
X10.1687Y9.2188
X13.5187Y9.2188
X13.9187Y9.2188
X14.4562Y10.7188
X14.8562Y10.7188
X10.5187Y9.2188
X10.9187Y9.2188
X7.7062Y10.7188
X8.1062Y10.7188
X12.675Y8.4688
X13.075Y8.4688
X11.4562Y10.7188
X11.8562Y10.7188
X12.7687Y9.2188
X13.1687Y9.2188
X8.6437Y9.9688
X9.0437Y9.9688
X5.2687Y8.2812
X5.6688Y8.2812
X3.5812Y10.7188
X3.9812Y10.7188
X2.8312Y10.7188
X3.2312Y10.7188
X5.2687Y9.9688
X5.6688Y9.9688
X4.3312Y10.7188
X4.7313Y10.7188
X7.8937Y9.9688
X8.2937Y9.9688
X12.0187Y9.2188
X12.4187Y9.2188
X12.3937Y9.9688
X12.7937Y9.9688
X6.4875Y9.2188
X6.8875Y9.2188
X2.8312Y8.4688
X3.2312Y8.4688
X7.5187Y9.2188
X7.9188Y9.2188
X6.3Y9.9688
X6.7Y9.9688
X6.2062Y10.7188
X6.6063Y10.7188
X9.3Y8.4688
X9.7Y8.4688
X7.05Y8.4688
X7.45Y8.4688
X6.9562Y10.7188
X7.3563Y10.7188
T3
X9.03Y8.1937
X9.97Y8.1937
X2.9362Y8.1937
X3.8762Y8.1937
X9.0315Y8.1937
X12.9685Y8.1937
X10.905Y8.1937
X11.845Y8.1937
T4
X12.5938Y9.9688
X6.6875Y9.2188
X3.0312Y8.4688
X7.7188Y9.2188
X6.5Y9.9688
X6.4062Y10.7188
X9.03Y8.7937
X9.5Y8.4688
X9.97Y8.7937
X7.25Y8.4688
X7.1562Y10.7188
X5.4688Y10.7188
X9.5938Y9.9688
X13.1562Y10.7188
X14.5625Y9.2188
X13.3438Y9.9688
X11.8438Y9.9688
X9.4062Y10.7188
X3.0312Y9.9688
X2.9362Y8.7937
X3.4062Y8.4688
X3.8762Y8.7937
X4.7188Y8.2812
X7.3438Y9.9688
X8.4688Y9.2188
X6.2188Y8.2812
X9.0315Y8.7937
X11.0Y8.4688
X12.9685Y8.7937
X10.3438Y9.9688
X5.4688Y9.0312
X14.375Y9.9688
X3.7812Y9.2188
X14.5625Y8.4688
X10.905Y8.7937
X11.375Y8.4688
X11.845Y8.7937
X8.6562Y10.7188
X13.9062Y10.7188
X3.7812Y9.9688
X13.7188Y8.4688
X12.4062Y10.7188
X4.5312Y9.9688
X8.1875Y8.4688
X9.2188Y9.2188
X3.0312Y9.2188
X11.0938Y9.9688
X3.7812Y8.4688
X4.5312Y9.2188
X11.4688Y9.2188
X10.9062Y10.7188
X10.1562Y10.7188
X9.9688Y9.2188
X13.7188Y9.2188
X14.6562Y10.7188
X10.7188Y9.2188
X7.9062Y10.7188
X12.875Y8.4688
X11.6562Y10.7188
X12.9688Y9.2188
X8.8438Y9.9688
X5.4688Y8.2812
X3.7812Y10.7188
X3.0312Y10.7188
X5.4688Y9.9688
X4.5312Y10.7188
X8.0938Y9.9688
X12.2188Y9.2188
T0
M30
