%TF.GenerationSoftware,KiCad,Pcbnew,5.1.8-db9833491~87~ubuntu20.04.1*%
%TF.CreationDate,2020-11-06T17:36:50-08:00*%
%TF.ProjectId,SPM1800,53504d31-3830-4302-9e6b-696361645f70,rev?*%
%TF.SameCoordinates,Original*%
%TF.FileFunction,Soldermask,Top*%
%TF.FilePolarity,Negative*%
%FSLAX46Y46*%
G04 Gerber Fmt 4.6, Leading zero omitted, Abs format (unit mm)*
G04 Created by KiCad (PCBNEW 5.1.8-db9833491~87~ubuntu20.04.1) date 2020-11-06 17:36:50*
%MOMM*%
%LPD*%
G01*
G04 APERTURE LIST*
%ADD10O,1.800000X1.800000*%
%ADD11C,2.100000*%
%ADD12C,1.850000*%
%ADD13C,4.087800*%
%ADD14O,1.100000X1.700000*%
%ADD15O,1.100000X2.200000*%
%ADD16C,0.750000*%
%ADD17C,3.148000*%
G04 APERTURE END LIST*
D10*
%TO.C,J2*%
X316357000Y-81407000D03*
X318897000Y-81407000D03*
G36*
G01*
X320587000Y-80507000D02*
X322287000Y-80507000D01*
G75*
G02*
X322337000Y-80557000I0J-50000D01*
G01*
X322337000Y-82257000D01*
G75*
G02*
X322287000Y-82307000I-50000J0D01*
G01*
X320587000Y-82307000D01*
G75*
G02*
X320537000Y-82257000I0J50000D01*
G01*
X320537000Y-80557000D01*
G75*
G02*
X320587000Y-80507000I50000J0D01*
G01*
G37*
%TD*%
%TO.C,J3*%
G36*
G01*
X119623000Y-61810000D02*
X119623000Y-60110000D01*
G75*
G02*
X119673000Y-60060000I50000J0D01*
G01*
X121373000Y-60060000D01*
G75*
G02*
X121423000Y-60110000I0J-50000D01*
G01*
X121423000Y-61810000D01*
G75*
G02*
X121373000Y-61860000I-50000J0D01*
G01*
X119673000Y-61860000D01*
G75*
G02*
X119623000Y-61810000I0J50000D01*
G01*
G37*
%TD*%
%TO.C,EC2*%
G36*
G01*
X126683000Y-96449000D02*
X124683000Y-96449000D01*
G75*
G02*
X124633000Y-96399000I0J50000D01*
G01*
X124633000Y-94399000D01*
G75*
G02*
X124683000Y-94349000I50000J0D01*
G01*
X126683000Y-94349000D01*
G75*
G02*
X126733000Y-94399000I0J-50000D01*
G01*
X126733000Y-96399000D01*
G75*
G02*
X126683000Y-96449000I-50000J0D01*
G01*
G37*
D11*
X128183000Y-95399000D03*
X130683000Y-95399000D03*
G36*
G01*
X123583000Y-89549000D02*
X121583000Y-89549000D01*
G75*
G02*
X121533000Y-89499000I0J50000D01*
G01*
X121533000Y-86299000D01*
G75*
G02*
X121583000Y-86249000I50000J0D01*
G01*
X123583000Y-86249000D01*
G75*
G02*
X123633000Y-86299000I0J-50000D01*
G01*
X123633000Y-89499000D01*
G75*
G02*
X123583000Y-89549000I-50000J0D01*
G01*
G37*
G36*
G01*
X134783000Y-89549000D02*
X132783000Y-89549000D01*
G75*
G02*
X132733000Y-89499000I0J50000D01*
G01*
X132733000Y-86299000D01*
G75*
G02*
X132783000Y-86249000I50000J0D01*
G01*
X134783000Y-86249000D01*
G75*
G02*
X134833000Y-86299000I0J-50000D01*
G01*
X134833000Y-89499000D01*
G75*
G02*
X134783000Y-89549000I-50000J0D01*
G01*
G37*
X125683000Y-80899000D03*
X130683000Y-80899000D03*
%TD*%
%TO.C,EC1*%
G36*
G01*
X126683000Y-77504000D02*
X124683000Y-77504000D01*
G75*
G02*
X124633000Y-77454000I0J50000D01*
G01*
X124633000Y-75454000D01*
G75*
G02*
X124683000Y-75404000I50000J0D01*
G01*
X126683000Y-75404000D01*
G75*
G02*
X126733000Y-75454000I0J-50000D01*
G01*
X126733000Y-77454000D01*
G75*
G02*
X126683000Y-77504000I-50000J0D01*
G01*
G37*
X128183000Y-76454000D03*
X130683000Y-76454000D03*
G36*
G01*
X123583000Y-70604000D02*
X121583000Y-70604000D01*
G75*
G02*
X121533000Y-70554000I0J50000D01*
G01*
X121533000Y-67354000D01*
G75*
G02*
X121583000Y-67304000I50000J0D01*
G01*
X123583000Y-67304000D01*
G75*
G02*
X123633000Y-67354000I0J-50000D01*
G01*
X123633000Y-70554000D01*
G75*
G02*
X123583000Y-70604000I-50000J0D01*
G01*
G37*
G36*
G01*
X134783000Y-70604000D02*
X132783000Y-70604000D01*
G75*
G02*
X132733000Y-70554000I0J50000D01*
G01*
X132733000Y-67354000D01*
G75*
G02*
X132783000Y-67304000I50000J0D01*
G01*
X134783000Y-67304000D01*
G75*
G02*
X134833000Y-67354000I0J-50000D01*
G01*
X134833000Y-70554000D01*
G75*
G02*
X134783000Y-70604000I-50000J0D01*
G01*
G37*
X125683000Y-61954000D03*
X130683000Y-61954000D03*
%TD*%
D12*
%TO.C,MX27*%
X276193250Y-87788750D03*
X266033250Y-87788750D03*
D13*
X271113250Y-87788750D03*
%TD*%
D12*
%TO.C,MX32*%
X71405750Y-106838750D03*
X61245750Y-106838750D03*
D13*
X66325750Y-106838750D03*
%TD*%
D12*
%TO.C,MX4*%
X133318250Y-68738750D03*
X123158250Y-68738750D03*
D13*
X128238250Y-68738750D03*
%TD*%
D12*
%TO.C,MX6*%
X176180750Y-68738750D03*
X166020750Y-68738750D03*
D13*
X171100750Y-68738750D03*
%TD*%
D12*
%TO.C,MX1*%
X71405750Y-68738750D03*
X61245750Y-68738750D03*
D13*
X66325750Y-68738750D03*
%TD*%
D14*
%TO.C,USB1*%
X144401000Y-58099000D03*
X135761000Y-58099000D03*
D15*
X144401000Y-62279000D03*
X135761000Y-62279000D03*
D16*
X137191000Y-61749000D03*
X142971000Y-61749000D03*
%TD*%
D13*
%TO.C,MX59*%
X87788750Y-117633750D03*
X63912750Y-117633750D03*
D17*
X87788750Y-132873750D03*
X63912750Y-132873750D03*
D12*
X80930750Y-125888750D03*
X70770750Y-125888750D03*
D13*
X75850750Y-125888750D03*
%TD*%
D12*
%TO.C,MX58*%
X364299500Y-125888750D03*
X354139500Y-125888750D03*
D13*
X359219500Y-125888750D03*
%TD*%
D12*
%TO.C,MX57*%
X342868250Y-125888750D03*
X332708250Y-125888750D03*
D13*
X337788250Y-125888750D03*
%TD*%
D12*
%TO.C,MX56*%
X321437000Y-125888750D03*
X311277000Y-125888750D03*
D13*
X316357000Y-125888750D03*
%TD*%
%TO.C,MX55*%
X290195000Y-117633750D03*
X266319000Y-117633750D03*
D17*
X290195000Y-132873750D03*
X266319000Y-132873750D03*
D12*
X283337000Y-125888750D03*
X273177000Y-125888750D03*
D13*
X278257000Y-125888750D03*
%TD*%
%TO.C,MX60*%
X318731900Y-117633750D03*
X218732100Y-117633750D03*
D17*
X318731900Y-132873750D03*
X218732100Y-132873750D03*
D12*
X273812000Y-125888750D03*
X263652000Y-125888750D03*
D13*
X268732000Y-125888750D03*
%TD*%
%TO.C,MX54*%
X242570000Y-117633750D03*
X218694000Y-117633750D03*
D17*
X242570000Y-132873750D03*
X218694000Y-132873750D03*
D12*
X235712000Y-125888750D03*
X225552000Y-125888750D03*
D13*
X230632000Y-125888750D03*
%TD*%
D12*
%TO.C,MX53*%
X202374500Y-125888750D03*
X192214500Y-125888750D03*
D13*
X197294500Y-125888750D03*
%TD*%
D12*
%TO.C,MX52*%
X178562000Y-125888750D03*
X168402000Y-125888750D03*
D13*
X173482000Y-125888750D03*
%TD*%
D12*
%TO.C,MX51*%
X152368250Y-130651250D03*
X142208250Y-130651250D03*
D13*
X147288250Y-130651250D03*
%TD*%
D12*
%TO.C,MX50*%
X133318250Y-130651250D03*
X123158250Y-130651250D03*
D13*
X128238250Y-130651250D03*
%TD*%
D12*
%TO.C,MX49*%
X114268250Y-130651250D03*
X104108250Y-130651250D03*
D13*
X109188250Y-130651250D03*
%TD*%
D12*
%TO.C,MX48*%
X90455750Y-125888750D03*
X80295750Y-125888750D03*
D13*
X85375750Y-125888750D03*
%TD*%
D12*
%TO.C,MX47*%
X71405750Y-125888750D03*
X61245750Y-125888750D03*
D13*
X66325750Y-125888750D03*
%TD*%
D12*
%TO.C,MX46*%
X364299500Y-106838750D03*
X354139500Y-106838750D03*
D13*
X359219500Y-106838750D03*
%TD*%
D12*
%TO.C,MX45*%
X342868250Y-106838750D03*
X332708250Y-106838750D03*
D13*
X337788250Y-106838750D03*
%TD*%
D12*
%TO.C,MX44*%
X323818250Y-106838750D03*
X313658250Y-106838750D03*
D13*
X318738250Y-106838750D03*
%TD*%
D12*
%TO.C,MX43*%
X304768250Y-106838750D03*
X294608250Y-106838750D03*
D13*
X299688250Y-106838750D03*
%TD*%
D12*
%TO.C,MX42*%
X285718250Y-106838750D03*
X275558250Y-106838750D03*
D13*
X280638250Y-106838750D03*
%TD*%
D12*
%TO.C,MX41*%
X266668250Y-106838750D03*
X256508250Y-106838750D03*
D13*
X261588250Y-106838750D03*
%TD*%
D12*
%TO.C,MX40*%
X247618250Y-106838750D03*
X237458250Y-106838750D03*
D13*
X242538250Y-106838750D03*
%TD*%
D12*
%TO.C,MX39*%
X228568250Y-106838750D03*
X218408250Y-106838750D03*
D13*
X223488250Y-106838750D03*
%TD*%
D12*
%TO.C,MX38*%
X209518250Y-106838750D03*
X199358250Y-106838750D03*
D13*
X204438250Y-106838750D03*
%TD*%
D12*
%TO.C,MX37*%
X190468250Y-106838750D03*
X180308250Y-106838750D03*
D13*
X185388250Y-106838750D03*
%TD*%
D12*
%TO.C,MX36*%
X164274500Y-106838750D03*
X154114500Y-106838750D03*
D13*
X159194500Y-106838750D03*
%TD*%
D12*
%TO.C,MX35*%
X133318250Y-111601250D03*
X123158250Y-111601250D03*
D13*
X128238250Y-111601250D03*
%TD*%
D12*
%TO.C,MX34*%
X109505750Y-106838750D03*
X99345750Y-106838750D03*
D13*
X104425750Y-106838750D03*
%TD*%
D12*
%TO.C,MX33*%
X90455750Y-106838750D03*
X80295750Y-106838750D03*
D13*
X85375750Y-106838750D03*
%TD*%
D12*
%TO.C,MX31*%
X359537000Y-87788750D03*
X349377000Y-87788750D03*
D13*
X354457000Y-87788750D03*
%TD*%
D12*
%TO.C,MX30*%
X333343250Y-87788750D03*
X323183250Y-87788750D03*
D13*
X328263250Y-87788750D03*
%TD*%
D12*
%TO.C,MX29*%
X314293250Y-87788750D03*
X304133250Y-87788750D03*
D13*
X309213250Y-87788750D03*
%TD*%
D12*
%TO.C,MX28*%
X295243250Y-87788750D03*
X285083250Y-87788750D03*
D13*
X290163250Y-87788750D03*
%TD*%
D12*
%TO.C,MX26*%
X257143250Y-87788750D03*
X246983250Y-87788750D03*
D13*
X252063250Y-87788750D03*
%TD*%
D12*
%TO.C,MX25*%
X238093250Y-87788750D03*
X227933250Y-87788750D03*
D13*
X233013250Y-87788750D03*
%TD*%
D12*
%TO.C,MX24*%
X219043250Y-87788750D03*
X208883250Y-87788750D03*
D13*
X213963250Y-87788750D03*
%TD*%
D12*
%TO.C,MX23*%
X199993250Y-87788750D03*
X189833250Y-87788750D03*
D13*
X194913250Y-87788750D03*
%TD*%
D12*
%TO.C,MX22*%
X180943250Y-87788750D03*
X170783250Y-87788750D03*
D13*
X175863250Y-87788750D03*
%TD*%
D12*
%TO.C,MX21*%
X159512000Y-87788750D03*
X149352000Y-87788750D03*
D13*
X154432000Y-87788750D03*
%TD*%
D12*
%TO.C,MX20*%
X133318250Y-87788750D03*
X123158250Y-87788750D03*
D13*
X128238250Y-87788750D03*
%TD*%
D12*
%TO.C,MX19*%
X109505750Y-87788750D03*
X99345750Y-87788750D03*
D13*
X104425750Y-87788750D03*
%TD*%
D12*
%TO.C,MX18*%
X90455750Y-87788750D03*
X80295750Y-87788750D03*
D13*
X85375750Y-87788750D03*
%TD*%
D12*
%TO.C,MX17*%
X71405750Y-87788750D03*
X61245750Y-87788750D03*
D13*
X66325750Y-87788750D03*
%TD*%
D12*
%TO.C,MX16*%
X366680750Y-68738750D03*
X356520750Y-68738750D03*
D13*
X361600750Y-68738750D03*
%TD*%
D12*
%TO.C,MX15*%
X347630750Y-68738750D03*
X337470750Y-68738750D03*
D13*
X342550750Y-68738750D03*
%TD*%
D12*
%TO.C,MX14*%
X328580750Y-68738750D03*
X318420750Y-68738750D03*
D13*
X323500750Y-68738750D03*
%TD*%
D12*
%TO.C,MX13*%
X309530750Y-68738750D03*
X299370750Y-68738750D03*
D13*
X304450750Y-68738750D03*
%TD*%
D12*
%TO.C,MX12*%
X290480750Y-68738750D03*
X280320750Y-68738750D03*
D13*
X285400750Y-68738750D03*
%TD*%
D12*
%TO.C,MX11*%
X271430750Y-68738750D03*
X261270750Y-68738750D03*
D13*
X266350750Y-68738750D03*
%TD*%
D12*
%TO.C,MX10*%
X252380750Y-68738750D03*
X242220750Y-68738750D03*
D13*
X247300750Y-68738750D03*
%TD*%
D12*
%TO.C,MX9*%
X233330750Y-68738750D03*
X223170750Y-68738750D03*
D13*
X228250750Y-68738750D03*
%TD*%
D12*
%TO.C,MX8*%
X214280750Y-68738750D03*
X204120750Y-68738750D03*
D13*
X209200750Y-68738750D03*
%TD*%
D12*
%TO.C,MX7*%
X195230750Y-68738750D03*
X185070750Y-68738750D03*
D13*
X190150750Y-68738750D03*
%TD*%
D12*
%TO.C,MX5*%
X157130750Y-68738750D03*
X146970750Y-68738750D03*
D13*
X152050750Y-68738750D03*
%TD*%
D12*
%TO.C,MX3*%
X109505750Y-68738750D03*
X99345750Y-68738750D03*
D13*
X104425750Y-68738750D03*
%TD*%
D12*
%TO.C,MX2*%
X90455750Y-68738750D03*
X80295750Y-68738750D03*
D13*
X85375750Y-68738750D03*
%TD*%
D10*
%TO.C,J1*%
X334264000Y-60960000D03*
G36*
G01*
X332574000Y-61860000D02*
X330874000Y-61860000D01*
G75*
G02*
X330824000Y-61810000I0J50000D01*
G01*
X330824000Y-60110000D01*
G75*
G02*
X330874000Y-60060000I50000J0D01*
G01*
X332574000Y-60060000D01*
G75*
G02*
X332624000Y-60110000I0J-50000D01*
G01*
X332624000Y-61810000D01*
G75*
G02*
X332574000Y-61860000I-50000J0D01*
G01*
G37*
%TD*%
M02*
