M48
; DRILL file {KiCad 5.1.9-73d0e3b20d~88~ubuntu20.04.1} date Fri Feb 12 22:07:06 2021
; FORMAT={-:-/ absolute / inch / decimal}
; #@! TF.CreationDate,2021-02-12T22:07:06-08:00
; #@! TF.GenerationSoftware,Kicad,Pcbnew,5.1.9-73d0e3b20d~88~ubuntu20.04.1
; #@! TF.FileFunction,NonPlated,1,2,NPTH
FMAT,2
INCH
T1C0.0256
T2C0.0689
T3C0.1200
T4C0.1570
%
G90
G05
T1
X5.4012Y-2.4311
X5.6288Y-2.4311
T2
X2.4112Y-2.7062
X2.4112Y-3.4562
X2.4112Y-4.2062
X2.4112Y-4.9562
X2.7862Y-4.9562
X2.8112Y-2.7062
X2.8112Y-3.4562
X2.8112Y-4.2062
X2.8112Y-4.9562
X3.1612Y-2.7062
X3.1612Y-3.4562
X3.1612Y-4.2062
X3.1612Y-4.9562
X3.1862Y-4.9562
X3.5612Y-2.7062
X3.5612Y-3.4562
X3.5612Y-4.2062
X3.5612Y-4.9562
X3.9112Y-2.7062
X3.9112Y-3.4562
X3.9112Y-4.2062
X4.0987Y-5.1437
X4.3113Y-2.7062
X4.3113Y-3.4562
X4.3113Y-4.2062
X4.4988Y-5.1437
X4.8487Y-2.7062
X4.8487Y-3.4562
X4.8487Y-4.3937
X4.8487Y-5.1437
X5.2488Y-2.7062
X5.2488Y-3.4562
X5.2488Y-4.3937
X5.2488Y-5.1437
X5.5987Y-5.1437
X5.7862Y-2.7062
X5.88Y-3.4562
X5.9988Y-5.1437
X6.0675Y-4.2062
X6.1863Y-2.7062
X6.28Y-3.4562
X6.4675Y-4.2062
X6.5362Y-2.7062
X6.63Y-4.9562
X6.7237Y-3.4562
X6.9363Y-2.7062
X7.03Y-4.9562
X7.0987Y-4.2062
X7.1238Y-3.4562
X7.2862Y-2.7062
X7.4737Y-3.4562
X7.4988Y-4.2062
X7.5675Y-4.9562
X7.6863Y-2.7062
X7.8487Y-4.2062
X7.8738Y-3.4562
X7.9675Y-4.9562
X8.0362Y-2.7062
X8.2237Y-3.4562
X8.2487Y-4.2062
X8.4362Y-2.7062
X8.5987Y-4.2062
X8.6237Y-3.4562
X8.7862Y-2.7062
X8.88Y-4.9562
X8.9737Y-3.4562
X8.9987Y-4.2062
X9.1862Y-2.7062
X9.28Y-4.9562
X9.3487Y-4.2062
X9.3737Y-3.4562
X9.5362Y-2.7062
X9.7237Y-3.4562
X9.7487Y-4.2062
X9.9362Y-2.7062
X10.0987Y-4.2062
X10.1237Y-3.4562
X10.2862Y-2.7062
X10.38Y-4.9562
X10.4737Y-3.4562
X10.4987Y-4.2062
X10.6862Y-2.7062
X10.755Y-4.9562
X10.78Y-4.9562
X10.8487Y-4.2062
X10.8737Y-3.4562
X11.0362Y-2.7062
X11.155Y-4.9562
X11.2237Y-3.4562
X11.2487Y-4.2062
X11.4362Y-2.7062
X11.5987Y-4.2062
X11.6237Y-3.4562
X11.7862Y-2.7062
X11.9737Y-3.4562
X11.9987Y-4.2062
X12.1862Y-2.7062
X12.255Y-4.9562
X12.3487Y-4.2062
X12.3737Y-3.4562
X12.5362Y-2.7062
X12.655Y-4.9562
X12.7237Y-3.4562
X12.7487Y-4.2062
X12.9362Y-2.7062
X13.0987Y-4.2062
X13.0987Y-4.9562
X13.1237Y-3.4562
X13.2862Y-2.7062
X13.4987Y-4.2062
X13.4987Y-4.9562
X13.6862Y-2.7062
X13.755Y-3.4562
X13.9425Y-4.2062
X13.9425Y-4.9562
X14.0362Y-2.7062
X14.155Y-3.4562
X14.3425Y-4.2062
X14.3425Y-4.9562
X14.4362Y-2.7062
T3
X2.5162Y-5.2313
X3.4562Y-5.2313
X8.61Y-5.2313
X8.6115Y-5.2313
X9.55Y-5.2313
X10.485Y-5.2313
X11.425Y-5.2313
X12.5485Y-5.2313
T4
X2.5162Y-4.6312
X2.6113Y-2.7062
X2.6113Y-3.4562
X2.6113Y-4.2062
X2.6113Y-4.9562
X2.9863Y-4.9562
X3.3613Y-2.7062
X3.3613Y-3.4562
X3.3613Y-4.2062
X3.3613Y-4.9562
X3.4562Y-4.6312
X4.1113Y-2.7062
X4.1113Y-3.4562
X4.1113Y-4.2062
X4.2988Y-5.1437
X5.0488Y-2.7062
X5.0488Y-3.4562
X5.0488Y-4.3937
X5.0488Y-5.1437
X5.7988Y-5.1437
X5.9863Y-2.7062
X6.08Y-3.4562
X6.2675Y-4.2062
X6.7363Y-2.7062
X6.83Y-4.9562
X6.9238Y-3.4562
X7.2988Y-4.2062
X7.4863Y-2.7062
X7.6738Y-3.4562
X7.7675Y-4.9562
X8.0488Y-4.2062
X8.2363Y-2.7062
X8.4238Y-3.4562
X8.61Y-4.6312
X8.6115Y-4.6312
X8.7988Y-4.2062
X8.9863Y-2.7062
X9.08Y-4.9562
X9.1738Y-3.4562
X9.5488Y-4.2062
X9.55Y-4.6312
X9.7363Y-2.7062
X9.9238Y-3.4562
X10.2988Y-4.2062
X10.485Y-4.6312
X10.4863Y-2.7062
X10.58Y-4.9562
X10.6738Y-3.4562
X10.955Y-4.9562
X11.0488Y-4.2062
X11.2363Y-2.7062
X11.4238Y-3.4562
X11.425Y-4.6312
X11.7988Y-4.2062
X11.9863Y-2.7062
X12.1738Y-3.4562
X12.455Y-4.9562
X12.5485Y-4.6312
X12.5488Y-4.2062
X12.7363Y-2.7062
X12.9238Y-3.4562
X13.2988Y-4.2062
X13.2988Y-4.9562
X13.4863Y-2.7062
X13.955Y-3.4562
X14.1425Y-4.2062
X14.1425Y-4.9562
X14.2363Y-2.7062
T0
M30
