M48
; DRILL file {KiCad 5.1.9-73d0e3b20d~88~ubuntu20.04.1} date Fri Feb 12 22:28:39 2021
; FORMAT={-:-/ absolute / inch / decimal}
; #@! TF.CreationDate,2021-02-12T22:28:39-08:00
; #@! TF.GenerationSoftware,Kicad,Pcbnew,5.1.9-73d0e3b20d~88~ubuntu20.04.1
; #@! TF.FileFunction,Plated,1,2,PTH
FMAT,2
INCH
T1C0.0157
T2C0.0236
T3C0.0394
T4C0.0579
T5C0.0591
%
G90
G05
T1
X5.31Y-2.83
X5.375Y-2.7
X5.465Y-2.605
X5.785Y-2.83
X5.796Y-2.8702
X5.825Y-2.8987
X5.8527Y-3.2727
X5.855Y-3.23
X12.685Y-3.025
X12.8036Y-2.8987
X12.8507Y-2.8593
X12.99Y-2.95
X13.025Y-3.58
X13.0619Y-3.0513
X13.0807Y-3.1263
X13.0808Y-3.0859
X13.1125Y-3.21
X13.125Y-2.83
X13.16Y-2.96
X13.255Y-2.78
X13.27Y-2.96
X13.2897Y-2.9259
X13.3965Y-2.78
X13.4027Y-2.8878
X13.43Y-3.5515
X13.44Y-2.875
X13.4648Y-3.6098
X13.555Y-2.895
X13.6553Y-3.7203
X13.72Y-2.83
X13.785Y-3.0064
X13.7994Y-3.541
X13.805Y-3.58
X13.94Y-2.785
X14.205Y-2.945
T3
X4.745Y-2.4
X4.9481Y-2.4391
X4.9481Y-3.01
X4.9481Y-3.185
X4.9481Y-3.7559
X5.0466Y-3.01
X5.0466Y-3.7559
X5.145Y-2.4391
X5.145Y-3.01
X5.145Y-3.185
X5.145Y-3.7559
X12.455Y-3.205
X12.555Y-3.205
X12.655Y-3.205
X13.06Y-2.4
X13.16Y-2.4
T4
X2.4613Y-2.6062
X2.4613Y-3.3562
X2.4613Y-4.1063
X2.4613Y-4.8563
X2.5128Y-2.5488
X2.5128Y-3.2988
X2.5128Y-4.0488
X2.5128Y-4.7988
X2.7097Y-2.5291
X2.7097Y-3.2791
X2.7097Y-4.0291
X2.7097Y-4.7791
X2.7113Y-2.5063
X2.7113Y-3.2563
X2.7113Y-4.0062
X2.7113Y-4.7562
X2.8362Y-4.8563
X2.8878Y-4.7988
X3.0847Y-4.7791
X3.0862Y-4.7562
X3.2112Y-2.6062
X3.2112Y-3.3562
X3.2112Y-4.1063
X3.2112Y-4.8563
X3.2628Y-2.5488
X3.2628Y-3.2988
X3.2628Y-4.0488
X3.2628Y-4.7988
X3.4597Y-2.5291
X3.4597Y-3.2791
X3.4597Y-4.0291
X3.4597Y-4.7791
X3.4612Y-2.5063
X3.4612Y-3.2563
X3.4612Y-4.0062
X3.4612Y-4.7562
X3.9612Y-2.6062
X3.9612Y-3.3562
X3.9612Y-4.1063
X4.0128Y-2.5488
X4.0128Y-3.2988
X4.0128Y-4.0488
X4.1487Y-5.0438
X4.2003Y-4.9863
X4.2097Y-2.5291
X4.2097Y-3.2791
X4.2097Y-4.0291
X4.2112Y-2.5063
X4.2112Y-3.2563
X4.2112Y-4.0062
X4.3972Y-4.9666
X4.3987Y-4.9437
X4.8987Y-2.6062
X4.8987Y-3.3562
X4.8987Y-4.2938
X4.8987Y-5.0438
X4.9503Y-2.5488
X4.9503Y-3.2988
X4.9503Y-4.2363
X4.9503Y-4.9863
X5.1472Y-2.5291
X5.1472Y-3.2791
X5.1472Y-4.2166
X5.1472Y-4.9666
X5.1487Y-2.5063
X5.1487Y-3.2563
X5.1487Y-4.1937
X5.1487Y-4.9437
X5.6487Y-5.0438
X5.7003Y-4.9863
X5.8362Y-2.6062
X5.8878Y-2.5488
X5.8972Y-4.9666
X5.8987Y-4.9437
X5.93Y-3.3562
X5.9816Y-3.2988
X6.0847Y-2.5291
X6.0862Y-2.5063
X6.1175Y-4.1063
X6.1691Y-4.0488
X6.1784Y-3.2791
X6.18Y-3.2563
X6.3659Y-4.0291
X6.3675Y-4.0062
X6.5862Y-2.6062
X6.6378Y-2.5488
X6.68Y-4.8563
X6.7316Y-4.7988
X6.7737Y-3.3562
X6.8253Y-3.2988
X6.8347Y-2.5291
X6.8362Y-2.5063
X6.9284Y-4.7791
X6.93Y-4.7562
X7.0222Y-3.2791
X7.0237Y-3.2563
X7.1487Y-4.1063
X7.2003Y-4.0488
X7.3362Y-2.6062
X7.3878Y-2.5488
X7.3972Y-4.0291
X7.3987Y-4.0062
X7.5237Y-3.3562
X7.5753Y-3.2988
X7.5847Y-2.5291
X7.5862Y-2.5063
X7.6175Y-4.8563
X7.6691Y-4.7988
X7.7722Y-3.2791
X7.7737Y-3.2563
X7.8659Y-4.7791
X7.8675Y-4.7562
X7.8987Y-4.1063
X7.9503Y-4.0488
X8.0862Y-2.6062
X8.1378Y-2.5488
X8.1472Y-4.0291
X8.1487Y-4.0062
X8.2737Y-3.3562
X8.3253Y-3.2988
X8.3347Y-2.5291
X8.3362Y-2.5063
X8.5222Y-3.2791
X8.5237Y-3.2563
X8.6487Y-4.1063
X8.7003Y-4.0488
X8.8362Y-2.6062
X8.8878Y-2.5488
X8.8972Y-4.0291
X8.8987Y-4.0062
X8.93Y-4.8563
X8.9816Y-4.7988
X9.0237Y-3.3562
X9.0753Y-3.2988
X9.0847Y-2.5291
X9.0862Y-2.5063
X9.1784Y-4.7791
X9.18Y-4.7562
X9.2722Y-3.2791
X9.2737Y-3.2563
X9.3987Y-4.1063
X9.4503Y-4.0488
X9.5862Y-2.6062
X9.6378Y-2.5488
X9.6472Y-4.0291
X9.6487Y-4.0062
X9.7737Y-3.3562
X9.8253Y-3.2988
X9.8347Y-2.5291
X9.8362Y-2.5063
X10.0222Y-3.2791
X10.0237Y-3.2563
X10.1487Y-4.1063
X10.2003Y-4.0488
X10.3362Y-2.6062
X10.3878Y-2.5488
X10.3972Y-4.0291
X10.3987Y-4.0062
X10.43Y-4.8563
X10.4816Y-4.7988
X10.5237Y-3.3562
X10.5753Y-3.2988
X10.5847Y-2.5291
X10.5862Y-2.5063
X10.6784Y-4.7791
X10.68Y-4.7562
X10.7722Y-3.2791
X10.7737Y-3.2563
X10.805Y-4.8563
X10.8566Y-4.7988
X10.8987Y-4.1063
X10.9503Y-4.0488
X11.0534Y-4.7791
X11.055Y-4.7562
X11.0862Y-2.6062
X11.1378Y-2.5488
X11.1472Y-4.0291
X11.1487Y-4.0062
X11.2737Y-3.3562
X11.3253Y-3.2988
X11.3347Y-2.5291
X11.3362Y-2.5063
X11.5222Y-3.2791
X11.5237Y-3.2563
X11.6487Y-4.1063
X11.7003Y-4.0488
X11.8362Y-2.6062
X11.8878Y-2.5488
X11.8972Y-4.0291
X11.8987Y-4.0062
X12.0237Y-3.3562
X12.0753Y-3.2988
X12.0847Y-2.5291
X12.0862Y-2.5063
X12.2722Y-3.2791
X12.2737Y-3.2563
X12.305Y-4.8563
X12.3566Y-4.7988
X12.3987Y-4.1063
X12.4503Y-4.0488
X12.5534Y-4.7791
X12.555Y-4.7562
X12.5862Y-2.6062
X12.6378Y-2.5488
X12.6472Y-4.0291
X12.6487Y-4.0062
X12.7737Y-3.3562
X12.8253Y-3.2988
X12.8347Y-2.5291
X12.8362Y-2.5063
X13.0222Y-3.2791
X13.0237Y-3.2563
X13.1487Y-4.1063
X13.1487Y-4.8563
X13.2003Y-4.0488
X13.2003Y-4.7988
X13.3362Y-2.6062
X13.3878Y-2.5488
X13.3972Y-4.0291
X13.3972Y-4.7791
X13.3987Y-4.0062
X13.3987Y-4.7562
X13.5847Y-2.5291
X13.5862Y-2.5063
X13.805Y-3.3562
X13.8566Y-3.2988
X13.9925Y-4.1063
X13.9925Y-4.8563
X14.0441Y-4.0488
X14.0441Y-4.7988
X14.0534Y-3.2791
X14.055Y-3.2563
X14.0862Y-2.6062
X14.1378Y-2.5488
X14.2409Y-4.0291
X14.2409Y-4.7791
X14.2425Y-4.0062
X14.2425Y-4.7562
X14.3347Y-2.5291
X14.3362Y-2.5063
T2
G00X5.3449Y-2.2756
M15
G01X5.3449Y-2.2992
M16
G05
G00X5.3449Y-2.4303
M15
G01X5.3449Y-2.4736
M16
G05
G00X5.6851Y-2.2756
M15
G01X5.6851Y-2.2992
M16
G05
G00X5.6851Y-2.4303
M15
G01X5.6851Y-2.4736
M16
G05
T5
G00X4.8261Y-2.7403
M15
G01X4.8261Y-2.6891
M16
G05
G00X4.8261Y-3.4862
M15
G01X4.8261Y-3.435
M16
G05
G00X5.267Y-2.7403
M15
G01X5.267Y-2.6891
M16
G05
G00X5.267Y-3.4862
M15
G01X5.267Y-3.435
M16
G05
T0
M30
