%TF.GenerationSoftware,KiCad,Pcbnew,5.1.6+dfsg1-1*%
%TF.CreationDate,2020-11-05T21:56:46-08:00*%
%TF.ProjectId,SPM1800,53504d31-3830-4302-9e6b-696361645f70,rev?*%
%TF.SameCoordinates,Original*%
%TF.FileFunction,Soldermask,Bot*%
%TF.FilePolarity,Negative*%
%FSLAX46Y46*%
G04 Gerber Fmt 4.6, Leading zero omitted, Abs format (unit mm)*
G04 Created by KiCad (PCBNEW 5.1.6+dfsg1-1) date 2020-11-05 21:56:46*
%MOMM*%
%LPD*%
G01*
G04 APERTURE LIST*
%ADD10C,0.150000*%
%ADD11C,0.333000*%
%ADD12O,1.800000X1.800000*%
%ADD13R,1.800000X1.800000*%
%ADD14R,2.100000X2.100000*%
%ADD15C,2.100000*%
%ADD16R,2.100000X3.300000*%
%ADD17C,1.850000*%
%ADD18C,2.350000*%
%ADD19C,4.087800*%
%ADD20R,1.500000X1.300000*%
%ADD21C,0.750000*%
%ADD22R,0.400000X2.550000*%
%ADD23R,0.700000X2.550000*%
%ADD24C,0.100000*%
%ADD25C,3.148000*%
%ADD26R,0.800000X0.700000*%
%ADD27R,0.800000X1.100000*%
%ADD28R,1.300000X1.000000*%
%ADD29R,1.000000X1.300000*%
G04 APERTURE END LIST*
D10*
X116172166Y-138818880D02*
X116172166Y-137818880D01*
X115838833Y-138533166D01*
X115505500Y-137818880D01*
X115505500Y-138818880D01*
X115029309Y-138295071D02*
X114695976Y-138295071D01*
X114553119Y-138818880D02*
X115029309Y-138818880D01*
X115029309Y-137818880D01*
X114553119Y-137818880D01*
X113648357Y-138818880D02*
X114124547Y-138818880D01*
X114124547Y-137818880D01*
X113124547Y-137818880D02*
X112934071Y-137818880D01*
X112838833Y-137866500D01*
X112743595Y-137961738D01*
X112695976Y-138152214D01*
X112695976Y-138485547D01*
X112743595Y-138676023D01*
X112838833Y-138771261D01*
X112934071Y-138818880D01*
X113124547Y-138818880D01*
X113219785Y-138771261D01*
X113315023Y-138676023D01*
X113362642Y-138485547D01*
X113362642Y-138152214D01*
X113315023Y-137961738D01*
X113219785Y-137866500D01*
X113124547Y-137818880D01*
X112267404Y-138818880D02*
X112267404Y-137818880D01*
X111695976Y-138818880D01*
X111695976Y-137818880D01*
X110886452Y-138295071D02*
X110743595Y-138342690D01*
X110695976Y-138390309D01*
X110648357Y-138485547D01*
X110648357Y-138628404D01*
X110695976Y-138723642D01*
X110743595Y-138771261D01*
X110838833Y-138818880D01*
X111219785Y-138818880D01*
X111219785Y-137818880D01*
X110886452Y-137818880D01*
X110791214Y-137866500D01*
X110743595Y-137914119D01*
X110695976Y-138009357D01*
X110695976Y-138104595D01*
X110743595Y-138199833D01*
X110791214Y-138247452D01*
X110886452Y-138295071D01*
X111219785Y-138295071D01*
X109648357Y-138818880D02*
X109981690Y-138342690D01*
X110219785Y-138818880D02*
X110219785Y-137818880D01*
X109838833Y-137818880D01*
X109743595Y-137866500D01*
X109695976Y-137914119D01*
X109648357Y-138009357D01*
X109648357Y-138152214D01*
X109695976Y-138247452D01*
X109743595Y-138295071D01*
X109838833Y-138342690D01*
X110219785Y-138342690D01*
X109219785Y-138295071D02*
X108886452Y-138295071D01*
X108743595Y-138818880D02*
X109219785Y-138818880D01*
X109219785Y-137818880D01*
X108743595Y-137818880D01*
X108315023Y-138818880D02*
X108315023Y-137818880D01*
X108076928Y-137818880D01*
X107934071Y-137866500D01*
X107838833Y-137961738D01*
X107791214Y-138056976D01*
X107743595Y-138247452D01*
X107743595Y-138390309D01*
X107791214Y-138580785D01*
X107838833Y-138676023D01*
X107934071Y-138771261D01*
X108076928Y-138818880D01*
X108315023Y-138818880D01*
X106553119Y-138437928D02*
X105791214Y-138437928D01*
X104600738Y-137914119D02*
X104553119Y-137866500D01*
X104457880Y-137818880D01*
X104219785Y-137818880D01*
X104124547Y-137866500D01*
X104076928Y-137914119D01*
X104029309Y-138009357D01*
X104029309Y-138104595D01*
X104076928Y-138247452D01*
X104648357Y-138818880D01*
X104029309Y-138818880D01*
X103410261Y-137818880D02*
X103315023Y-137818880D01*
X103219785Y-137866500D01*
X103172166Y-137914119D01*
X103124547Y-138009357D01*
X103076928Y-138199833D01*
X103076928Y-138437928D01*
X103124547Y-138628404D01*
X103172166Y-138723642D01*
X103219785Y-138771261D01*
X103315023Y-138818880D01*
X103410261Y-138818880D01*
X103505500Y-138771261D01*
X103553119Y-138723642D01*
X103600738Y-138628404D01*
X103648357Y-138437928D01*
X103648357Y-138199833D01*
X103600738Y-138009357D01*
X103553119Y-137914119D01*
X103505500Y-137866500D01*
X103410261Y-137818880D01*
X102695976Y-137914119D02*
X102648357Y-137866500D01*
X102553119Y-137818880D01*
X102315023Y-137818880D01*
X102219785Y-137866500D01*
X102172166Y-137914119D01*
X102124547Y-138009357D01*
X102124547Y-138104595D01*
X102172166Y-138247452D01*
X102743595Y-138818880D01*
X102124547Y-138818880D01*
X101505500Y-137818880D02*
X101410261Y-137818880D01*
X101315023Y-137866500D01*
X101267404Y-137914119D01*
X101219785Y-138009357D01*
X101172166Y-138199833D01*
X101172166Y-138437928D01*
X101219785Y-138628404D01*
X101267404Y-138723642D01*
X101315023Y-138771261D01*
X101410261Y-138818880D01*
X101505500Y-138818880D01*
X101600738Y-138771261D01*
X101648357Y-138723642D01*
X101695976Y-138628404D01*
X101743595Y-138437928D01*
X101743595Y-138199833D01*
X101695976Y-138009357D01*
X101648357Y-137914119D01*
X101600738Y-137866500D01*
X101505500Y-137818880D01*
X100743595Y-138723642D02*
X100695976Y-138771261D01*
X100743595Y-138818880D01*
X100791214Y-138771261D01*
X100743595Y-138723642D01*
X100743595Y-138818880D01*
X99743595Y-138818880D02*
X100315023Y-138818880D01*
X100029309Y-138818880D02*
X100029309Y-137818880D01*
X100124547Y-137961738D01*
X100219785Y-138056976D01*
X100315023Y-138104595D01*
X98791214Y-138818880D02*
X99362642Y-138818880D01*
X99076928Y-138818880D02*
X99076928Y-137818880D01*
X99172166Y-137961738D01*
X99267404Y-138056976D01*
X99362642Y-138104595D01*
X133141604Y-122070880D02*
X133028508Y-123070880D01*
X132748747Y-122356595D01*
X132647556Y-123070880D01*
X132284461Y-122070880D01*
X132028508Y-123070880D02*
X131903508Y-122070880D01*
X131570175Y-122070880D02*
X130998747Y-122070880D01*
X131409461Y-123070880D02*
X131284461Y-122070880D01*
X130790413Y-123070880D02*
X130665413Y-122070880D01*
X130724937Y-122547071D02*
X130153508Y-122547071D01*
X130218985Y-123070880D02*
X130093985Y-122070880D01*
X128468985Y-122404214D02*
X128552318Y-123070880D01*
X128659461Y-122023261D02*
X128986842Y-122737547D01*
X128367794Y-122737547D01*
X127713032Y-122070880D02*
X127617794Y-122070880D01*
X127528508Y-122118500D01*
X127486842Y-122166119D01*
X127451127Y-122261357D01*
X127427318Y-122451833D01*
X127457080Y-122689928D01*
X127528508Y-122880404D01*
X127588032Y-122975642D01*
X127641604Y-123023261D01*
X127742794Y-123070880D01*
X127838032Y-123070880D01*
X127927318Y-123023261D01*
X127968985Y-122975642D01*
X128004699Y-122880404D01*
X128028508Y-122689928D01*
X127998747Y-122451833D01*
X127927318Y-122261357D01*
X127867794Y-122166119D01*
X127814223Y-122118500D01*
X127713032Y-122070880D01*
X127117794Y-123023261D02*
X127028508Y-123070880D01*
X126838032Y-123070880D01*
X126736842Y-123023261D01*
X126677318Y-122928023D01*
X126671366Y-122880404D01*
X126707080Y-122785166D01*
X126796366Y-122737547D01*
X126939223Y-122737547D01*
X127028508Y-122689928D01*
X127064223Y-122594690D01*
X127058270Y-122547071D01*
X126998747Y-122451833D01*
X126897556Y-122404214D01*
X126754699Y-122404214D01*
X126665413Y-122451833D01*
X125439223Y-122547071D02*
X125105889Y-122547071D01*
X125028508Y-123070880D02*
X125504699Y-123070880D01*
X125379699Y-122070880D01*
X124903508Y-122070880D01*
X124599937Y-123070880D02*
X124474937Y-122070880D01*
X124028508Y-123070880D01*
X123903508Y-122070880D01*
X123486842Y-122547071D02*
X123153508Y-122547071D01*
X123076127Y-123070880D02*
X123552318Y-123070880D01*
X123427318Y-122070880D01*
X122951127Y-122070880D01*
X122076127Y-123070880D02*
X122349937Y-122594690D01*
X122647556Y-123070880D02*
X122522556Y-122070880D01*
X122141604Y-122070880D01*
X122052318Y-122118500D01*
X122010651Y-122166119D01*
X121974937Y-122261357D01*
X121992794Y-122404214D01*
X122052318Y-122499452D01*
X122105889Y-122547071D01*
X122207080Y-122594690D01*
X122588032Y-122594690D01*
X121004699Y-122118500D02*
X121093985Y-122070880D01*
X121236842Y-122070880D01*
X121385651Y-122118500D01*
X121492794Y-122213738D01*
X121552318Y-122308976D01*
X121623747Y-122499452D01*
X121641604Y-122642309D01*
X121617794Y-122832785D01*
X121582080Y-122928023D01*
X121498747Y-123023261D01*
X121361842Y-123070880D01*
X121266604Y-123070880D01*
X121117794Y-123023261D01*
X121064223Y-122975642D01*
X121022556Y-122642309D01*
X121213032Y-122642309D01*
X120397556Y-122594690D02*
X120457080Y-123070880D01*
X120665413Y-122070880D02*
X120397556Y-122594690D01*
X119998747Y-122070880D01*
D11*
X143007663Y-121340309D02*
X142751711Y-121578404D01*
X142275520Y-121578404D01*
X142055282Y-121340309D01*
X141930282Y-121102214D01*
X141775520Y-120626023D01*
X141715996Y-120149833D01*
X141751711Y-119673642D01*
X141817187Y-119435547D01*
X141977901Y-119197452D01*
X142329091Y-118959357D01*
X142489806Y-118721261D01*
X142555282Y-118483166D01*
X142590996Y-118006976D01*
X142531472Y-117530785D01*
X142376711Y-117054595D01*
X142251711Y-116816500D01*
X142031472Y-116578404D01*
X141555282Y-116578404D01*
X141299330Y-116816500D01*
X140031472Y-116578404D02*
X139650520Y-116578404D01*
X139489806Y-116816500D01*
X139358853Y-117292690D01*
X139382663Y-118245071D01*
X139590996Y-119911738D01*
X139805282Y-120864119D01*
X140055282Y-121340309D01*
X140275520Y-121578404D01*
X140656472Y-121578404D01*
X140817187Y-121340309D01*
X140948139Y-120864119D01*
X140924330Y-119911738D01*
X140715996Y-118245071D01*
X140501711Y-117292690D01*
X140251711Y-116816500D01*
X140031472Y-116578404D01*
X138317187Y-116578404D02*
X138823139Y-120626023D01*
X138787425Y-121102214D01*
X138721949Y-121340309D01*
X138561234Y-121578404D01*
X138180282Y-121578404D01*
X137960044Y-121340309D01*
X137835044Y-121102214D01*
X137680282Y-120626023D01*
X137174330Y-116578404D01*
X136507663Y-116578404D02*
X135364806Y-116578404D01*
X136561234Y-121578404D02*
X135936234Y-116578404D01*
X135323139Y-121578404D02*
X134698139Y-116578404D01*
X134995758Y-118959357D02*
X133852901Y-118959357D01*
X134180282Y-121578404D02*
X133555282Y-116578404D01*
X133227901Y-121578404D02*
X132602901Y-116578404D01*
X131840996Y-116578404D01*
X131680282Y-116816500D01*
X131614806Y-117054595D01*
X131579091Y-117530785D01*
X131668377Y-118245071D01*
X131823139Y-118721261D01*
X131948139Y-118959357D01*
X132168377Y-119197452D01*
X132930282Y-119197452D01*
X131144568Y-120149833D02*
X130192187Y-120149833D01*
X131513615Y-121578404D02*
X130221949Y-116578404D01*
X130180282Y-121578404D01*
X129079091Y-116578404D02*
X129227901Y-121578404D01*
X128400520Y-118006976D01*
X128465996Y-121578404D01*
X127364806Y-116578404D01*
X125704091Y-121578404D02*
X125079091Y-116578404D01*
X124858853Y-120149833D01*
X123745758Y-116578404D01*
X124370758Y-121578404D01*
X123418377Y-121578404D02*
X122793377Y-116578404D01*
X122465996Y-121578404D02*
X121840996Y-116578404D01*
X121323139Y-121578404D01*
X120698139Y-116578404D01*
X120370758Y-121578404D02*
X119745758Y-116578404D01*
X116846949Y-121578404D02*
X117989806Y-121578404D01*
X117418377Y-121578404D02*
X116793377Y-116578404D01*
X117073139Y-117292690D01*
X117323139Y-117768880D01*
X117543377Y-118006976D01*
X115346949Y-118721261D02*
X115507663Y-118483166D01*
X115573139Y-118245071D01*
X115608853Y-117768880D01*
X115579091Y-117530785D01*
X115424330Y-117054595D01*
X115299330Y-116816500D01*
X115079091Y-116578404D01*
X114698139Y-116578404D01*
X114537425Y-116816500D01*
X114471949Y-117054595D01*
X114436234Y-117530785D01*
X114465996Y-117768880D01*
X114620758Y-118245071D01*
X114745758Y-118483166D01*
X114965996Y-118721261D01*
X115346949Y-118721261D01*
X115567187Y-118959357D01*
X115692187Y-119197452D01*
X115846949Y-119673642D01*
X115965996Y-120626023D01*
X115930282Y-121102214D01*
X115864806Y-121340309D01*
X115704091Y-121578404D01*
X115323139Y-121578404D01*
X115102901Y-121340309D01*
X114977901Y-121102214D01*
X114823139Y-120626023D01*
X114704091Y-119673642D01*
X114739806Y-119197452D01*
X114805282Y-118959357D01*
X114965996Y-118721261D01*
X113079091Y-116578404D02*
X112888615Y-116578404D01*
X112727901Y-116816500D01*
X112662425Y-117054595D01*
X112626711Y-117530785D01*
X112650520Y-118483166D01*
X112799330Y-119673642D01*
X113013615Y-120626023D01*
X113168377Y-121102214D01*
X113293377Y-121340309D01*
X113513615Y-121578404D01*
X113704091Y-121578404D01*
X113864806Y-121340309D01*
X113930282Y-121102214D01*
X113965996Y-120626023D01*
X113942187Y-119673642D01*
X113793377Y-118483166D01*
X113579091Y-117530785D01*
X113424330Y-117054595D01*
X113299330Y-116816500D01*
X113079091Y-116578404D01*
X111174330Y-116578404D02*
X110983853Y-116578404D01*
X110823139Y-116816500D01*
X110757663Y-117054595D01*
X110721949Y-117530785D01*
X110745758Y-118483166D01*
X110894568Y-119673642D01*
X111108853Y-120626023D01*
X111263615Y-121102214D01*
X111388615Y-121340309D01*
X111608853Y-121578404D01*
X111799330Y-121578404D01*
X111960044Y-121340309D01*
X112025520Y-121102214D01*
X112061234Y-120626023D01*
X112037425Y-119673642D01*
X111888615Y-118483166D01*
X111674330Y-117530785D01*
X111519568Y-117054595D01*
X111394568Y-116816500D01*
X111174330Y-116578404D01*
%TO.C,R6*%
G36*
G01*
X176076500Y-74581389D02*
X176076500Y-75532611D01*
G75*
G02*
X175802111Y-75807000I-274389J0D01*
G01*
X175225889Y-75807000D01*
G75*
G02*
X174951500Y-75532611I0J274389D01*
G01*
X174951500Y-74581389D01*
G75*
G02*
X175225889Y-74307000I274389J0D01*
G01*
X175802111Y-74307000D01*
G75*
G02*
X176076500Y-74581389I0J-274389D01*
G01*
G37*
G36*
G01*
X177901500Y-74581389D02*
X177901500Y-75532611D01*
G75*
G02*
X177627111Y-75807000I-274389J0D01*
G01*
X177050889Y-75807000D01*
G75*
G02*
X176776500Y-75532611I0J274389D01*
G01*
X176776500Y-74581389D01*
G75*
G02*
X177050889Y-74307000I274389J0D01*
G01*
X177627111Y-74307000D01*
G75*
G02*
X177901500Y-74581389I0J-274389D01*
G01*
G37*
%TD*%
%TO.C,R5*%
G36*
G01*
X176076500Y-76486389D02*
X176076500Y-77437611D01*
G75*
G02*
X175802111Y-77712000I-274389J0D01*
G01*
X175225889Y-77712000D01*
G75*
G02*
X174951500Y-77437611I0J274389D01*
G01*
X174951500Y-76486389D01*
G75*
G02*
X175225889Y-76212000I274389J0D01*
G01*
X175802111Y-76212000D01*
G75*
G02*
X176076500Y-76486389I0J-274389D01*
G01*
G37*
G36*
G01*
X177901500Y-76486389D02*
X177901500Y-77437611D01*
G75*
G02*
X177627111Y-77712000I-274389J0D01*
G01*
X177050889Y-77712000D01*
G75*
G02*
X176776500Y-77437611I0J274389D01*
G01*
X176776500Y-76486389D01*
G75*
G02*
X177050889Y-76212000I274389J0D01*
G01*
X177627111Y-76212000D01*
G75*
G02*
X177901500Y-76486389I0J-274389D01*
G01*
G37*
%TD*%
D12*
%TO.C,J2*%
X316357000Y-81407000D03*
X318897000Y-81407000D03*
D13*
X321437000Y-81407000D03*
%TD*%
%TO.C,J3*%
X120523000Y-60960000D03*
%TD*%
%TO.C,C1*%
G36*
G01*
X346321000Y-73641000D02*
X345321000Y-73641000D01*
G75*
G02*
X345046000Y-73366000I0J275000D01*
G01*
X345046000Y-72816000D01*
G75*
G02*
X345321000Y-72541000I275000J0D01*
G01*
X346321000Y-72541000D01*
G75*
G02*
X346596000Y-72816000I0J-275000D01*
G01*
X346596000Y-73366000D01*
G75*
G02*
X346321000Y-73641000I-275000J0D01*
G01*
G37*
G36*
G01*
X346321000Y-75541000D02*
X345321000Y-75541000D01*
G75*
G02*
X345046000Y-75266000I0J275000D01*
G01*
X345046000Y-74716000D01*
G75*
G02*
X345321000Y-74441000I275000J0D01*
G01*
X346321000Y-74441000D01*
G75*
G02*
X346596000Y-74716000I0J-275000D01*
G01*
X346596000Y-75266000D01*
G75*
G02*
X346321000Y-75541000I-275000J0D01*
G01*
G37*
%TD*%
D14*
%TO.C,EC2*%
X125683000Y-95399000D03*
D15*
X128183000Y-95399000D03*
X130683000Y-95399000D03*
D16*
X122583000Y-87899000D03*
X133783000Y-87899000D03*
D15*
X125683000Y-80899000D03*
X130683000Y-80899000D03*
%TD*%
D14*
%TO.C,EC1*%
X125683000Y-76454000D03*
D15*
X128183000Y-76454000D03*
X130683000Y-76454000D03*
D16*
X122583000Y-68954000D03*
X133783000Y-68954000D03*
D15*
X125683000Y-61954000D03*
X130683000Y-61954000D03*
%TD*%
D17*
%TO.C,MX27*%
X276193250Y-87788750D03*
X266033250Y-87788750D03*
D18*
X268613250Y-83788750D03*
D19*
X271113250Y-87788750D03*
G36*
G01*
X266518541Y-86123310D02*
X266518541Y-86123311D01*
G75*
G02*
X266428689Y-84464041I784709J874561D01*
G01*
X267738691Y-83004041D01*
G75*
G02*
X269397961Y-82914189I874561J-784709D01*
G01*
X269397961Y-82914189D01*
G75*
G02*
X269487813Y-84573459I-784709J-874561D01*
G01*
X268177811Y-86033459D01*
G75*
G02*
X266518541Y-86123311I-874561J784709D01*
G01*
G37*
D18*
X273653250Y-82708750D03*
G36*
G01*
X273532407Y-84460966D02*
X273532407Y-84460966D01*
G75*
G02*
X272441034Y-83207907I80843J1172216D01*
G01*
X272481034Y-82627907D01*
G75*
G02*
X273734093Y-81536534I1172216J-80843D01*
G01*
X273734093Y-81536534D01*
G75*
G02*
X274825466Y-82789593I-80843J-1172216D01*
G01*
X274785466Y-83369593D01*
G75*
G02*
X273532407Y-84460966I-1172216J80843D01*
G01*
G37*
%TD*%
D17*
%TO.C,MX32*%
X71405750Y-106838750D03*
X61245750Y-106838750D03*
D18*
X63825750Y-102838750D03*
D19*
X66325750Y-106838750D03*
G36*
G01*
X61731041Y-105173310D02*
X61731041Y-105173311D01*
G75*
G02*
X61641189Y-103514041I784709J874561D01*
G01*
X62951191Y-102054041D01*
G75*
G02*
X64610461Y-101964189I874561J-784709D01*
G01*
X64610461Y-101964189D01*
G75*
G02*
X64700313Y-103623459I-784709J-874561D01*
G01*
X63390311Y-105083459D01*
G75*
G02*
X61731041Y-105173311I-874561J784709D01*
G01*
G37*
D18*
X68865750Y-101758750D03*
G36*
G01*
X68744907Y-103510966D02*
X68744907Y-103510966D01*
G75*
G02*
X67653534Y-102257907I80843J1172216D01*
G01*
X67693534Y-101677907D01*
G75*
G02*
X68946593Y-100586534I1172216J-80843D01*
G01*
X68946593Y-100586534D01*
G75*
G02*
X70037966Y-101839593I-80843J-1172216D01*
G01*
X69997966Y-102419593D01*
G75*
G02*
X68744907Y-103510966I-1172216J80843D01*
G01*
G37*
%TD*%
D17*
%TO.C,MX4*%
X133318250Y-68738750D03*
X123158250Y-68738750D03*
D18*
X125738250Y-64738750D03*
D19*
X128238250Y-68738750D03*
G36*
G01*
X123643541Y-67073310D02*
X123643541Y-67073311D01*
G75*
G02*
X123553689Y-65414041I784709J874561D01*
G01*
X124863691Y-63954041D01*
G75*
G02*
X126522961Y-63864189I874561J-784709D01*
G01*
X126522961Y-63864189D01*
G75*
G02*
X126612813Y-65523459I-784709J-874561D01*
G01*
X125302811Y-66983459D01*
G75*
G02*
X123643541Y-67073311I-874561J784709D01*
G01*
G37*
D18*
X130778250Y-63658750D03*
G36*
G01*
X130657407Y-65410966D02*
X130657407Y-65410966D01*
G75*
G02*
X129566034Y-64157907I80843J1172216D01*
G01*
X129606034Y-63577907D01*
G75*
G02*
X130859093Y-62486534I1172216J-80843D01*
G01*
X130859093Y-62486534D01*
G75*
G02*
X131950466Y-63739593I-80843J-1172216D01*
G01*
X131910466Y-64319593D01*
G75*
G02*
X130657407Y-65410966I-1172216J80843D01*
G01*
G37*
%TD*%
D17*
%TO.C,MX6*%
X176180750Y-68738750D03*
X166020750Y-68738750D03*
D18*
X168600750Y-64738750D03*
D19*
X171100750Y-68738750D03*
G36*
G01*
X166506041Y-67073310D02*
X166506041Y-67073311D01*
G75*
G02*
X166416189Y-65414041I784709J874561D01*
G01*
X167726191Y-63954041D01*
G75*
G02*
X169385461Y-63864189I874561J-784709D01*
G01*
X169385461Y-63864189D01*
G75*
G02*
X169475313Y-65523459I-784709J-874561D01*
G01*
X168165311Y-66983459D01*
G75*
G02*
X166506041Y-67073311I-874561J784709D01*
G01*
G37*
D18*
X173640750Y-63658750D03*
G36*
G01*
X173519907Y-65410966D02*
X173519907Y-65410966D01*
G75*
G02*
X172428534Y-64157907I80843J1172216D01*
G01*
X172468534Y-63577907D01*
G75*
G02*
X173721593Y-62486534I1172216J-80843D01*
G01*
X173721593Y-62486534D01*
G75*
G02*
X174812966Y-63739593I-80843J-1172216D01*
G01*
X174772966Y-64319593D01*
G75*
G02*
X173519907Y-65410966I-1172216J80843D01*
G01*
G37*
%TD*%
D17*
%TO.C,MX1*%
X71405750Y-68738750D03*
X61245750Y-68738750D03*
D18*
X63825750Y-64738750D03*
D19*
X66325750Y-68738750D03*
G36*
G01*
X61731041Y-67073310D02*
X61731041Y-67073311D01*
G75*
G02*
X61641189Y-65414041I784709J874561D01*
G01*
X62951191Y-63954041D01*
G75*
G02*
X64610461Y-63864189I874561J-784709D01*
G01*
X64610461Y-63864189D01*
G75*
G02*
X64700313Y-65523459I-784709J-874561D01*
G01*
X63390311Y-66983459D01*
G75*
G02*
X61731041Y-67073311I-874561J784709D01*
G01*
G37*
D18*
X68865750Y-63658750D03*
G36*
G01*
X68744907Y-65410966D02*
X68744907Y-65410966D01*
G75*
G02*
X67653534Y-64157907I80843J1172216D01*
G01*
X67693534Y-63577907D01*
G75*
G02*
X68946593Y-62486534I1172216J-80843D01*
G01*
X68946593Y-62486534D01*
G75*
G02*
X70037966Y-63739593I-80843J-1172216D01*
G01*
X69997966Y-64319593D01*
G75*
G02*
X68744907Y-65410966I-1172216J80843D01*
G01*
G37*
%TD*%
D20*
%TO.C,Y1*%
X353695000Y-73738000D03*
X351495000Y-73738000D03*
X351495000Y-75438000D03*
X353695000Y-75438000D03*
%TD*%
D21*
%TO.C,USB1*%
X137191000Y-61749000D03*
X142971000Y-61749000D03*
D22*
X139831000Y-63694000D03*
X140331000Y-63694000D03*
X140831000Y-63694000D03*
X139331000Y-63694000D03*
X141331000Y-63694000D03*
X138831000Y-63694000D03*
X141831000Y-63694000D03*
X138331000Y-63694000D03*
D23*
X137631000Y-63694000D03*
X142531000Y-63694000D03*
X136856000Y-63694000D03*
X143306000Y-63694000D03*
%TD*%
D24*
%TO.C,U1*%
G36*
X334655690Y-81997337D02*
G01*
X335115309Y-82456956D01*
X333983938Y-83588327D01*
X333524319Y-83128708D01*
X334655690Y-81997337D01*
G37*
G36*
X335221376Y-82563022D02*
G01*
X335680995Y-83022641D01*
X334549624Y-84154012D01*
X334090005Y-83694393D01*
X335221376Y-82563022D01*
G37*
G36*
X335787061Y-83128707D02*
G01*
X336246680Y-83588326D01*
X335115309Y-84719697D01*
X334655690Y-84260078D01*
X335787061Y-83128707D01*
G37*
G36*
X336352746Y-83694393D02*
G01*
X336812365Y-84154012D01*
X335680994Y-85285383D01*
X335221375Y-84825764D01*
X336352746Y-83694393D01*
G37*
G36*
X336918432Y-84260078D02*
G01*
X337378051Y-84719697D01*
X336246680Y-85851068D01*
X335787061Y-85391449D01*
X336918432Y-84260078D01*
G37*
G36*
X337484117Y-84825764D02*
G01*
X337943736Y-85285383D01*
X336812365Y-86416754D01*
X336352746Y-85957135D01*
X337484117Y-84825764D01*
G37*
G36*
X338049803Y-85391449D02*
G01*
X338509422Y-85851068D01*
X337378051Y-86982439D01*
X336918432Y-86522820D01*
X338049803Y-85391449D01*
G37*
G36*
X338615488Y-85957135D02*
G01*
X339075107Y-86416754D01*
X337943736Y-87548125D01*
X337484117Y-87088506D01*
X338615488Y-85957135D01*
G37*
G36*
X339181174Y-86522820D02*
G01*
X339640793Y-86982439D01*
X338509422Y-88113810D01*
X338049803Y-87654191D01*
X339181174Y-86522820D01*
G37*
G36*
X339746859Y-87088505D02*
G01*
X340206478Y-87548124D01*
X339075107Y-88679495D01*
X338615488Y-88219876D01*
X339746859Y-87088505D01*
G37*
G36*
X340312544Y-87654191D02*
G01*
X340772163Y-88113810D01*
X339640792Y-89245181D01*
X339181173Y-88785562D01*
X340312544Y-87654191D01*
G37*
G36*
X341585337Y-88113810D02*
G01*
X342044956Y-87654191D01*
X343176327Y-88785562D01*
X342716708Y-89245181D01*
X341585337Y-88113810D01*
G37*
G36*
X342151022Y-87548124D02*
G01*
X342610641Y-87088505D01*
X343742012Y-88219876D01*
X343282393Y-88679495D01*
X342151022Y-87548124D01*
G37*
G36*
X342716707Y-86982439D02*
G01*
X343176326Y-86522820D01*
X344307697Y-87654191D01*
X343848078Y-88113810D01*
X342716707Y-86982439D01*
G37*
G36*
X343282393Y-86416754D02*
G01*
X343742012Y-85957135D01*
X344873383Y-87088506D01*
X344413764Y-87548125D01*
X343282393Y-86416754D01*
G37*
G36*
X343848078Y-85851068D02*
G01*
X344307697Y-85391449D01*
X345439068Y-86522820D01*
X344979449Y-86982439D01*
X343848078Y-85851068D01*
G37*
G36*
X344413764Y-85285383D02*
G01*
X344873383Y-84825764D01*
X346004754Y-85957135D01*
X345545135Y-86416754D01*
X344413764Y-85285383D01*
G37*
G36*
X344979449Y-84719697D02*
G01*
X345439068Y-84260078D01*
X346570439Y-85391449D01*
X346110820Y-85851068D01*
X344979449Y-84719697D01*
G37*
G36*
X345545135Y-84154012D02*
G01*
X346004754Y-83694393D01*
X347136125Y-84825764D01*
X346676506Y-85285383D01*
X345545135Y-84154012D01*
G37*
G36*
X346110820Y-83588326D02*
G01*
X346570439Y-83128707D01*
X347701810Y-84260078D01*
X347242191Y-84719697D01*
X346110820Y-83588326D01*
G37*
G36*
X346676505Y-83022641D02*
G01*
X347136124Y-82563022D01*
X348267495Y-83694393D01*
X347807876Y-84154012D01*
X346676505Y-83022641D01*
G37*
G36*
X347242191Y-82456956D02*
G01*
X347701810Y-81997337D01*
X348833181Y-83128708D01*
X348373562Y-83588327D01*
X347242191Y-82456956D01*
G37*
G36*
X348373562Y-79593173D02*
G01*
X348833181Y-80052792D01*
X347701810Y-81184163D01*
X347242191Y-80724544D01*
X348373562Y-79593173D01*
G37*
G36*
X347807876Y-79027488D02*
G01*
X348267495Y-79487107D01*
X347136124Y-80618478D01*
X346676505Y-80158859D01*
X347807876Y-79027488D01*
G37*
G36*
X347242191Y-78461803D02*
G01*
X347701810Y-78921422D01*
X346570439Y-80052793D01*
X346110820Y-79593174D01*
X347242191Y-78461803D01*
G37*
G36*
X346676506Y-77896117D02*
G01*
X347136125Y-78355736D01*
X346004754Y-79487107D01*
X345545135Y-79027488D01*
X346676506Y-77896117D01*
G37*
G36*
X346110820Y-77330432D02*
G01*
X346570439Y-77790051D01*
X345439068Y-78921422D01*
X344979449Y-78461803D01*
X346110820Y-77330432D01*
G37*
G36*
X345545135Y-76764746D02*
G01*
X346004754Y-77224365D01*
X344873383Y-78355736D01*
X344413764Y-77896117D01*
X345545135Y-76764746D01*
G37*
G36*
X344979449Y-76199061D02*
G01*
X345439068Y-76658680D01*
X344307697Y-77790051D01*
X343848078Y-77330432D01*
X344979449Y-76199061D01*
G37*
G36*
X344413764Y-75633375D02*
G01*
X344873383Y-76092994D01*
X343742012Y-77224365D01*
X343282393Y-76764746D01*
X344413764Y-75633375D01*
G37*
G36*
X343848078Y-75067690D02*
G01*
X344307697Y-75527309D01*
X343176326Y-76658680D01*
X342716707Y-76199061D01*
X343848078Y-75067690D01*
G37*
G36*
X343282393Y-74502005D02*
G01*
X343742012Y-74961624D01*
X342610641Y-76092995D01*
X342151022Y-75633376D01*
X343282393Y-74502005D01*
G37*
G36*
X342716708Y-73936319D02*
G01*
X343176327Y-74395938D01*
X342044956Y-75527309D01*
X341585337Y-75067690D01*
X342716708Y-73936319D01*
G37*
G36*
X339181173Y-74395938D02*
G01*
X339640792Y-73936319D01*
X340772163Y-75067690D01*
X340312544Y-75527309D01*
X339181173Y-74395938D01*
G37*
G36*
X338615488Y-74961624D02*
G01*
X339075107Y-74502005D01*
X340206478Y-75633376D01*
X339746859Y-76092995D01*
X338615488Y-74961624D01*
G37*
G36*
X338049803Y-75527309D02*
G01*
X338509422Y-75067690D01*
X339640793Y-76199061D01*
X339181174Y-76658680D01*
X338049803Y-75527309D01*
G37*
G36*
X337484117Y-76092994D02*
G01*
X337943736Y-75633375D01*
X339075107Y-76764746D01*
X338615488Y-77224365D01*
X337484117Y-76092994D01*
G37*
G36*
X336918432Y-76658680D02*
G01*
X337378051Y-76199061D01*
X338509422Y-77330432D01*
X338049803Y-77790051D01*
X336918432Y-76658680D01*
G37*
G36*
X336352746Y-77224365D02*
G01*
X336812365Y-76764746D01*
X337943736Y-77896117D01*
X337484117Y-78355736D01*
X336352746Y-77224365D01*
G37*
G36*
X335787061Y-77790051D02*
G01*
X336246680Y-77330432D01*
X337378051Y-78461803D01*
X336918432Y-78921422D01*
X335787061Y-77790051D01*
G37*
G36*
X335221375Y-78355736D02*
G01*
X335680994Y-77896117D01*
X336812365Y-79027488D01*
X336352746Y-79487107D01*
X335221375Y-78355736D01*
G37*
G36*
X334655690Y-78921422D02*
G01*
X335115309Y-78461803D01*
X336246680Y-79593174D01*
X335787061Y-80052793D01*
X334655690Y-78921422D01*
G37*
G36*
X334090005Y-79487107D02*
G01*
X334549624Y-79027488D01*
X335680995Y-80158859D01*
X335221376Y-80618478D01*
X334090005Y-79487107D01*
G37*
G36*
X333524319Y-80052792D02*
G01*
X333983938Y-79593173D01*
X335115309Y-80724544D01*
X334655690Y-81184163D01*
X333524319Y-80052792D01*
G37*
%TD*%
%TO.C,R4*%
G36*
G01*
X144366611Y-73333500D02*
X143415389Y-73333500D01*
G75*
G02*
X143141000Y-73059111I0J274389D01*
G01*
X143141000Y-72482889D01*
G75*
G02*
X143415389Y-72208500I274389J0D01*
G01*
X144366611Y-72208500D01*
G75*
G02*
X144641000Y-72482889I0J-274389D01*
G01*
X144641000Y-73059111D01*
G75*
G02*
X144366611Y-73333500I-274389J0D01*
G01*
G37*
G36*
G01*
X144366611Y-71508500D02*
X143415389Y-71508500D01*
G75*
G02*
X143141000Y-71234111I0J274389D01*
G01*
X143141000Y-70657889D01*
G75*
G02*
X143415389Y-70383500I274389J0D01*
G01*
X144366611Y-70383500D01*
G75*
G02*
X144641000Y-70657889I0J-274389D01*
G01*
X144641000Y-71234111D01*
G75*
G02*
X144366611Y-71508500I-274389J0D01*
G01*
G37*
%TD*%
%TO.C,R3*%
G36*
G01*
X137000611Y-73333500D02*
X136049389Y-73333500D01*
G75*
G02*
X135775000Y-73059111I0J274389D01*
G01*
X135775000Y-72482889D01*
G75*
G02*
X136049389Y-72208500I274389J0D01*
G01*
X137000611Y-72208500D01*
G75*
G02*
X137275000Y-72482889I0J-274389D01*
G01*
X137275000Y-73059111D01*
G75*
G02*
X137000611Y-73333500I-274389J0D01*
G01*
G37*
G36*
G01*
X137000611Y-71508500D02*
X136049389Y-71508500D01*
G75*
G02*
X135775000Y-71234111I0J274389D01*
G01*
X135775000Y-70657889D01*
G75*
G02*
X136049389Y-70383500I274389J0D01*
G01*
X137000611Y-70383500D01*
G75*
G02*
X137275000Y-70657889I0J-274389D01*
G01*
X137275000Y-71234111D01*
G75*
G02*
X137000611Y-71508500I-274389J0D01*
G01*
G37*
%TD*%
%TO.C,R2*%
G36*
G01*
X349344611Y-95050500D02*
X348393389Y-95050500D01*
G75*
G02*
X348119000Y-94776111I0J274389D01*
G01*
X348119000Y-94199889D01*
G75*
G02*
X348393389Y-93925500I274389J0D01*
G01*
X349344611Y-93925500D01*
G75*
G02*
X349619000Y-94199889I0J-274389D01*
G01*
X349619000Y-94776111D01*
G75*
G02*
X349344611Y-95050500I-274389J0D01*
G01*
G37*
G36*
G01*
X349344611Y-96875500D02*
X348393389Y-96875500D01*
G75*
G02*
X348119000Y-96601111I0J274389D01*
G01*
X348119000Y-96024889D01*
G75*
G02*
X348393389Y-95750500I274389J0D01*
G01*
X349344611Y-95750500D01*
G75*
G02*
X349619000Y-96024889I0J-274389D01*
G01*
X349619000Y-96601111D01*
G75*
G02*
X349344611Y-96875500I-274389J0D01*
G01*
G37*
%TD*%
%TO.C,R1*%
G36*
G01*
X333828500Y-64356611D02*
X333828500Y-63405389D01*
G75*
G02*
X334102889Y-63131000I274389J0D01*
G01*
X334679111Y-63131000D01*
G75*
G02*
X334953500Y-63405389I0J-274389D01*
G01*
X334953500Y-64356611D01*
G75*
G02*
X334679111Y-64631000I-274389J0D01*
G01*
X334102889Y-64631000D01*
G75*
G02*
X333828500Y-64356611I0J274389D01*
G01*
G37*
G36*
G01*
X332003500Y-64356611D02*
X332003500Y-63405389D01*
G75*
G02*
X332277889Y-63131000I274389J0D01*
G01*
X332854111Y-63131000D01*
G75*
G02*
X333128500Y-63405389I0J-274389D01*
G01*
X333128500Y-64356611D01*
G75*
G02*
X332854111Y-64631000I-274389J0D01*
G01*
X332277889Y-64631000D01*
G75*
G02*
X332003500Y-64356611I0J274389D01*
G01*
G37*
%TD*%
D19*
%TO.C,MX59*%
X87788750Y-117633750D03*
X63912750Y-117633750D03*
D25*
X87788750Y-132873750D03*
X63912750Y-132873750D03*
D17*
X80930750Y-125888750D03*
X70770750Y-125888750D03*
D18*
X73350750Y-121888750D03*
D19*
X75850750Y-125888750D03*
G36*
G01*
X71256041Y-124223310D02*
X71256041Y-124223311D01*
G75*
G02*
X71166189Y-122564041I784709J874561D01*
G01*
X72476191Y-121104041D01*
G75*
G02*
X74135461Y-121014189I874561J-784709D01*
G01*
X74135461Y-121014189D01*
G75*
G02*
X74225313Y-122673459I-784709J-874561D01*
G01*
X72915311Y-124133459D01*
G75*
G02*
X71256041Y-124223311I-874561J784709D01*
G01*
G37*
D18*
X78390750Y-120808750D03*
G36*
G01*
X78269907Y-122560966D02*
X78269907Y-122560966D01*
G75*
G02*
X77178534Y-121307907I80843J1172216D01*
G01*
X77218534Y-120727907D01*
G75*
G02*
X78471593Y-119636534I1172216J-80843D01*
G01*
X78471593Y-119636534D01*
G75*
G02*
X79562966Y-120889593I-80843J-1172216D01*
G01*
X79522966Y-121469593D01*
G75*
G02*
X78269907Y-122560966I-1172216J80843D01*
G01*
G37*
%TD*%
D17*
%TO.C,MX58*%
X364299500Y-125888750D03*
X354139500Y-125888750D03*
D18*
X356719500Y-121888750D03*
D19*
X359219500Y-125888750D03*
G36*
G01*
X354624791Y-124223310D02*
X354624791Y-124223311D01*
G75*
G02*
X354534939Y-122564041I784709J874561D01*
G01*
X355844941Y-121104041D01*
G75*
G02*
X357504211Y-121014189I874561J-784709D01*
G01*
X357504211Y-121014189D01*
G75*
G02*
X357594063Y-122673459I-784709J-874561D01*
G01*
X356284061Y-124133459D01*
G75*
G02*
X354624791Y-124223311I-874561J784709D01*
G01*
G37*
D18*
X361759500Y-120808750D03*
G36*
G01*
X361638657Y-122560966D02*
X361638657Y-122560966D01*
G75*
G02*
X360547284Y-121307907I80843J1172216D01*
G01*
X360587284Y-120727907D01*
G75*
G02*
X361840343Y-119636534I1172216J-80843D01*
G01*
X361840343Y-119636534D01*
G75*
G02*
X362931716Y-120889593I-80843J-1172216D01*
G01*
X362891716Y-121469593D01*
G75*
G02*
X361638657Y-122560966I-1172216J80843D01*
G01*
G37*
%TD*%
D17*
%TO.C,MX57*%
X342868250Y-125888750D03*
X332708250Y-125888750D03*
D18*
X335288250Y-121888750D03*
D19*
X337788250Y-125888750D03*
G36*
G01*
X333193541Y-124223310D02*
X333193541Y-124223311D01*
G75*
G02*
X333103689Y-122564041I784709J874561D01*
G01*
X334413691Y-121104041D01*
G75*
G02*
X336072961Y-121014189I874561J-784709D01*
G01*
X336072961Y-121014189D01*
G75*
G02*
X336162813Y-122673459I-784709J-874561D01*
G01*
X334852811Y-124133459D01*
G75*
G02*
X333193541Y-124223311I-874561J784709D01*
G01*
G37*
D18*
X340328250Y-120808750D03*
G36*
G01*
X340207407Y-122560966D02*
X340207407Y-122560966D01*
G75*
G02*
X339116034Y-121307907I80843J1172216D01*
G01*
X339156034Y-120727907D01*
G75*
G02*
X340409093Y-119636534I1172216J-80843D01*
G01*
X340409093Y-119636534D01*
G75*
G02*
X341500466Y-120889593I-80843J-1172216D01*
G01*
X341460466Y-121469593D01*
G75*
G02*
X340207407Y-122560966I-1172216J80843D01*
G01*
G37*
%TD*%
D17*
%TO.C,MX56*%
X321437000Y-125888750D03*
X311277000Y-125888750D03*
D18*
X313857000Y-121888750D03*
D19*
X316357000Y-125888750D03*
G36*
G01*
X311762291Y-124223310D02*
X311762291Y-124223311D01*
G75*
G02*
X311672439Y-122564041I784709J874561D01*
G01*
X312982441Y-121104041D01*
G75*
G02*
X314641711Y-121014189I874561J-784709D01*
G01*
X314641711Y-121014189D01*
G75*
G02*
X314731563Y-122673459I-784709J-874561D01*
G01*
X313421561Y-124133459D01*
G75*
G02*
X311762291Y-124223311I-874561J784709D01*
G01*
G37*
D18*
X318897000Y-120808750D03*
G36*
G01*
X318776157Y-122560966D02*
X318776157Y-122560966D01*
G75*
G02*
X317684784Y-121307907I80843J1172216D01*
G01*
X317724784Y-120727907D01*
G75*
G02*
X318977843Y-119636534I1172216J-80843D01*
G01*
X318977843Y-119636534D01*
G75*
G02*
X320069216Y-120889593I-80843J-1172216D01*
G01*
X320029216Y-121469593D01*
G75*
G02*
X318776157Y-122560966I-1172216J80843D01*
G01*
G37*
%TD*%
D19*
%TO.C,MX55*%
X290195000Y-117633750D03*
X266319000Y-117633750D03*
D25*
X290195000Y-132873750D03*
X266319000Y-132873750D03*
D17*
X283337000Y-125888750D03*
X273177000Y-125888750D03*
D18*
X275757000Y-121888750D03*
D19*
X278257000Y-125888750D03*
G36*
G01*
X273662291Y-124223310D02*
X273662291Y-124223311D01*
G75*
G02*
X273572439Y-122564041I784709J874561D01*
G01*
X274882441Y-121104041D01*
G75*
G02*
X276541711Y-121014189I874561J-784709D01*
G01*
X276541711Y-121014189D01*
G75*
G02*
X276631563Y-122673459I-784709J-874561D01*
G01*
X275321561Y-124133459D01*
G75*
G02*
X273662291Y-124223311I-874561J784709D01*
G01*
G37*
D18*
X280797000Y-120808750D03*
G36*
G01*
X280676157Y-122560966D02*
X280676157Y-122560966D01*
G75*
G02*
X279584784Y-121307907I80843J1172216D01*
G01*
X279624784Y-120727907D01*
G75*
G02*
X280877843Y-119636534I1172216J-80843D01*
G01*
X280877843Y-119636534D01*
G75*
G02*
X281969216Y-120889593I-80843J-1172216D01*
G01*
X281929216Y-121469593D01*
G75*
G02*
X280676157Y-122560966I-1172216J80843D01*
G01*
G37*
%TD*%
D19*
%TO.C,MX60*%
X318731900Y-117633750D03*
X218732100Y-117633750D03*
D25*
X318731900Y-132873750D03*
X218732100Y-132873750D03*
D17*
X273812000Y-125888750D03*
X263652000Y-125888750D03*
D18*
X266232000Y-121888750D03*
D19*
X268732000Y-125888750D03*
G36*
G01*
X264137291Y-124223310D02*
X264137291Y-124223311D01*
G75*
G02*
X264047439Y-122564041I784709J874561D01*
G01*
X265357441Y-121104041D01*
G75*
G02*
X267016711Y-121014189I874561J-784709D01*
G01*
X267016711Y-121014189D01*
G75*
G02*
X267106563Y-122673459I-784709J-874561D01*
G01*
X265796561Y-124133459D01*
G75*
G02*
X264137291Y-124223311I-874561J784709D01*
G01*
G37*
D18*
X271272000Y-120808750D03*
G36*
G01*
X271151157Y-122560966D02*
X271151157Y-122560966D01*
G75*
G02*
X270059784Y-121307907I80843J1172216D01*
G01*
X270099784Y-120727907D01*
G75*
G02*
X271352843Y-119636534I1172216J-80843D01*
G01*
X271352843Y-119636534D01*
G75*
G02*
X272444216Y-120889593I-80843J-1172216D01*
G01*
X272404216Y-121469593D01*
G75*
G02*
X271151157Y-122560966I-1172216J80843D01*
G01*
G37*
%TD*%
D19*
%TO.C,MX54*%
X242570000Y-117633750D03*
X218694000Y-117633750D03*
D25*
X242570000Y-132873750D03*
X218694000Y-132873750D03*
D17*
X235712000Y-125888750D03*
X225552000Y-125888750D03*
D18*
X228132000Y-121888750D03*
D19*
X230632000Y-125888750D03*
G36*
G01*
X226037291Y-124223310D02*
X226037291Y-124223311D01*
G75*
G02*
X225947439Y-122564041I784709J874561D01*
G01*
X227257441Y-121104041D01*
G75*
G02*
X228916711Y-121014189I874561J-784709D01*
G01*
X228916711Y-121014189D01*
G75*
G02*
X229006563Y-122673459I-784709J-874561D01*
G01*
X227696561Y-124133459D01*
G75*
G02*
X226037291Y-124223311I-874561J784709D01*
G01*
G37*
D18*
X233172000Y-120808750D03*
G36*
G01*
X233051157Y-122560966D02*
X233051157Y-122560966D01*
G75*
G02*
X231959784Y-121307907I80843J1172216D01*
G01*
X231999784Y-120727907D01*
G75*
G02*
X233252843Y-119636534I1172216J-80843D01*
G01*
X233252843Y-119636534D01*
G75*
G02*
X234344216Y-120889593I-80843J-1172216D01*
G01*
X234304216Y-121469593D01*
G75*
G02*
X233051157Y-122560966I-1172216J80843D01*
G01*
G37*
%TD*%
D17*
%TO.C,MX53*%
X202374500Y-125888750D03*
X192214500Y-125888750D03*
D18*
X194794500Y-121888750D03*
D19*
X197294500Y-125888750D03*
G36*
G01*
X192699791Y-124223310D02*
X192699791Y-124223311D01*
G75*
G02*
X192609939Y-122564041I784709J874561D01*
G01*
X193919941Y-121104041D01*
G75*
G02*
X195579211Y-121014189I874561J-784709D01*
G01*
X195579211Y-121014189D01*
G75*
G02*
X195669063Y-122673459I-784709J-874561D01*
G01*
X194359061Y-124133459D01*
G75*
G02*
X192699791Y-124223311I-874561J784709D01*
G01*
G37*
D18*
X199834500Y-120808750D03*
G36*
G01*
X199713657Y-122560966D02*
X199713657Y-122560966D01*
G75*
G02*
X198622284Y-121307907I80843J1172216D01*
G01*
X198662284Y-120727907D01*
G75*
G02*
X199915343Y-119636534I1172216J-80843D01*
G01*
X199915343Y-119636534D01*
G75*
G02*
X201006716Y-120889593I-80843J-1172216D01*
G01*
X200966716Y-121469593D01*
G75*
G02*
X199713657Y-122560966I-1172216J80843D01*
G01*
G37*
%TD*%
D17*
%TO.C,MX52*%
X178562000Y-125888750D03*
X168402000Y-125888750D03*
D18*
X170982000Y-121888750D03*
D19*
X173482000Y-125888750D03*
G36*
G01*
X168887291Y-124223310D02*
X168887291Y-124223311D01*
G75*
G02*
X168797439Y-122564041I784709J874561D01*
G01*
X170107441Y-121104041D01*
G75*
G02*
X171766711Y-121014189I874561J-784709D01*
G01*
X171766711Y-121014189D01*
G75*
G02*
X171856563Y-122673459I-784709J-874561D01*
G01*
X170546561Y-124133459D01*
G75*
G02*
X168887291Y-124223311I-874561J784709D01*
G01*
G37*
D18*
X176022000Y-120808750D03*
G36*
G01*
X175901157Y-122560966D02*
X175901157Y-122560966D01*
G75*
G02*
X174809784Y-121307907I80843J1172216D01*
G01*
X174849784Y-120727907D01*
G75*
G02*
X176102843Y-119636534I1172216J-80843D01*
G01*
X176102843Y-119636534D01*
G75*
G02*
X177194216Y-120889593I-80843J-1172216D01*
G01*
X177154216Y-121469593D01*
G75*
G02*
X175901157Y-122560966I-1172216J80843D01*
G01*
G37*
%TD*%
D17*
%TO.C,MX51*%
X152368250Y-130651250D03*
X142208250Y-130651250D03*
D18*
X144788250Y-126651250D03*
D19*
X147288250Y-130651250D03*
G36*
G01*
X142693541Y-128985810D02*
X142693541Y-128985811D01*
G75*
G02*
X142603689Y-127326541I784709J874561D01*
G01*
X143913691Y-125866541D01*
G75*
G02*
X145572961Y-125776689I874561J-784709D01*
G01*
X145572961Y-125776689D01*
G75*
G02*
X145662813Y-127435959I-784709J-874561D01*
G01*
X144352811Y-128895959D01*
G75*
G02*
X142693541Y-128985811I-874561J784709D01*
G01*
G37*
D18*
X149828250Y-125571250D03*
G36*
G01*
X149707407Y-127323466D02*
X149707407Y-127323466D01*
G75*
G02*
X148616034Y-126070407I80843J1172216D01*
G01*
X148656034Y-125490407D01*
G75*
G02*
X149909093Y-124399034I1172216J-80843D01*
G01*
X149909093Y-124399034D01*
G75*
G02*
X151000466Y-125652093I-80843J-1172216D01*
G01*
X150960466Y-126232093D01*
G75*
G02*
X149707407Y-127323466I-1172216J80843D01*
G01*
G37*
%TD*%
D17*
%TO.C,MX50*%
X133318250Y-130651250D03*
X123158250Y-130651250D03*
D18*
X125738250Y-126651250D03*
D19*
X128238250Y-130651250D03*
G36*
G01*
X123643541Y-128985810D02*
X123643541Y-128985811D01*
G75*
G02*
X123553689Y-127326541I784709J874561D01*
G01*
X124863691Y-125866541D01*
G75*
G02*
X126522961Y-125776689I874561J-784709D01*
G01*
X126522961Y-125776689D01*
G75*
G02*
X126612813Y-127435959I-784709J-874561D01*
G01*
X125302811Y-128895959D01*
G75*
G02*
X123643541Y-128985811I-874561J784709D01*
G01*
G37*
D18*
X130778250Y-125571250D03*
G36*
G01*
X130657407Y-127323466D02*
X130657407Y-127323466D01*
G75*
G02*
X129566034Y-126070407I80843J1172216D01*
G01*
X129606034Y-125490407D01*
G75*
G02*
X130859093Y-124399034I1172216J-80843D01*
G01*
X130859093Y-124399034D01*
G75*
G02*
X131950466Y-125652093I-80843J-1172216D01*
G01*
X131910466Y-126232093D01*
G75*
G02*
X130657407Y-127323466I-1172216J80843D01*
G01*
G37*
%TD*%
D17*
%TO.C,MX49*%
X114268250Y-130651250D03*
X104108250Y-130651250D03*
D18*
X106688250Y-126651250D03*
D19*
X109188250Y-130651250D03*
G36*
G01*
X104593541Y-128985810D02*
X104593541Y-128985811D01*
G75*
G02*
X104503689Y-127326541I784709J874561D01*
G01*
X105813691Y-125866541D01*
G75*
G02*
X107472961Y-125776689I874561J-784709D01*
G01*
X107472961Y-125776689D01*
G75*
G02*
X107562813Y-127435959I-784709J-874561D01*
G01*
X106252811Y-128895959D01*
G75*
G02*
X104593541Y-128985811I-874561J784709D01*
G01*
G37*
D18*
X111728250Y-125571250D03*
G36*
G01*
X111607407Y-127323466D02*
X111607407Y-127323466D01*
G75*
G02*
X110516034Y-126070407I80843J1172216D01*
G01*
X110556034Y-125490407D01*
G75*
G02*
X111809093Y-124399034I1172216J-80843D01*
G01*
X111809093Y-124399034D01*
G75*
G02*
X112900466Y-125652093I-80843J-1172216D01*
G01*
X112860466Y-126232093D01*
G75*
G02*
X111607407Y-127323466I-1172216J80843D01*
G01*
G37*
%TD*%
D17*
%TO.C,MX48*%
X90455750Y-125888750D03*
X80295750Y-125888750D03*
D18*
X82875750Y-121888750D03*
D19*
X85375750Y-125888750D03*
G36*
G01*
X80781041Y-124223310D02*
X80781041Y-124223311D01*
G75*
G02*
X80691189Y-122564041I784709J874561D01*
G01*
X82001191Y-121104041D01*
G75*
G02*
X83660461Y-121014189I874561J-784709D01*
G01*
X83660461Y-121014189D01*
G75*
G02*
X83750313Y-122673459I-784709J-874561D01*
G01*
X82440311Y-124133459D01*
G75*
G02*
X80781041Y-124223311I-874561J784709D01*
G01*
G37*
D18*
X87915750Y-120808750D03*
G36*
G01*
X87794907Y-122560966D02*
X87794907Y-122560966D01*
G75*
G02*
X86703534Y-121307907I80843J1172216D01*
G01*
X86743534Y-120727907D01*
G75*
G02*
X87996593Y-119636534I1172216J-80843D01*
G01*
X87996593Y-119636534D01*
G75*
G02*
X89087966Y-120889593I-80843J-1172216D01*
G01*
X89047966Y-121469593D01*
G75*
G02*
X87794907Y-122560966I-1172216J80843D01*
G01*
G37*
%TD*%
D17*
%TO.C,MX47*%
X71405750Y-125888750D03*
X61245750Y-125888750D03*
D18*
X63825750Y-121888750D03*
D19*
X66325750Y-125888750D03*
G36*
G01*
X61731041Y-124223310D02*
X61731041Y-124223311D01*
G75*
G02*
X61641189Y-122564041I784709J874561D01*
G01*
X62951191Y-121104041D01*
G75*
G02*
X64610461Y-121014189I874561J-784709D01*
G01*
X64610461Y-121014189D01*
G75*
G02*
X64700313Y-122673459I-784709J-874561D01*
G01*
X63390311Y-124133459D01*
G75*
G02*
X61731041Y-124223311I-874561J784709D01*
G01*
G37*
D18*
X68865750Y-120808750D03*
G36*
G01*
X68744907Y-122560966D02*
X68744907Y-122560966D01*
G75*
G02*
X67653534Y-121307907I80843J1172216D01*
G01*
X67693534Y-120727907D01*
G75*
G02*
X68946593Y-119636534I1172216J-80843D01*
G01*
X68946593Y-119636534D01*
G75*
G02*
X70037966Y-120889593I-80843J-1172216D01*
G01*
X69997966Y-121469593D01*
G75*
G02*
X68744907Y-122560966I-1172216J80843D01*
G01*
G37*
%TD*%
D17*
%TO.C,MX46*%
X364299500Y-106838750D03*
X354139500Y-106838750D03*
D18*
X356719500Y-102838750D03*
D19*
X359219500Y-106838750D03*
G36*
G01*
X354624791Y-105173310D02*
X354624791Y-105173311D01*
G75*
G02*
X354534939Y-103514041I784709J874561D01*
G01*
X355844941Y-102054041D01*
G75*
G02*
X357504211Y-101964189I874561J-784709D01*
G01*
X357504211Y-101964189D01*
G75*
G02*
X357594063Y-103623459I-784709J-874561D01*
G01*
X356284061Y-105083459D01*
G75*
G02*
X354624791Y-105173311I-874561J784709D01*
G01*
G37*
D18*
X361759500Y-101758750D03*
G36*
G01*
X361638657Y-103510966D02*
X361638657Y-103510966D01*
G75*
G02*
X360547284Y-102257907I80843J1172216D01*
G01*
X360587284Y-101677907D01*
G75*
G02*
X361840343Y-100586534I1172216J-80843D01*
G01*
X361840343Y-100586534D01*
G75*
G02*
X362931716Y-101839593I-80843J-1172216D01*
G01*
X362891716Y-102419593D01*
G75*
G02*
X361638657Y-103510966I-1172216J80843D01*
G01*
G37*
%TD*%
D17*
%TO.C,MX45*%
X342868250Y-106838750D03*
X332708250Y-106838750D03*
D18*
X335288250Y-102838750D03*
D19*
X337788250Y-106838750D03*
G36*
G01*
X333193541Y-105173310D02*
X333193541Y-105173311D01*
G75*
G02*
X333103689Y-103514041I784709J874561D01*
G01*
X334413691Y-102054041D01*
G75*
G02*
X336072961Y-101964189I874561J-784709D01*
G01*
X336072961Y-101964189D01*
G75*
G02*
X336162813Y-103623459I-784709J-874561D01*
G01*
X334852811Y-105083459D01*
G75*
G02*
X333193541Y-105173311I-874561J784709D01*
G01*
G37*
D18*
X340328250Y-101758750D03*
G36*
G01*
X340207407Y-103510966D02*
X340207407Y-103510966D01*
G75*
G02*
X339116034Y-102257907I80843J1172216D01*
G01*
X339156034Y-101677907D01*
G75*
G02*
X340409093Y-100586534I1172216J-80843D01*
G01*
X340409093Y-100586534D01*
G75*
G02*
X341500466Y-101839593I-80843J-1172216D01*
G01*
X341460466Y-102419593D01*
G75*
G02*
X340207407Y-103510966I-1172216J80843D01*
G01*
G37*
%TD*%
D17*
%TO.C,MX44*%
X323818250Y-106838750D03*
X313658250Y-106838750D03*
D18*
X316238250Y-102838750D03*
D19*
X318738250Y-106838750D03*
G36*
G01*
X314143541Y-105173310D02*
X314143541Y-105173311D01*
G75*
G02*
X314053689Y-103514041I784709J874561D01*
G01*
X315363691Y-102054041D01*
G75*
G02*
X317022961Y-101964189I874561J-784709D01*
G01*
X317022961Y-101964189D01*
G75*
G02*
X317112813Y-103623459I-784709J-874561D01*
G01*
X315802811Y-105083459D01*
G75*
G02*
X314143541Y-105173311I-874561J784709D01*
G01*
G37*
D18*
X321278250Y-101758750D03*
G36*
G01*
X321157407Y-103510966D02*
X321157407Y-103510966D01*
G75*
G02*
X320066034Y-102257907I80843J1172216D01*
G01*
X320106034Y-101677907D01*
G75*
G02*
X321359093Y-100586534I1172216J-80843D01*
G01*
X321359093Y-100586534D01*
G75*
G02*
X322450466Y-101839593I-80843J-1172216D01*
G01*
X322410466Y-102419593D01*
G75*
G02*
X321157407Y-103510966I-1172216J80843D01*
G01*
G37*
%TD*%
D17*
%TO.C,MX43*%
X304768250Y-106838750D03*
X294608250Y-106838750D03*
D18*
X297188250Y-102838750D03*
D19*
X299688250Y-106838750D03*
G36*
G01*
X295093541Y-105173310D02*
X295093541Y-105173311D01*
G75*
G02*
X295003689Y-103514041I784709J874561D01*
G01*
X296313691Y-102054041D01*
G75*
G02*
X297972961Y-101964189I874561J-784709D01*
G01*
X297972961Y-101964189D01*
G75*
G02*
X298062813Y-103623459I-784709J-874561D01*
G01*
X296752811Y-105083459D01*
G75*
G02*
X295093541Y-105173311I-874561J784709D01*
G01*
G37*
D18*
X302228250Y-101758750D03*
G36*
G01*
X302107407Y-103510966D02*
X302107407Y-103510966D01*
G75*
G02*
X301016034Y-102257907I80843J1172216D01*
G01*
X301056034Y-101677907D01*
G75*
G02*
X302309093Y-100586534I1172216J-80843D01*
G01*
X302309093Y-100586534D01*
G75*
G02*
X303400466Y-101839593I-80843J-1172216D01*
G01*
X303360466Y-102419593D01*
G75*
G02*
X302107407Y-103510966I-1172216J80843D01*
G01*
G37*
%TD*%
D17*
%TO.C,MX42*%
X285718250Y-106838750D03*
X275558250Y-106838750D03*
D18*
X278138250Y-102838750D03*
D19*
X280638250Y-106838750D03*
G36*
G01*
X276043541Y-105173310D02*
X276043541Y-105173311D01*
G75*
G02*
X275953689Y-103514041I784709J874561D01*
G01*
X277263691Y-102054041D01*
G75*
G02*
X278922961Y-101964189I874561J-784709D01*
G01*
X278922961Y-101964189D01*
G75*
G02*
X279012813Y-103623459I-784709J-874561D01*
G01*
X277702811Y-105083459D01*
G75*
G02*
X276043541Y-105173311I-874561J784709D01*
G01*
G37*
D18*
X283178250Y-101758750D03*
G36*
G01*
X283057407Y-103510966D02*
X283057407Y-103510966D01*
G75*
G02*
X281966034Y-102257907I80843J1172216D01*
G01*
X282006034Y-101677907D01*
G75*
G02*
X283259093Y-100586534I1172216J-80843D01*
G01*
X283259093Y-100586534D01*
G75*
G02*
X284350466Y-101839593I-80843J-1172216D01*
G01*
X284310466Y-102419593D01*
G75*
G02*
X283057407Y-103510966I-1172216J80843D01*
G01*
G37*
%TD*%
D17*
%TO.C,MX41*%
X266668250Y-106838750D03*
X256508250Y-106838750D03*
D18*
X259088250Y-102838750D03*
D19*
X261588250Y-106838750D03*
G36*
G01*
X256993541Y-105173310D02*
X256993541Y-105173311D01*
G75*
G02*
X256903689Y-103514041I784709J874561D01*
G01*
X258213691Y-102054041D01*
G75*
G02*
X259872961Y-101964189I874561J-784709D01*
G01*
X259872961Y-101964189D01*
G75*
G02*
X259962813Y-103623459I-784709J-874561D01*
G01*
X258652811Y-105083459D01*
G75*
G02*
X256993541Y-105173311I-874561J784709D01*
G01*
G37*
D18*
X264128250Y-101758750D03*
G36*
G01*
X264007407Y-103510966D02*
X264007407Y-103510966D01*
G75*
G02*
X262916034Y-102257907I80843J1172216D01*
G01*
X262956034Y-101677907D01*
G75*
G02*
X264209093Y-100586534I1172216J-80843D01*
G01*
X264209093Y-100586534D01*
G75*
G02*
X265300466Y-101839593I-80843J-1172216D01*
G01*
X265260466Y-102419593D01*
G75*
G02*
X264007407Y-103510966I-1172216J80843D01*
G01*
G37*
%TD*%
D17*
%TO.C,MX40*%
X247618250Y-106838750D03*
X237458250Y-106838750D03*
D18*
X240038250Y-102838750D03*
D19*
X242538250Y-106838750D03*
G36*
G01*
X237943541Y-105173310D02*
X237943541Y-105173311D01*
G75*
G02*
X237853689Y-103514041I784709J874561D01*
G01*
X239163691Y-102054041D01*
G75*
G02*
X240822961Y-101964189I874561J-784709D01*
G01*
X240822961Y-101964189D01*
G75*
G02*
X240912813Y-103623459I-784709J-874561D01*
G01*
X239602811Y-105083459D01*
G75*
G02*
X237943541Y-105173311I-874561J784709D01*
G01*
G37*
D18*
X245078250Y-101758750D03*
G36*
G01*
X244957407Y-103510966D02*
X244957407Y-103510966D01*
G75*
G02*
X243866034Y-102257907I80843J1172216D01*
G01*
X243906034Y-101677907D01*
G75*
G02*
X245159093Y-100586534I1172216J-80843D01*
G01*
X245159093Y-100586534D01*
G75*
G02*
X246250466Y-101839593I-80843J-1172216D01*
G01*
X246210466Y-102419593D01*
G75*
G02*
X244957407Y-103510966I-1172216J80843D01*
G01*
G37*
%TD*%
D17*
%TO.C,MX39*%
X228568250Y-106838750D03*
X218408250Y-106838750D03*
D18*
X220988250Y-102838750D03*
D19*
X223488250Y-106838750D03*
G36*
G01*
X218893541Y-105173310D02*
X218893541Y-105173311D01*
G75*
G02*
X218803689Y-103514041I784709J874561D01*
G01*
X220113691Y-102054041D01*
G75*
G02*
X221772961Y-101964189I874561J-784709D01*
G01*
X221772961Y-101964189D01*
G75*
G02*
X221862813Y-103623459I-784709J-874561D01*
G01*
X220552811Y-105083459D01*
G75*
G02*
X218893541Y-105173311I-874561J784709D01*
G01*
G37*
D18*
X226028250Y-101758750D03*
G36*
G01*
X225907407Y-103510966D02*
X225907407Y-103510966D01*
G75*
G02*
X224816034Y-102257907I80843J1172216D01*
G01*
X224856034Y-101677907D01*
G75*
G02*
X226109093Y-100586534I1172216J-80843D01*
G01*
X226109093Y-100586534D01*
G75*
G02*
X227200466Y-101839593I-80843J-1172216D01*
G01*
X227160466Y-102419593D01*
G75*
G02*
X225907407Y-103510966I-1172216J80843D01*
G01*
G37*
%TD*%
D17*
%TO.C,MX38*%
X209518250Y-106838750D03*
X199358250Y-106838750D03*
D18*
X201938250Y-102838750D03*
D19*
X204438250Y-106838750D03*
G36*
G01*
X199843541Y-105173310D02*
X199843541Y-105173311D01*
G75*
G02*
X199753689Y-103514041I784709J874561D01*
G01*
X201063691Y-102054041D01*
G75*
G02*
X202722961Y-101964189I874561J-784709D01*
G01*
X202722961Y-101964189D01*
G75*
G02*
X202812813Y-103623459I-784709J-874561D01*
G01*
X201502811Y-105083459D01*
G75*
G02*
X199843541Y-105173311I-874561J784709D01*
G01*
G37*
D18*
X206978250Y-101758750D03*
G36*
G01*
X206857407Y-103510966D02*
X206857407Y-103510966D01*
G75*
G02*
X205766034Y-102257907I80843J1172216D01*
G01*
X205806034Y-101677907D01*
G75*
G02*
X207059093Y-100586534I1172216J-80843D01*
G01*
X207059093Y-100586534D01*
G75*
G02*
X208150466Y-101839593I-80843J-1172216D01*
G01*
X208110466Y-102419593D01*
G75*
G02*
X206857407Y-103510966I-1172216J80843D01*
G01*
G37*
%TD*%
D17*
%TO.C,MX37*%
X190468250Y-106838750D03*
X180308250Y-106838750D03*
D18*
X182888250Y-102838750D03*
D19*
X185388250Y-106838750D03*
G36*
G01*
X180793541Y-105173310D02*
X180793541Y-105173311D01*
G75*
G02*
X180703689Y-103514041I784709J874561D01*
G01*
X182013691Y-102054041D01*
G75*
G02*
X183672961Y-101964189I874561J-784709D01*
G01*
X183672961Y-101964189D01*
G75*
G02*
X183762813Y-103623459I-784709J-874561D01*
G01*
X182452811Y-105083459D01*
G75*
G02*
X180793541Y-105173311I-874561J784709D01*
G01*
G37*
D18*
X187928250Y-101758750D03*
G36*
G01*
X187807407Y-103510966D02*
X187807407Y-103510966D01*
G75*
G02*
X186716034Y-102257907I80843J1172216D01*
G01*
X186756034Y-101677907D01*
G75*
G02*
X188009093Y-100586534I1172216J-80843D01*
G01*
X188009093Y-100586534D01*
G75*
G02*
X189100466Y-101839593I-80843J-1172216D01*
G01*
X189060466Y-102419593D01*
G75*
G02*
X187807407Y-103510966I-1172216J80843D01*
G01*
G37*
%TD*%
D17*
%TO.C,MX36*%
X164274500Y-106838750D03*
X154114500Y-106838750D03*
D18*
X156694500Y-102838750D03*
D19*
X159194500Y-106838750D03*
G36*
G01*
X154599791Y-105173310D02*
X154599791Y-105173311D01*
G75*
G02*
X154509939Y-103514041I784709J874561D01*
G01*
X155819941Y-102054041D01*
G75*
G02*
X157479211Y-101964189I874561J-784709D01*
G01*
X157479211Y-101964189D01*
G75*
G02*
X157569063Y-103623459I-784709J-874561D01*
G01*
X156259061Y-105083459D01*
G75*
G02*
X154599791Y-105173311I-874561J784709D01*
G01*
G37*
D18*
X161734500Y-101758750D03*
G36*
G01*
X161613657Y-103510966D02*
X161613657Y-103510966D01*
G75*
G02*
X160522284Y-102257907I80843J1172216D01*
G01*
X160562284Y-101677907D01*
G75*
G02*
X161815343Y-100586534I1172216J-80843D01*
G01*
X161815343Y-100586534D01*
G75*
G02*
X162906716Y-101839593I-80843J-1172216D01*
G01*
X162866716Y-102419593D01*
G75*
G02*
X161613657Y-103510966I-1172216J80843D01*
G01*
G37*
%TD*%
D17*
%TO.C,MX35*%
X133318250Y-111601250D03*
X123158250Y-111601250D03*
D18*
X125738250Y-107601250D03*
D19*
X128238250Y-111601250D03*
G36*
G01*
X123643541Y-109935810D02*
X123643541Y-109935811D01*
G75*
G02*
X123553689Y-108276541I784709J874561D01*
G01*
X124863691Y-106816541D01*
G75*
G02*
X126522961Y-106726689I874561J-784709D01*
G01*
X126522961Y-106726689D01*
G75*
G02*
X126612813Y-108385959I-784709J-874561D01*
G01*
X125302811Y-109845959D01*
G75*
G02*
X123643541Y-109935811I-874561J784709D01*
G01*
G37*
D18*
X130778250Y-106521250D03*
G36*
G01*
X130657407Y-108273466D02*
X130657407Y-108273466D01*
G75*
G02*
X129566034Y-107020407I80843J1172216D01*
G01*
X129606034Y-106440407D01*
G75*
G02*
X130859093Y-105349034I1172216J-80843D01*
G01*
X130859093Y-105349034D01*
G75*
G02*
X131950466Y-106602093I-80843J-1172216D01*
G01*
X131910466Y-107182093D01*
G75*
G02*
X130657407Y-108273466I-1172216J80843D01*
G01*
G37*
%TD*%
D17*
%TO.C,MX34*%
X109505750Y-106838750D03*
X99345750Y-106838750D03*
D18*
X101925750Y-102838750D03*
D19*
X104425750Y-106838750D03*
G36*
G01*
X99831041Y-105173310D02*
X99831041Y-105173311D01*
G75*
G02*
X99741189Y-103514041I784709J874561D01*
G01*
X101051191Y-102054041D01*
G75*
G02*
X102710461Y-101964189I874561J-784709D01*
G01*
X102710461Y-101964189D01*
G75*
G02*
X102800313Y-103623459I-784709J-874561D01*
G01*
X101490311Y-105083459D01*
G75*
G02*
X99831041Y-105173311I-874561J784709D01*
G01*
G37*
D18*
X106965750Y-101758750D03*
G36*
G01*
X106844907Y-103510966D02*
X106844907Y-103510966D01*
G75*
G02*
X105753534Y-102257907I80843J1172216D01*
G01*
X105793534Y-101677907D01*
G75*
G02*
X107046593Y-100586534I1172216J-80843D01*
G01*
X107046593Y-100586534D01*
G75*
G02*
X108137966Y-101839593I-80843J-1172216D01*
G01*
X108097966Y-102419593D01*
G75*
G02*
X106844907Y-103510966I-1172216J80843D01*
G01*
G37*
%TD*%
D17*
%TO.C,MX33*%
X90455750Y-106838750D03*
X80295750Y-106838750D03*
D18*
X82875750Y-102838750D03*
D19*
X85375750Y-106838750D03*
G36*
G01*
X80781041Y-105173310D02*
X80781041Y-105173311D01*
G75*
G02*
X80691189Y-103514041I784709J874561D01*
G01*
X82001191Y-102054041D01*
G75*
G02*
X83660461Y-101964189I874561J-784709D01*
G01*
X83660461Y-101964189D01*
G75*
G02*
X83750313Y-103623459I-784709J-874561D01*
G01*
X82440311Y-105083459D01*
G75*
G02*
X80781041Y-105173311I-874561J784709D01*
G01*
G37*
D18*
X87915750Y-101758750D03*
G36*
G01*
X87794907Y-103510966D02*
X87794907Y-103510966D01*
G75*
G02*
X86703534Y-102257907I80843J1172216D01*
G01*
X86743534Y-101677907D01*
G75*
G02*
X87996593Y-100586534I1172216J-80843D01*
G01*
X87996593Y-100586534D01*
G75*
G02*
X89087966Y-101839593I-80843J-1172216D01*
G01*
X89047966Y-102419593D01*
G75*
G02*
X87794907Y-103510966I-1172216J80843D01*
G01*
G37*
%TD*%
D17*
%TO.C,MX31*%
X359537000Y-87788750D03*
X349377000Y-87788750D03*
D18*
X351957000Y-83788750D03*
D19*
X354457000Y-87788750D03*
G36*
G01*
X349862291Y-86123310D02*
X349862291Y-86123311D01*
G75*
G02*
X349772439Y-84464041I784709J874561D01*
G01*
X351082441Y-83004041D01*
G75*
G02*
X352741711Y-82914189I874561J-784709D01*
G01*
X352741711Y-82914189D01*
G75*
G02*
X352831563Y-84573459I-784709J-874561D01*
G01*
X351521561Y-86033459D01*
G75*
G02*
X349862291Y-86123311I-874561J784709D01*
G01*
G37*
D18*
X356997000Y-82708750D03*
G36*
G01*
X356876157Y-84460966D02*
X356876157Y-84460966D01*
G75*
G02*
X355784784Y-83207907I80843J1172216D01*
G01*
X355824784Y-82627907D01*
G75*
G02*
X357077843Y-81536534I1172216J-80843D01*
G01*
X357077843Y-81536534D01*
G75*
G02*
X358169216Y-82789593I-80843J-1172216D01*
G01*
X358129216Y-83369593D01*
G75*
G02*
X356876157Y-84460966I-1172216J80843D01*
G01*
G37*
%TD*%
D17*
%TO.C,MX30*%
X333343250Y-87788750D03*
X323183250Y-87788750D03*
D18*
X325763250Y-83788750D03*
D19*
X328263250Y-87788750D03*
G36*
G01*
X323668541Y-86123310D02*
X323668541Y-86123311D01*
G75*
G02*
X323578689Y-84464041I784709J874561D01*
G01*
X324888691Y-83004041D01*
G75*
G02*
X326547961Y-82914189I874561J-784709D01*
G01*
X326547961Y-82914189D01*
G75*
G02*
X326637813Y-84573459I-784709J-874561D01*
G01*
X325327811Y-86033459D01*
G75*
G02*
X323668541Y-86123311I-874561J784709D01*
G01*
G37*
D18*
X330803250Y-82708750D03*
G36*
G01*
X330682407Y-84460966D02*
X330682407Y-84460966D01*
G75*
G02*
X329591034Y-83207907I80843J1172216D01*
G01*
X329631034Y-82627907D01*
G75*
G02*
X330884093Y-81536534I1172216J-80843D01*
G01*
X330884093Y-81536534D01*
G75*
G02*
X331975466Y-82789593I-80843J-1172216D01*
G01*
X331935466Y-83369593D01*
G75*
G02*
X330682407Y-84460966I-1172216J80843D01*
G01*
G37*
%TD*%
D17*
%TO.C,MX29*%
X314293250Y-87788750D03*
X304133250Y-87788750D03*
D18*
X306713250Y-83788750D03*
D19*
X309213250Y-87788750D03*
G36*
G01*
X304618541Y-86123310D02*
X304618541Y-86123311D01*
G75*
G02*
X304528689Y-84464041I784709J874561D01*
G01*
X305838691Y-83004041D01*
G75*
G02*
X307497961Y-82914189I874561J-784709D01*
G01*
X307497961Y-82914189D01*
G75*
G02*
X307587813Y-84573459I-784709J-874561D01*
G01*
X306277811Y-86033459D01*
G75*
G02*
X304618541Y-86123311I-874561J784709D01*
G01*
G37*
D18*
X311753250Y-82708750D03*
G36*
G01*
X311632407Y-84460966D02*
X311632407Y-84460966D01*
G75*
G02*
X310541034Y-83207907I80843J1172216D01*
G01*
X310581034Y-82627907D01*
G75*
G02*
X311834093Y-81536534I1172216J-80843D01*
G01*
X311834093Y-81536534D01*
G75*
G02*
X312925466Y-82789593I-80843J-1172216D01*
G01*
X312885466Y-83369593D01*
G75*
G02*
X311632407Y-84460966I-1172216J80843D01*
G01*
G37*
%TD*%
D17*
%TO.C,MX28*%
X295243250Y-87788750D03*
X285083250Y-87788750D03*
D18*
X287663250Y-83788750D03*
D19*
X290163250Y-87788750D03*
G36*
G01*
X285568541Y-86123310D02*
X285568541Y-86123311D01*
G75*
G02*
X285478689Y-84464041I784709J874561D01*
G01*
X286788691Y-83004041D01*
G75*
G02*
X288447961Y-82914189I874561J-784709D01*
G01*
X288447961Y-82914189D01*
G75*
G02*
X288537813Y-84573459I-784709J-874561D01*
G01*
X287227811Y-86033459D01*
G75*
G02*
X285568541Y-86123311I-874561J784709D01*
G01*
G37*
D18*
X292703250Y-82708750D03*
G36*
G01*
X292582407Y-84460966D02*
X292582407Y-84460966D01*
G75*
G02*
X291491034Y-83207907I80843J1172216D01*
G01*
X291531034Y-82627907D01*
G75*
G02*
X292784093Y-81536534I1172216J-80843D01*
G01*
X292784093Y-81536534D01*
G75*
G02*
X293875466Y-82789593I-80843J-1172216D01*
G01*
X293835466Y-83369593D01*
G75*
G02*
X292582407Y-84460966I-1172216J80843D01*
G01*
G37*
%TD*%
D17*
%TO.C,MX26*%
X257143250Y-87788750D03*
X246983250Y-87788750D03*
D18*
X249563250Y-83788750D03*
D19*
X252063250Y-87788750D03*
G36*
G01*
X247468541Y-86123310D02*
X247468541Y-86123311D01*
G75*
G02*
X247378689Y-84464041I784709J874561D01*
G01*
X248688691Y-83004041D01*
G75*
G02*
X250347961Y-82914189I874561J-784709D01*
G01*
X250347961Y-82914189D01*
G75*
G02*
X250437813Y-84573459I-784709J-874561D01*
G01*
X249127811Y-86033459D01*
G75*
G02*
X247468541Y-86123311I-874561J784709D01*
G01*
G37*
D18*
X254603250Y-82708750D03*
G36*
G01*
X254482407Y-84460966D02*
X254482407Y-84460966D01*
G75*
G02*
X253391034Y-83207907I80843J1172216D01*
G01*
X253431034Y-82627907D01*
G75*
G02*
X254684093Y-81536534I1172216J-80843D01*
G01*
X254684093Y-81536534D01*
G75*
G02*
X255775466Y-82789593I-80843J-1172216D01*
G01*
X255735466Y-83369593D01*
G75*
G02*
X254482407Y-84460966I-1172216J80843D01*
G01*
G37*
%TD*%
D17*
%TO.C,MX25*%
X238093250Y-87788750D03*
X227933250Y-87788750D03*
D18*
X230513250Y-83788750D03*
D19*
X233013250Y-87788750D03*
G36*
G01*
X228418541Y-86123310D02*
X228418541Y-86123311D01*
G75*
G02*
X228328689Y-84464041I784709J874561D01*
G01*
X229638691Y-83004041D01*
G75*
G02*
X231297961Y-82914189I874561J-784709D01*
G01*
X231297961Y-82914189D01*
G75*
G02*
X231387813Y-84573459I-784709J-874561D01*
G01*
X230077811Y-86033459D01*
G75*
G02*
X228418541Y-86123311I-874561J784709D01*
G01*
G37*
D18*
X235553250Y-82708750D03*
G36*
G01*
X235432407Y-84460966D02*
X235432407Y-84460966D01*
G75*
G02*
X234341034Y-83207907I80843J1172216D01*
G01*
X234381034Y-82627907D01*
G75*
G02*
X235634093Y-81536534I1172216J-80843D01*
G01*
X235634093Y-81536534D01*
G75*
G02*
X236725466Y-82789593I-80843J-1172216D01*
G01*
X236685466Y-83369593D01*
G75*
G02*
X235432407Y-84460966I-1172216J80843D01*
G01*
G37*
%TD*%
D17*
%TO.C,MX24*%
X219043250Y-87788750D03*
X208883250Y-87788750D03*
D18*
X211463250Y-83788750D03*
D19*
X213963250Y-87788750D03*
G36*
G01*
X209368541Y-86123310D02*
X209368541Y-86123311D01*
G75*
G02*
X209278689Y-84464041I784709J874561D01*
G01*
X210588691Y-83004041D01*
G75*
G02*
X212247961Y-82914189I874561J-784709D01*
G01*
X212247961Y-82914189D01*
G75*
G02*
X212337813Y-84573459I-784709J-874561D01*
G01*
X211027811Y-86033459D01*
G75*
G02*
X209368541Y-86123311I-874561J784709D01*
G01*
G37*
D18*
X216503250Y-82708750D03*
G36*
G01*
X216382407Y-84460966D02*
X216382407Y-84460966D01*
G75*
G02*
X215291034Y-83207907I80843J1172216D01*
G01*
X215331034Y-82627907D01*
G75*
G02*
X216584093Y-81536534I1172216J-80843D01*
G01*
X216584093Y-81536534D01*
G75*
G02*
X217675466Y-82789593I-80843J-1172216D01*
G01*
X217635466Y-83369593D01*
G75*
G02*
X216382407Y-84460966I-1172216J80843D01*
G01*
G37*
%TD*%
D17*
%TO.C,MX23*%
X199993250Y-87788750D03*
X189833250Y-87788750D03*
D18*
X192413250Y-83788750D03*
D19*
X194913250Y-87788750D03*
G36*
G01*
X190318541Y-86123310D02*
X190318541Y-86123311D01*
G75*
G02*
X190228689Y-84464041I784709J874561D01*
G01*
X191538691Y-83004041D01*
G75*
G02*
X193197961Y-82914189I874561J-784709D01*
G01*
X193197961Y-82914189D01*
G75*
G02*
X193287813Y-84573459I-784709J-874561D01*
G01*
X191977811Y-86033459D01*
G75*
G02*
X190318541Y-86123311I-874561J784709D01*
G01*
G37*
D18*
X197453250Y-82708750D03*
G36*
G01*
X197332407Y-84460966D02*
X197332407Y-84460966D01*
G75*
G02*
X196241034Y-83207907I80843J1172216D01*
G01*
X196281034Y-82627907D01*
G75*
G02*
X197534093Y-81536534I1172216J-80843D01*
G01*
X197534093Y-81536534D01*
G75*
G02*
X198625466Y-82789593I-80843J-1172216D01*
G01*
X198585466Y-83369593D01*
G75*
G02*
X197332407Y-84460966I-1172216J80843D01*
G01*
G37*
%TD*%
D17*
%TO.C,MX22*%
X180943250Y-87788750D03*
X170783250Y-87788750D03*
D18*
X173363250Y-83788750D03*
D19*
X175863250Y-87788750D03*
G36*
G01*
X171268541Y-86123310D02*
X171268541Y-86123311D01*
G75*
G02*
X171178689Y-84464041I784709J874561D01*
G01*
X172488691Y-83004041D01*
G75*
G02*
X174147961Y-82914189I874561J-784709D01*
G01*
X174147961Y-82914189D01*
G75*
G02*
X174237813Y-84573459I-784709J-874561D01*
G01*
X172927811Y-86033459D01*
G75*
G02*
X171268541Y-86123311I-874561J784709D01*
G01*
G37*
D18*
X178403250Y-82708750D03*
G36*
G01*
X178282407Y-84460966D02*
X178282407Y-84460966D01*
G75*
G02*
X177191034Y-83207907I80843J1172216D01*
G01*
X177231034Y-82627907D01*
G75*
G02*
X178484093Y-81536534I1172216J-80843D01*
G01*
X178484093Y-81536534D01*
G75*
G02*
X179575466Y-82789593I-80843J-1172216D01*
G01*
X179535466Y-83369593D01*
G75*
G02*
X178282407Y-84460966I-1172216J80843D01*
G01*
G37*
%TD*%
D17*
%TO.C,MX21*%
X159512000Y-87788750D03*
X149352000Y-87788750D03*
D18*
X151932000Y-83788750D03*
D19*
X154432000Y-87788750D03*
G36*
G01*
X149837291Y-86123310D02*
X149837291Y-86123311D01*
G75*
G02*
X149747439Y-84464041I784709J874561D01*
G01*
X151057441Y-83004041D01*
G75*
G02*
X152716711Y-82914189I874561J-784709D01*
G01*
X152716711Y-82914189D01*
G75*
G02*
X152806563Y-84573459I-784709J-874561D01*
G01*
X151496561Y-86033459D01*
G75*
G02*
X149837291Y-86123311I-874561J784709D01*
G01*
G37*
D18*
X156972000Y-82708750D03*
G36*
G01*
X156851157Y-84460966D02*
X156851157Y-84460966D01*
G75*
G02*
X155759784Y-83207907I80843J1172216D01*
G01*
X155799784Y-82627907D01*
G75*
G02*
X157052843Y-81536534I1172216J-80843D01*
G01*
X157052843Y-81536534D01*
G75*
G02*
X158144216Y-82789593I-80843J-1172216D01*
G01*
X158104216Y-83369593D01*
G75*
G02*
X156851157Y-84460966I-1172216J80843D01*
G01*
G37*
%TD*%
D17*
%TO.C,MX20*%
X133318250Y-87788750D03*
X123158250Y-87788750D03*
D18*
X125738250Y-83788750D03*
D19*
X128238250Y-87788750D03*
G36*
G01*
X123643541Y-86123310D02*
X123643541Y-86123311D01*
G75*
G02*
X123553689Y-84464041I784709J874561D01*
G01*
X124863691Y-83004041D01*
G75*
G02*
X126522961Y-82914189I874561J-784709D01*
G01*
X126522961Y-82914189D01*
G75*
G02*
X126612813Y-84573459I-784709J-874561D01*
G01*
X125302811Y-86033459D01*
G75*
G02*
X123643541Y-86123311I-874561J784709D01*
G01*
G37*
D18*
X130778250Y-82708750D03*
G36*
G01*
X130657407Y-84460966D02*
X130657407Y-84460966D01*
G75*
G02*
X129566034Y-83207907I80843J1172216D01*
G01*
X129606034Y-82627907D01*
G75*
G02*
X130859093Y-81536534I1172216J-80843D01*
G01*
X130859093Y-81536534D01*
G75*
G02*
X131950466Y-82789593I-80843J-1172216D01*
G01*
X131910466Y-83369593D01*
G75*
G02*
X130657407Y-84460966I-1172216J80843D01*
G01*
G37*
%TD*%
D17*
%TO.C,MX19*%
X109505750Y-87788750D03*
X99345750Y-87788750D03*
D18*
X101925750Y-83788750D03*
D19*
X104425750Y-87788750D03*
G36*
G01*
X99831041Y-86123310D02*
X99831041Y-86123311D01*
G75*
G02*
X99741189Y-84464041I784709J874561D01*
G01*
X101051191Y-83004041D01*
G75*
G02*
X102710461Y-82914189I874561J-784709D01*
G01*
X102710461Y-82914189D01*
G75*
G02*
X102800313Y-84573459I-784709J-874561D01*
G01*
X101490311Y-86033459D01*
G75*
G02*
X99831041Y-86123311I-874561J784709D01*
G01*
G37*
D18*
X106965750Y-82708750D03*
G36*
G01*
X106844907Y-84460966D02*
X106844907Y-84460966D01*
G75*
G02*
X105753534Y-83207907I80843J1172216D01*
G01*
X105793534Y-82627907D01*
G75*
G02*
X107046593Y-81536534I1172216J-80843D01*
G01*
X107046593Y-81536534D01*
G75*
G02*
X108137966Y-82789593I-80843J-1172216D01*
G01*
X108097966Y-83369593D01*
G75*
G02*
X106844907Y-84460966I-1172216J80843D01*
G01*
G37*
%TD*%
D17*
%TO.C,MX18*%
X90455750Y-87788750D03*
X80295750Y-87788750D03*
D18*
X82875750Y-83788750D03*
D19*
X85375750Y-87788750D03*
G36*
G01*
X80781041Y-86123310D02*
X80781041Y-86123311D01*
G75*
G02*
X80691189Y-84464041I784709J874561D01*
G01*
X82001191Y-83004041D01*
G75*
G02*
X83660461Y-82914189I874561J-784709D01*
G01*
X83660461Y-82914189D01*
G75*
G02*
X83750313Y-84573459I-784709J-874561D01*
G01*
X82440311Y-86033459D01*
G75*
G02*
X80781041Y-86123311I-874561J784709D01*
G01*
G37*
D18*
X87915750Y-82708750D03*
G36*
G01*
X87794907Y-84460966D02*
X87794907Y-84460966D01*
G75*
G02*
X86703534Y-83207907I80843J1172216D01*
G01*
X86743534Y-82627907D01*
G75*
G02*
X87996593Y-81536534I1172216J-80843D01*
G01*
X87996593Y-81536534D01*
G75*
G02*
X89087966Y-82789593I-80843J-1172216D01*
G01*
X89047966Y-83369593D01*
G75*
G02*
X87794907Y-84460966I-1172216J80843D01*
G01*
G37*
%TD*%
D17*
%TO.C,MX17*%
X71405750Y-87788750D03*
X61245750Y-87788750D03*
D18*
X63825750Y-83788750D03*
D19*
X66325750Y-87788750D03*
G36*
G01*
X61731041Y-86123310D02*
X61731041Y-86123311D01*
G75*
G02*
X61641189Y-84464041I784709J874561D01*
G01*
X62951191Y-83004041D01*
G75*
G02*
X64610461Y-82914189I874561J-784709D01*
G01*
X64610461Y-82914189D01*
G75*
G02*
X64700313Y-84573459I-784709J-874561D01*
G01*
X63390311Y-86033459D01*
G75*
G02*
X61731041Y-86123311I-874561J784709D01*
G01*
G37*
D18*
X68865750Y-82708750D03*
G36*
G01*
X68744907Y-84460966D02*
X68744907Y-84460966D01*
G75*
G02*
X67653534Y-83207907I80843J1172216D01*
G01*
X67693534Y-82627907D01*
G75*
G02*
X68946593Y-81536534I1172216J-80843D01*
G01*
X68946593Y-81536534D01*
G75*
G02*
X70037966Y-82789593I-80843J-1172216D01*
G01*
X69997966Y-83369593D01*
G75*
G02*
X68744907Y-84460966I-1172216J80843D01*
G01*
G37*
%TD*%
D17*
%TO.C,MX16*%
X366680750Y-68738750D03*
X356520750Y-68738750D03*
D18*
X359100750Y-64738750D03*
D19*
X361600750Y-68738750D03*
G36*
G01*
X357006041Y-67073310D02*
X357006041Y-67073311D01*
G75*
G02*
X356916189Y-65414041I784709J874561D01*
G01*
X358226191Y-63954041D01*
G75*
G02*
X359885461Y-63864189I874561J-784709D01*
G01*
X359885461Y-63864189D01*
G75*
G02*
X359975313Y-65523459I-784709J-874561D01*
G01*
X358665311Y-66983459D01*
G75*
G02*
X357006041Y-67073311I-874561J784709D01*
G01*
G37*
D18*
X364140750Y-63658750D03*
G36*
G01*
X364019907Y-65410966D02*
X364019907Y-65410966D01*
G75*
G02*
X362928534Y-64157907I80843J1172216D01*
G01*
X362968534Y-63577907D01*
G75*
G02*
X364221593Y-62486534I1172216J-80843D01*
G01*
X364221593Y-62486534D01*
G75*
G02*
X365312966Y-63739593I-80843J-1172216D01*
G01*
X365272966Y-64319593D01*
G75*
G02*
X364019907Y-65410966I-1172216J80843D01*
G01*
G37*
%TD*%
D17*
%TO.C,MX15*%
X347630750Y-68738750D03*
X337470750Y-68738750D03*
D18*
X340050750Y-64738750D03*
D19*
X342550750Y-68738750D03*
G36*
G01*
X337956041Y-67073310D02*
X337956041Y-67073311D01*
G75*
G02*
X337866189Y-65414041I784709J874561D01*
G01*
X339176191Y-63954041D01*
G75*
G02*
X340835461Y-63864189I874561J-784709D01*
G01*
X340835461Y-63864189D01*
G75*
G02*
X340925313Y-65523459I-784709J-874561D01*
G01*
X339615311Y-66983459D01*
G75*
G02*
X337956041Y-67073311I-874561J784709D01*
G01*
G37*
D18*
X345090750Y-63658750D03*
G36*
G01*
X344969907Y-65410966D02*
X344969907Y-65410966D01*
G75*
G02*
X343878534Y-64157907I80843J1172216D01*
G01*
X343918534Y-63577907D01*
G75*
G02*
X345171593Y-62486534I1172216J-80843D01*
G01*
X345171593Y-62486534D01*
G75*
G02*
X346262966Y-63739593I-80843J-1172216D01*
G01*
X346222966Y-64319593D01*
G75*
G02*
X344969907Y-65410966I-1172216J80843D01*
G01*
G37*
%TD*%
D17*
%TO.C,MX14*%
X328580750Y-68738750D03*
X318420750Y-68738750D03*
D18*
X321000750Y-64738750D03*
D19*
X323500750Y-68738750D03*
G36*
G01*
X318906041Y-67073310D02*
X318906041Y-67073311D01*
G75*
G02*
X318816189Y-65414041I784709J874561D01*
G01*
X320126191Y-63954041D01*
G75*
G02*
X321785461Y-63864189I874561J-784709D01*
G01*
X321785461Y-63864189D01*
G75*
G02*
X321875313Y-65523459I-784709J-874561D01*
G01*
X320565311Y-66983459D01*
G75*
G02*
X318906041Y-67073311I-874561J784709D01*
G01*
G37*
D18*
X326040750Y-63658750D03*
G36*
G01*
X325919907Y-65410966D02*
X325919907Y-65410966D01*
G75*
G02*
X324828534Y-64157907I80843J1172216D01*
G01*
X324868534Y-63577907D01*
G75*
G02*
X326121593Y-62486534I1172216J-80843D01*
G01*
X326121593Y-62486534D01*
G75*
G02*
X327212966Y-63739593I-80843J-1172216D01*
G01*
X327172966Y-64319593D01*
G75*
G02*
X325919907Y-65410966I-1172216J80843D01*
G01*
G37*
%TD*%
D17*
%TO.C,MX13*%
X309530750Y-68738750D03*
X299370750Y-68738750D03*
D18*
X301950750Y-64738750D03*
D19*
X304450750Y-68738750D03*
G36*
G01*
X299856041Y-67073310D02*
X299856041Y-67073311D01*
G75*
G02*
X299766189Y-65414041I784709J874561D01*
G01*
X301076191Y-63954041D01*
G75*
G02*
X302735461Y-63864189I874561J-784709D01*
G01*
X302735461Y-63864189D01*
G75*
G02*
X302825313Y-65523459I-784709J-874561D01*
G01*
X301515311Y-66983459D01*
G75*
G02*
X299856041Y-67073311I-874561J784709D01*
G01*
G37*
D18*
X306990750Y-63658750D03*
G36*
G01*
X306869907Y-65410966D02*
X306869907Y-65410966D01*
G75*
G02*
X305778534Y-64157907I80843J1172216D01*
G01*
X305818534Y-63577907D01*
G75*
G02*
X307071593Y-62486534I1172216J-80843D01*
G01*
X307071593Y-62486534D01*
G75*
G02*
X308162966Y-63739593I-80843J-1172216D01*
G01*
X308122966Y-64319593D01*
G75*
G02*
X306869907Y-65410966I-1172216J80843D01*
G01*
G37*
%TD*%
D17*
%TO.C,MX12*%
X290480750Y-68738750D03*
X280320750Y-68738750D03*
D18*
X282900750Y-64738750D03*
D19*
X285400750Y-68738750D03*
G36*
G01*
X280806041Y-67073310D02*
X280806041Y-67073311D01*
G75*
G02*
X280716189Y-65414041I784709J874561D01*
G01*
X282026191Y-63954041D01*
G75*
G02*
X283685461Y-63864189I874561J-784709D01*
G01*
X283685461Y-63864189D01*
G75*
G02*
X283775313Y-65523459I-784709J-874561D01*
G01*
X282465311Y-66983459D01*
G75*
G02*
X280806041Y-67073311I-874561J784709D01*
G01*
G37*
D18*
X287940750Y-63658750D03*
G36*
G01*
X287819907Y-65410966D02*
X287819907Y-65410966D01*
G75*
G02*
X286728534Y-64157907I80843J1172216D01*
G01*
X286768534Y-63577907D01*
G75*
G02*
X288021593Y-62486534I1172216J-80843D01*
G01*
X288021593Y-62486534D01*
G75*
G02*
X289112966Y-63739593I-80843J-1172216D01*
G01*
X289072966Y-64319593D01*
G75*
G02*
X287819907Y-65410966I-1172216J80843D01*
G01*
G37*
%TD*%
D17*
%TO.C,MX11*%
X271430750Y-68738750D03*
X261270750Y-68738750D03*
D18*
X263850750Y-64738750D03*
D19*
X266350750Y-68738750D03*
G36*
G01*
X261756041Y-67073310D02*
X261756041Y-67073311D01*
G75*
G02*
X261666189Y-65414041I784709J874561D01*
G01*
X262976191Y-63954041D01*
G75*
G02*
X264635461Y-63864189I874561J-784709D01*
G01*
X264635461Y-63864189D01*
G75*
G02*
X264725313Y-65523459I-784709J-874561D01*
G01*
X263415311Y-66983459D01*
G75*
G02*
X261756041Y-67073311I-874561J784709D01*
G01*
G37*
D18*
X268890750Y-63658750D03*
G36*
G01*
X268769907Y-65410966D02*
X268769907Y-65410966D01*
G75*
G02*
X267678534Y-64157907I80843J1172216D01*
G01*
X267718534Y-63577907D01*
G75*
G02*
X268971593Y-62486534I1172216J-80843D01*
G01*
X268971593Y-62486534D01*
G75*
G02*
X270062966Y-63739593I-80843J-1172216D01*
G01*
X270022966Y-64319593D01*
G75*
G02*
X268769907Y-65410966I-1172216J80843D01*
G01*
G37*
%TD*%
D17*
%TO.C,MX10*%
X252380750Y-68738750D03*
X242220750Y-68738750D03*
D18*
X244800750Y-64738750D03*
D19*
X247300750Y-68738750D03*
G36*
G01*
X242706041Y-67073310D02*
X242706041Y-67073311D01*
G75*
G02*
X242616189Y-65414041I784709J874561D01*
G01*
X243926191Y-63954041D01*
G75*
G02*
X245585461Y-63864189I874561J-784709D01*
G01*
X245585461Y-63864189D01*
G75*
G02*
X245675313Y-65523459I-784709J-874561D01*
G01*
X244365311Y-66983459D01*
G75*
G02*
X242706041Y-67073311I-874561J784709D01*
G01*
G37*
D18*
X249840750Y-63658750D03*
G36*
G01*
X249719907Y-65410966D02*
X249719907Y-65410966D01*
G75*
G02*
X248628534Y-64157907I80843J1172216D01*
G01*
X248668534Y-63577907D01*
G75*
G02*
X249921593Y-62486534I1172216J-80843D01*
G01*
X249921593Y-62486534D01*
G75*
G02*
X251012966Y-63739593I-80843J-1172216D01*
G01*
X250972966Y-64319593D01*
G75*
G02*
X249719907Y-65410966I-1172216J80843D01*
G01*
G37*
%TD*%
D17*
%TO.C,MX9*%
X233330750Y-68738750D03*
X223170750Y-68738750D03*
D18*
X225750750Y-64738750D03*
D19*
X228250750Y-68738750D03*
G36*
G01*
X223656041Y-67073310D02*
X223656041Y-67073311D01*
G75*
G02*
X223566189Y-65414041I784709J874561D01*
G01*
X224876191Y-63954041D01*
G75*
G02*
X226535461Y-63864189I874561J-784709D01*
G01*
X226535461Y-63864189D01*
G75*
G02*
X226625313Y-65523459I-784709J-874561D01*
G01*
X225315311Y-66983459D01*
G75*
G02*
X223656041Y-67073311I-874561J784709D01*
G01*
G37*
D18*
X230790750Y-63658750D03*
G36*
G01*
X230669907Y-65410966D02*
X230669907Y-65410966D01*
G75*
G02*
X229578534Y-64157907I80843J1172216D01*
G01*
X229618534Y-63577907D01*
G75*
G02*
X230871593Y-62486534I1172216J-80843D01*
G01*
X230871593Y-62486534D01*
G75*
G02*
X231962966Y-63739593I-80843J-1172216D01*
G01*
X231922966Y-64319593D01*
G75*
G02*
X230669907Y-65410966I-1172216J80843D01*
G01*
G37*
%TD*%
D17*
%TO.C,MX8*%
X214280750Y-68738750D03*
X204120750Y-68738750D03*
D18*
X206700750Y-64738750D03*
D19*
X209200750Y-68738750D03*
G36*
G01*
X204606041Y-67073310D02*
X204606041Y-67073311D01*
G75*
G02*
X204516189Y-65414041I784709J874561D01*
G01*
X205826191Y-63954041D01*
G75*
G02*
X207485461Y-63864189I874561J-784709D01*
G01*
X207485461Y-63864189D01*
G75*
G02*
X207575313Y-65523459I-784709J-874561D01*
G01*
X206265311Y-66983459D01*
G75*
G02*
X204606041Y-67073311I-874561J784709D01*
G01*
G37*
D18*
X211740750Y-63658750D03*
G36*
G01*
X211619907Y-65410966D02*
X211619907Y-65410966D01*
G75*
G02*
X210528534Y-64157907I80843J1172216D01*
G01*
X210568534Y-63577907D01*
G75*
G02*
X211821593Y-62486534I1172216J-80843D01*
G01*
X211821593Y-62486534D01*
G75*
G02*
X212912966Y-63739593I-80843J-1172216D01*
G01*
X212872966Y-64319593D01*
G75*
G02*
X211619907Y-65410966I-1172216J80843D01*
G01*
G37*
%TD*%
D17*
%TO.C,MX7*%
X195230750Y-68738750D03*
X185070750Y-68738750D03*
D18*
X187650750Y-64738750D03*
D19*
X190150750Y-68738750D03*
G36*
G01*
X185556041Y-67073310D02*
X185556041Y-67073311D01*
G75*
G02*
X185466189Y-65414041I784709J874561D01*
G01*
X186776191Y-63954041D01*
G75*
G02*
X188435461Y-63864189I874561J-784709D01*
G01*
X188435461Y-63864189D01*
G75*
G02*
X188525313Y-65523459I-784709J-874561D01*
G01*
X187215311Y-66983459D01*
G75*
G02*
X185556041Y-67073311I-874561J784709D01*
G01*
G37*
D18*
X192690750Y-63658750D03*
G36*
G01*
X192569907Y-65410966D02*
X192569907Y-65410966D01*
G75*
G02*
X191478534Y-64157907I80843J1172216D01*
G01*
X191518534Y-63577907D01*
G75*
G02*
X192771593Y-62486534I1172216J-80843D01*
G01*
X192771593Y-62486534D01*
G75*
G02*
X193862966Y-63739593I-80843J-1172216D01*
G01*
X193822966Y-64319593D01*
G75*
G02*
X192569907Y-65410966I-1172216J80843D01*
G01*
G37*
%TD*%
D17*
%TO.C,MX5*%
X157130750Y-68738750D03*
X146970750Y-68738750D03*
D18*
X149550750Y-64738750D03*
D19*
X152050750Y-68738750D03*
G36*
G01*
X147456041Y-67073310D02*
X147456041Y-67073311D01*
G75*
G02*
X147366189Y-65414041I784709J874561D01*
G01*
X148676191Y-63954041D01*
G75*
G02*
X150335461Y-63864189I874561J-784709D01*
G01*
X150335461Y-63864189D01*
G75*
G02*
X150425313Y-65523459I-784709J-874561D01*
G01*
X149115311Y-66983459D01*
G75*
G02*
X147456041Y-67073311I-874561J784709D01*
G01*
G37*
D18*
X154590750Y-63658750D03*
G36*
G01*
X154469907Y-65410966D02*
X154469907Y-65410966D01*
G75*
G02*
X153378534Y-64157907I80843J1172216D01*
G01*
X153418534Y-63577907D01*
G75*
G02*
X154671593Y-62486534I1172216J-80843D01*
G01*
X154671593Y-62486534D01*
G75*
G02*
X155762966Y-63739593I-80843J-1172216D01*
G01*
X155722966Y-64319593D01*
G75*
G02*
X154469907Y-65410966I-1172216J80843D01*
G01*
G37*
%TD*%
D17*
%TO.C,MX3*%
X109505750Y-68738750D03*
X99345750Y-68738750D03*
D18*
X101925750Y-64738750D03*
D19*
X104425750Y-68738750D03*
G36*
G01*
X99831041Y-67073310D02*
X99831041Y-67073311D01*
G75*
G02*
X99741189Y-65414041I784709J874561D01*
G01*
X101051191Y-63954041D01*
G75*
G02*
X102710461Y-63864189I874561J-784709D01*
G01*
X102710461Y-63864189D01*
G75*
G02*
X102800313Y-65523459I-784709J-874561D01*
G01*
X101490311Y-66983459D01*
G75*
G02*
X99831041Y-67073311I-874561J784709D01*
G01*
G37*
D18*
X106965750Y-63658750D03*
G36*
G01*
X106844907Y-65410966D02*
X106844907Y-65410966D01*
G75*
G02*
X105753534Y-64157907I80843J1172216D01*
G01*
X105793534Y-63577907D01*
G75*
G02*
X107046593Y-62486534I1172216J-80843D01*
G01*
X107046593Y-62486534D01*
G75*
G02*
X108137966Y-63739593I-80843J-1172216D01*
G01*
X108097966Y-64319593D01*
G75*
G02*
X106844907Y-65410966I-1172216J80843D01*
G01*
G37*
%TD*%
D17*
%TO.C,MX2*%
X90455750Y-68738750D03*
X80295750Y-68738750D03*
D18*
X82875750Y-64738750D03*
D19*
X85375750Y-68738750D03*
G36*
G01*
X80781041Y-67073310D02*
X80781041Y-67073311D01*
G75*
G02*
X80691189Y-65414041I784709J874561D01*
G01*
X82001191Y-63954041D01*
G75*
G02*
X83660461Y-63864189I874561J-784709D01*
G01*
X83660461Y-63864189D01*
G75*
G02*
X83750313Y-65523459I-784709J-874561D01*
G01*
X82440311Y-66983459D01*
G75*
G02*
X80781041Y-67073311I-874561J784709D01*
G01*
G37*
D18*
X87915750Y-63658750D03*
G36*
G01*
X87794907Y-65410966D02*
X87794907Y-65410966D01*
G75*
G02*
X86703534Y-64157907I80843J1172216D01*
G01*
X86743534Y-63577907D01*
G75*
G02*
X87996593Y-62486534I1172216J-80843D01*
G01*
X87996593Y-62486534D01*
G75*
G02*
X89087966Y-63739593I-80843J-1172216D01*
G01*
X89047966Y-64319593D01*
G75*
G02*
X87794907Y-65410966I-1172216J80843D01*
G01*
G37*
%TD*%
D12*
%TO.C,J1*%
X334264000Y-60960000D03*
D13*
X331724000Y-60960000D03*
%TD*%
%TO.C,F1*%
G36*
G01*
X150281000Y-77450000D02*
X150281000Y-78760000D01*
G75*
G02*
X150011000Y-79030000I-270000J0D01*
G01*
X149201000Y-79030000D01*
G75*
G02*
X148931000Y-78760000I0J270000D01*
G01*
X148931000Y-77450000D01*
G75*
G02*
X149201000Y-77180000I270000J0D01*
G01*
X150011000Y-77180000D01*
G75*
G02*
X150281000Y-77450000I0J-270000D01*
G01*
G37*
G36*
G01*
X147481000Y-77450000D02*
X147481000Y-78760000D01*
G75*
G02*
X147211000Y-79030000I-270000J0D01*
G01*
X146401000Y-79030000D01*
G75*
G02*
X146131000Y-78760000I0J270000D01*
G01*
X146131000Y-77450000D01*
G75*
G02*
X146401000Y-77180000I270000J0D01*
G01*
X147211000Y-77180000D01*
G75*
G02*
X147481000Y-77450000I0J-270000D01*
G01*
G37*
%TD*%
D26*
%TO.C,D59*%
X139605000Y-70038000D03*
X141605000Y-70038000D03*
X139605000Y-68138000D03*
D27*
X141605000Y-68338000D03*
%TD*%
D28*
%TO.C,D58*%
X367538000Y-125730000D03*
X367538000Y-129030000D03*
%TD*%
%TO.C,D57*%
X346075000Y-125730000D03*
X346075000Y-129030000D03*
%TD*%
%TO.C,D56*%
X324612000Y-125732000D03*
X324612000Y-129032000D03*
%TD*%
%TO.C,D55*%
X286512000Y-125732000D03*
X286512000Y-129032000D03*
%TD*%
%TO.C,D54*%
X239014000Y-125730000D03*
X239014000Y-129030000D03*
%TD*%
%TO.C,D53*%
X205613000Y-125730000D03*
X205613000Y-129030000D03*
%TD*%
%TO.C,D52*%
X181737000Y-125730000D03*
X181737000Y-129030000D03*
%TD*%
%TO.C,D51*%
X155575000Y-130556000D03*
X155575000Y-133856000D03*
%TD*%
%TO.C,D50*%
X136525000Y-130558000D03*
X136525000Y-133858000D03*
%TD*%
%TO.C,D49*%
X117475000Y-130558000D03*
X117475000Y-133858000D03*
%TD*%
%TO.C,D48*%
X93599000Y-125730000D03*
X93599000Y-129030000D03*
%TD*%
D29*
%TO.C,D47*%
X78359000Y-129032000D03*
X81659000Y-129032000D03*
%TD*%
D28*
%TO.C,D46*%
X367538000Y-106681000D03*
X367538000Y-109981000D03*
%TD*%
%TO.C,D45*%
X346075000Y-106680000D03*
X346075000Y-109980000D03*
%TD*%
%TO.C,D44*%
X327025000Y-106680000D03*
X327025000Y-109980000D03*
%TD*%
%TO.C,D43*%
X307975000Y-106680000D03*
X307975000Y-109980000D03*
%TD*%
%TO.C,D42*%
X288925000Y-106680000D03*
X288925000Y-109980000D03*
%TD*%
%TO.C,D41*%
X269875000Y-106680000D03*
X269875000Y-109980000D03*
%TD*%
%TO.C,D40*%
X250825000Y-106680000D03*
X250825000Y-109980000D03*
%TD*%
%TO.C,D39*%
X231775000Y-106682000D03*
X231775000Y-109982000D03*
%TD*%
%TO.C,D38*%
X212725000Y-106680000D03*
X212725000Y-109980000D03*
%TD*%
%TO.C,D37*%
X193675000Y-106680000D03*
X193675000Y-109980000D03*
%TD*%
%TO.C,D36*%
X167640000Y-106682000D03*
X167640000Y-109982000D03*
%TD*%
%TO.C,D35*%
X136525000Y-111508000D03*
X136525000Y-114808000D03*
%TD*%
%TO.C,D34*%
X112649000Y-106680000D03*
X112649000Y-109980000D03*
%TD*%
%TO.C,D33*%
X93599000Y-106680000D03*
X93599000Y-109980000D03*
%TD*%
%TO.C,D32*%
X74549000Y-106682000D03*
X74549000Y-109982000D03*
%TD*%
%TO.C,D31*%
X362839000Y-87630000D03*
X362839000Y-90930000D03*
%TD*%
%TO.C,D30*%
X320040000Y-87630000D03*
X320040000Y-90930000D03*
%TD*%
%TO.C,D29*%
X317500000Y-87630000D03*
X317500000Y-90930000D03*
%TD*%
%TO.C,D28*%
X298450000Y-87630000D03*
X298450000Y-90930000D03*
%TD*%
%TO.C,D27*%
X279400000Y-87630000D03*
X279400000Y-90930000D03*
%TD*%
%TO.C,D26*%
X260350000Y-87630000D03*
X260350000Y-90930000D03*
%TD*%
%TO.C,D25*%
X241300000Y-87630000D03*
X241300000Y-90930000D03*
%TD*%
%TO.C,D24*%
X222250000Y-87630000D03*
X222250000Y-90930000D03*
%TD*%
%TO.C,D23*%
X203200000Y-87630000D03*
X203200000Y-90930000D03*
%TD*%
%TO.C,D22*%
X184150000Y-87630000D03*
X184150000Y-90930000D03*
%TD*%
%TO.C,D21*%
X162814000Y-87630000D03*
X162814000Y-90930000D03*
%TD*%
%TO.C,D20*%
X136398000Y-87630000D03*
X136398000Y-90930000D03*
%TD*%
%TO.C,D19*%
X112649000Y-87632000D03*
X112649000Y-90932000D03*
%TD*%
%TO.C,D18*%
X93599000Y-87631000D03*
X93599000Y-90931000D03*
%TD*%
%TO.C,D17*%
X74549000Y-87632000D03*
X74549000Y-90932000D03*
%TD*%
%TO.C,D16*%
X369824000Y-68582000D03*
X369824000Y-71882000D03*
%TD*%
%TO.C,D15*%
X350774000Y-68582000D03*
X350774000Y-71882000D03*
%TD*%
%TO.C,D14*%
X331724000Y-68580000D03*
X331724000Y-71880000D03*
%TD*%
%TO.C,D13*%
X312674000Y-68580000D03*
X312674000Y-71880000D03*
%TD*%
%TO.C,D12*%
X293624000Y-68580000D03*
X293624000Y-71880000D03*
%TD*%
%TO.C,D11*%
X274574000Y-68581000D03*
X274574000Y-71881000D03*
%TD*%
%TO.C,D10*%
X255524000Y-68580000D03*
X255524000Y-71880000D03*
%TD*%
%TO.C,D9*%
X236474000Y-68580000D03*
X236474000Y-71880000D03*
%TD*%
%TO.C,D8*%
X217424000Y-68581000D03*
X217424000Y-71881000D03*
%TD*%
%TO.C,D7*%
X198374000Y-68580000D03*
X198374000Y-71880000D03*
%TD*%
%TO.C,D6*%
X179324000Y-68582000D03*
X179324000Y-71882000D03*
%TD*%
%TO.C,D5*%
X160274000Y-68581000D03*
X160274000Y-71881000D03*
%TD*%
%TO.C,D4*%
X119888000Y-71880000D03*
X119888000Y-68580000D03*
%TD*%
%TO.C,D3*%
X112680750Y-68580000D03*
X112680750Y-71880000D03*
%TD*%
%TO.C,D2*%
X93599000Y-68581000D03*
X93599000Y-71881000D03*
%TD*%
%TO.C,D1*%
X74549000Y-68582000D03*
X74549000Y-71882000D03*
%TD*%
%TO.C,C8*%
G36*
G01*
X328210000Y-72652000D02*
X328210000Y-73652000D01*
G75*
G02*
X327935000Y-73927000I-275000J0D01*
G01*
X327385000Y-73927000D01*
G75*
G02*
X327110000Y-73652000I0J275000D01*
G01*
X327110000Y-72652000D01*
G75*
G02*
X327385000Y-72377000I275000J0D01*
G01*
X327935000Y-72377000D01*
G75*
G02*
X328210000Y-72652000I0J-275000D01*
G01*
G37*
G36*
G01*
X330110000Y-72652000D02*
X330110000Y-73652000D01*
G75*
G02*
X329835000Y-73927000I-275000J0D01*
G01*
X329285000Y-73927000D01*
G75*
G02*
X329010000Y-73652000I0J275000D01*
G01*
X329010000Y-72652000D01*
G75*
G02*
X329285000Y-72377000I275000J0D01*
G01*
X329835000Y-72377000D01*
G75*
G02*
X330110000Y-72652000I0J-275000D01*
G01*
G37*
%TD*%
%TO.C,C7*%
G36*
G01*
X348242000Y-75010000D02*
X349242000Y-75010000D01*
G75*
G02*
X349517000Y-75285000I0J-275000D01*
G01*
X349517000Y-75835000D01*
G75*
G02*
X349242000Y-76110000I-275000J0D01*
G01*
X348242000Y-76110000D01*
G75*
G02*
X347967000Y-75835000I0J275000D01*
G01*
X347967000Y-75285000D01*
G75*
G02*
X348242000Y-75010000I275000J0D01*
G01*
G37*
G36*
G01*
X348242000Y-73110000D02*
X349242000Y-73110000D01*
G75*
G02*
X349517000Y-73385000I0J-275000D01*
G01*
X349517000Y-73935000D01*
G75*
G02*
X349242000Y-74210000I-275000J0D01*
G01*
X348242000Y-74210000D01*
G75*
G02*
X347967000Y-73935000I0J275000D01*
G01*
X347967000Y-73385000D01*
G75*
G02*
X348242000Y-73110000I275000J0D01*
G01*
G37*
%TD*%
%TO.C,C6*%
G36*
G01*
X356481000Y-74215000D02*
X355481000Y-74215000D01*
G75*
G02*
X355206000Y-73940000I0J275000D01*
G01*
X355206000Y-73390000D01*
G75*
G02*
X355481000Y-73115000I275000J0D01*
G01*
X356481000Y-73115000D01*
G75*
G02*
X356756000Y-73390000I0J-275000D01*
G01*
X356756000Y-73940000D01*
G75*
G02*
X356481000Y-74215000I-275000J0D01*
G01*
G37*
G36*
G01*
X356481000Y-76115000D02*
X355481000Y-76115000D01*
G75*
G02*
X355206000Y-75840000I0J275000D01*
G01*
X355206000Y-75290000D01*
G75*
G02*
X355481000Y-75015000I275000J0D01*
G01*
X356481000Y-75015000D01*
G75*
G02*
X356756000Y-75290000I0J-275000D01*
G01*
X356756000Y-75840000D01*
G75*
G02*
X356481000Y-76115000I-275000J0D01*
G01*
G37*
%TD*%
%TO.C,C5*%
G36*
G01*
X326931960Y-76542853D02*
X326224853Y-77249960D01*
G75*
G02*
X325835945Y-77249960I-194454J194454D01*
G01*
X325447036Y-76861051D01*
G75*
G02*
X325447036Y-76472143I194454J194454D01*
G01*
X326154143Y-75765036D01*
G75*
G02*
X326543051Y-75765036I194454J-194454D01*
G01*
X326931960Y-76153945D01*
G75*
G02*
X326931960Y-76542853I-194454J-194454D01*
G01*
G37*
G36*
G01*
X328275462Y-77886355D02*
X327568355Y-78593462D01*
G75*
G02*
X327179447Y-78593462I-194454J194454D01*
G01*
X326790538Y-78204553D01*
G75*
G02*
X326790538Y-77815645I194454J194454D01*
G01*
X327497645Y-77108538D01*
G75*
G02*
X327886553Y-77108538I194454J-194454D01*
G01*
X328275462Y-77497447D01*
G75*
G02*
X328275462Y-77886355I-194454J-194454D01*
G01*
G37*
%TD*%
%TO.C,C4*%
G36*
G01*
X337371604Y-92766289D02*
X338078711Y-93473396D01*
G75*
G02*
X338078711Y-93862304I-194454J-194454D01*
G01*
X337689802Y-94251213D01*
G75*
G02*
X337300894Y-94251213I-194454J194454D01*
G01*
X336593787Y-93544106D01*
G75*
G02*
X336593787Y-93155198I194454J194454D01*
G01*
X336982696Y-92766289D01*
G75*
G02*
X337371604Y-92766289I194454J-194454D01*
G01*
G37*
G36*
G01*
X338715106Y-91422787D02*
X339422213Y-92129894D01*
G75*
G02*
X339422213Y-92518802I-194454J-194454D01*
G01*
X339033304Y-92907711D01*
G75*
G02*
X338644396Y-92907711I-194454J194454D01*
G01*
X337937289Y-92200604D01*
G75*
G02*
X337937289Y-91811696I194454J194454D01*
G01*
X338326198Y-91422787D01*
G75*
G02*
X338715106Y-91422787I194454J-194454D01*
G01*
G37*
%TD*%
%TO.C,C3*%
G36*
G01*
X348242000Y-91393000D02*
X349242000Y-91393000D01*
G75*
G02*
X349517000Y-91668000I0J-275000D01*
G01*
X349517000Y-92218000D01*
G75*
G02*
X349242000Y-92493000I-275000J0D01*
G01*
X348242000Y-92493000D01*
G75*
G02*
X347967000Y-92218000I0J275000D01*
G01*
X347967000Y-91668000D01*
G75*
G02*
X348242000Y-91393000I275000J0D01*
G01*
G37*
G36*
G01*
X348242000Y-89493000D02*
X349242000Y-89493000D01*
G75*
G02*
X349517000Y-89768000I0J-275000D01*
G01*
X349517000Y-90318000D01*
G75*
G02*
X349242000Y-90593000I-275000J0D01*
G01*
X348242000Y-90593000D01*
G75*
G02*
X347967000Y-90318000I0J275000D01*
G01*
X347967000Y-89768000D01*
G75*
G02*
X348242000Y-89493000I275000J0D01*
G01*
G37*
%TD*%
%TO.C,C2*%
G36*
G01*
X336149462Y-74203355D02*
X335442355Y-74910462D01*
G75*
G02*
X335053447Y-74910462I-194454J194454D01*
G01*
X334664538Y-74521553D01*
G75*
G02*
X334664538Y-74132645I194454J194454D01*
G01*
X335371645Y-73425538D01*
G75*
G02*
X335760553Y-73425538I194454J-194454D01*
G01*
X336149462Y-73814447D01*
G75*
G02*
X336149462Y-74203355I-194454J-194454D01*
G01*
G37*
G36*
G01*
X334805960Y-72859853D02*
X334098853Y-73566960D01*
G75*
G02*
X333709945Y-73566960I-194454J194454D01*
G01*
X333321036Y-73178051D01*
G75*
G02*
X333321036Y-72789143I194454J194454D01*
G01*
X334028143Y-72082036D01*
G75*
G02*
X334417051Y-72082036I194454J-194454D01*
G01*
X334805960Y-72470945D01*
G75*
G02*
X334805960Y-72859853I-194454J-194454D01*
G01*
G37*
%TD*%
M02*
