%TF.GenerationSoftware,KiCad,Pcbnew,5.1.6+dfsg1-1*%
%TF.CreationDate,2020-11-03T16:58:05-08:00*%
%TF.ProjectId,SPM1800,53504d31-3830-4302-9e6b-696361645f70,rev?*%
%TF.SameCoordinates,Original*%
%TF.FileFunction,Legend,Top*%
%TF.FilePolarity,Positive*%
%FSLAX46Y46*%
G04 Gerber Fmt 4.6, Leading zero omitted, Abs format (unit mm)*
G04 Created by KiCad (PCBNEW 5.1.6+dfsg1-1) date 2020-11-03 16:58:05*
%MOMM*%
%LPD*%
G01*
G04 APERTURE LIST*
%ADD10C,0.120000*%
%ADD11C,0.150000*%
G04 APERTURE END LIST*
D10*
%TO.C,J2*%
X325695000Y260918000D02*
X325695000Y258258000D01*
X330835000Y260918000D02*
X325695000Y260918000D01*
X330835000Y258258000D02*
X325695000Y258258000D01*
X330835000Y260918000D02*
X330835000Y258258000D01*
X332105000Y260918000D02*
X333435000Y260918000D01*
X333435000Y260918000D02*
X333435000Y259588000D01*
%TO.C,J3*%
X129861000Y278705000D02*
X132521000Y278705000D01*
X129861000Y278765000D02*
X129861000Y278705000D01*
X132521000Y278765000D02*
X132521000Y278705000D01*
X129861000Y278765000D02*
X132521000Y278765000D01*
X129861000Y280035000D02*
X129861000Y281365000D01*
X129861000Y281365000D02*
X131191000Y281365000D01*
%TO.C,EC2*%
X141851000Y253096000D02*
G75*
G03*
X141851000Y253096000I-3000000J0D01*
G01*
X132951000Y255096000D02*
X132951000Y259196000D01*
X144751000Y259196000D02*
X144751000Y255096000D01*
X144751000Y251096000D02*
X144751000Y246996000D01*
X132951000Y251096000D02*
X132951000Y246996000D01*
X132951000Y246996000D02*
X144751000Y246996000D01*
X135051000Y245596000D02*
X134751000Y245296000D01*
X134751000Y245296000D02*
X134751000Y245896000D01*
X134751000Y245896000D02*
X135051000Y245596000D01*
X132951000Y259196000D02*
X135351000Y259196000D01*
X137551000Y259196000D02*
X140151000Y259196000D01*
X142351000Y259196000D02*
X144751000Y259196000D01*
X138351000Y253096000D02*
X139351000Y253096000D01*
X138851000Y252596000D02*
X138851000Y253596000D01*
%TO.C,EC1*%
X141851000Y272041000D02*
G75*
G03*
X141851000Y272041000I-3000000J0D01*
G01*
X132951000Y274041000D02*
X132951000Y278141000D01*
X144751000Y278141000D02*
X144751000Y274041000D01*
X144751000Y270041000D02*
X144751000Y265941000D01*
X132951000Y270041000D02*
X132951000Y265941000D01*
X132951000Y265941000D02*
X144751000Y265941000D01*
X135051000Y264541000D02*
X134751000Y264241000D01*
X134751000Y264241000D02*
X134751000Y264841000D01*
X134751000Y264841000D02*
X135051000Y264541000D01*
X132951000Y278141000D02*
X135351000Y278141000D01*
X137551000Y278141000D02*
X140151000Y278141000D01*
X142351000Y278141000D02*
X144751000Y278141000D01*
X138351000Y272041000D02*
X139351000Y272041000D01*
X138851000Y271541000D02*
X138851000Y272541000D01*
%TO.C,J1*%
X341062000Y278705000D02*
X341062000Y280035000D01*
X342392000Y278705000D02*
X341062000Y278705000D01*
X343662000Y278705000D02*
X343662000Y281365000D01*
X343662000Y281365000D02*
X346262000Y281365000D01*
X343662000Y278705000D02*
X346262000Y278705000D01*
X346262000Y278705000D02*
X346262000Y281365000D01*
%TO.C,J2*%
D11*
X333887380Y259254666D02*
X334601666Y259254666D01*
X334744523Y259207047D01*
X334839761Y259111809D01*
X334887380Y258968952D01*
X334887380Y258873714D01*
X333982619Y259683238D02*
X333935000Y259730857D01*
X333887380Y259826095D01*
X333887380Y260064190D01*
X333935000Y260159428D01*
X333982619Y260207047D01*
X334077857Y260254666D01*
X334173095Y260254666D01*
X334315952Y260207047D01*
X334887380Y259635619D01*
X334887380Y260254666D01*
%TO.C,J3*%
X130603666Y277979119D02*
X130603666Y277264833D01*
X130556047Y277121976D01*
X130460809Y277026738D01*
X130317952Y276979119D01*
X130222714Y276979119D01*
X130984619Y277979119D02*
X131603666Y277979119D01*
X131270333Y277598166D01*
X131413190Y277598166D01*
X131508428Y277550547D01*
X131556047Y277502928D01*
X131603666Y277407690D01*
X131603666Y277169595D01*
X131556047Y277074357D01*
X131508428Y277026738D01*
X131413190Y276979119D01*
X131127476Y276979119D01*
X131032238Y277026738D01*
X130984619Y277074357D01*
%TO.C,EC2*%
X131579571Y247205523D02*
X131579571Y247538857D01*
X132103380Y247681714D02*
X132103380Y247205523D01*
X131103380Y247205523D01*
X131103380Y247681714D01*
X132008142Y248681714D02*
X132055761Y248634095D01*
X132103380Y248491238D01*
X132103380Y248396000D01*
X132055761Y248253142D01*
X131960523Y248157904D01*
X131865285Y248110285D01*
X131674809Y248062666D01*
X131531952Y248062666D01*
X131341476Y248110285D01*
X131246238Y248157904D01*
X131151000Y248253142D01*
X131103380Y248396000D01*
X131103380Y248491238D01*
X131151000Y248634095D01*
X131198619Y248681714D01*
X131198619Y249062666D02*
X131151000Y249110285D01*
X131103380Y249205523D01*
X131103380Y249443619D01*
X131151000Y249538857D01*
X131198619Y249586476D01*
X131293857Y249634095D01*
X131389095Y249634095D01*
X131531952Y249586476D01*
X132103380Y249015047D01*
X132103380Y249634095D01*
%TO.C,EC1*%
X131579571Y266150523D02*
X131579571Y266483857D01*
X132103380Y266626714D02*
X132103380Y266150523D01*
X131103380Y266150523D01*
X131103380Y266626714D01*
X132008142Y267626714D02*
X132055761Y267579095D01*
X132103380Y267436238D01*
X132103380Y267341000D01*
X132055761Y267198142D01*
X131960523Y267102904D01*
X131865285Y267055285D01*
X131674809Y267007666D01*
X131531952Y267007666D01*
X131341476Y267055285D01*
X131246238Y267102904D01*
X131151000Y267198142D01*
X131103380Y267341000D01*
X131103380Y267436238D01*
X131151000Y267579095D01*
X131198619Y267626714D01*
X132103380Y268579095D02*
X132103380Y268007666D01*
X132103380Y268293380D02*
X131103380Y268293380D01*
X131246238Y268198142D01*
X131341476Y268102904D01*
X131389095Y268007666D01*
%TO.C,J1*%
X339514380Y279701666D02*
X340228666Y279701666D01*
X340371523Y279654047D01*
X340466761Y279558809D01*
X340514380Y279415952D01*
X340514380Y279320714D01*
X340514380Y280701666D02*
X340514380Y280130238D01*
X340514380Y280415952D02*
X339514380Y280415952D01*
X339657238Y280320714D01*
X339752476Y280225476D01*
X339800095Y280130238D01*
%TD*%
M02*
